<?xml version="1.0" standalone="no"?>
<!DOCTYPE svg PUBLIC "-//W3C//DTD SVG 20010904//EN"
 "http://www.w3.org/TR/2001/REC-SVG-20010904/DTD/svg10.dtd">
<svg version="1.0" xmlns="http://www.w3.org/2000/svg"
 width="474.000000pt" height="417.000000pt" viewBox="0 0 474.000000 417.000000"
 preserveAspectRatio="xMidYMid meet">

<g transform="translate(0.000000,417.000000) scale(0.100000,-0.100000)"
fill="#000000" stroke="none">
<path d="M2175 3774 c-16 -2 -77 -9 -135 -15 -546 -57 -1124 -326 -1520 -705
-116 -112 -134 -143 -128 -225 4 -58 32 -114 56 -114 6 0 14 -4 19 -9 5 -5 3
-6 -4 -2 -7 4 -13 3 -13 -2 0 -5 12 -14 27 -21 16 -8 36 -17 45 -22 29 -15 32
-10 7 12 -17 14 -20 22 -11 26 7 2 19 20 26 38 11 26 21 34 51 39 23 5 39 14
42 25 3 13 12 17 31 14 15 -2 21 0 15 3 -23 10 -14 26 12 22 24 -5 36 7 15 14
-12 4 26 48 41 48 6 0 7 -4 4 -10 -3 -6 1 -7 10 -3 12 4 13 8 5 13 -7 4 -9 13
-5 19 5 9 10 9 21 0 11 -9 14 -7 14 11 0 14 5 20 13 17 7 -3 23 8 36 23 12 16
28 27 35 24 7 -3 26 10 41 28 15 17 33 33 40 34 13 2 43 25 78 59 11 11 16 13
11 5 -4 -8 7 -3 25 13 18 15 37 25 41 22 13 -8 80 27 80 42 0 7 9 13 19 13 11
0 23 5 26 10 3 6 15 10 26 10 10 0 36 9 56 20 21 11 43 20 50 20 7 0 16 6 20
13 16 24 138 67 192 67 17 0 31 4 31 8 0 5 11 14 25 20 21 10 27 9 31 -3 5
-11 11 -12 25 -4 10 5 19 8 19 5 0 -3 24 6 52 19 30 14 56 21 61 16 5 -5 21
-3 35 5 15 8 39 12 54 8 14 -3 29 0 33 6 3 5 11 8 16 5 5 -4 9 -2 9 3 0 11
129 21 388 28 173 5 192 4 192 -10 0 -14 14 -16 100 -15 55 1 106 -3 113 -8 6
-5 27 -10 46 -12 19 -1 40 -6 47 -12 8 -7 13 -6 16 1 3 11 56 -3 128 -33 24
-10 36 -12 88 -15 14 -1 22 -8 22 -20 0 -14 9 -18 43 -18 23 -1 58 -7 79 -15
29 -11 36 -18 35 -38 -2 -23 2 -25 43 -26 50 0 70 -9 70 -31 0 -8 8 -14 18
-14 14 0 15 2 2 10 -12 7 -8 10 15 10 22 0 26 -3 17 -12 -17 -17 -15 -29 3
-22 16 7 74 -34 74 -53 1 -15 21 -18 21 -3 0 6 8 10 18 9 10 0 12 -3 4 -6 -6
-2 -10 -9 -6 -14 3 -5 -4 -9 -15 -9 -12 0 -21 -4 -21 -10 0 -5 11 -10 25 -10
16 0 25 -6 25 -16 0 -13 -3 -14 -13 -5 -8 6 -23 12 -35 14 -12 2 -25 7 -29 12
-5 4 -2 5 6 0 10 -6 12 -4 7 4 -5 7 -15 10 -23 7 -8 -3 -12 -2 -9 3 3 4 -1 16
-8 27 -11 14 -17 16 -28 6 -12 -9 -19 -9 -34 3 -10 8 -27 15 -37 15 -10 0 -15
4 -12 10 4 6 -1 7 -11 3 -12 -4 -15 -3 -10 5 5 8 2 10 -10 5 -14 -5 -13 -8 7
-19 13 -7 31 -13 40 -14 9 0 22 -7 29 -15 7 -9 21 -13 31 -10 9 3 21 0 25 -6
5 -8 3 -10 -7 -5 -8 4 -3 -2 11 -13 14 -11 34 -24 44 -27 11 -4 42 -21 70 -39
28 -17 57 -30 64 -28 7 3 11 1 10 -4 -3 -9 54 -63 66 -63 3 0 5 5 3 11 -1 6 5
14 13 16 9 3 11 1 5 -4 -18 -15 -15 -32 8 -44 12 -7 39 -27 59 -45 24 -22 44
-32 55 -28 14 4 15 3 5 -4 -11 -7 -8 -14 15 -29 15 -11 35 -18 43 -16 12 4 12
2 2 -5 -10 -6 4 -24 52 -70 88 -82 147 -98 237 -67 81 29 128 98 129 188 0 71
-21 107 -119 199 -407 387 -929 637 -1491 714 -101 14 -493 27 -555 18z m540
-38 c376 -52 696 -161 1012 -347 48 -29 90 -56 91 -61 2 -4 8 -8 14 -8 12 0
161 -110 166 -122 2 -5 9 -8 15 -8 16 0 87 -72 87 -88 0 -8 6 -12 14 -9 17 7
40 -18 31 -33 -3 -6 -11 -8 -16 -4 -5 3 -6 10 -3 16 4 7 2 8 -4 4 -13 -8 -104
53 -97 64 3 5 -2 11 -11 14 -8 3 -12 2 -9 -4 3 -5 -21 7 -55 27 -45 27 -58 39
-48 45 9 7 8 8 -5 4 -11 -4 -42 6 -75 23 -349 182 -850 300 -1347 318 -483 16
-1062 -89 -1439 -262 -44 -20 -85 -34 -93 -31 -8 3 -11 1 -8 -4 5 -8 -126 -83
-148 -85 -4 0 -11 -5 -15 -11 -4 -6 -27 -24 -52 -39 -25 -15 -48 -33 -52 -38
-4 -7 -11 -7 -21 2 -11 8 -17 9 -22 1 -4 -6 -3 -9 2 -8 4 2 8 -1 8 -7 0 -5 -8
-10 -17 -9 -9 0 -15 -3 -12 -8 3 -4 -29 -43 -70 -85 -42 -42 -76 -72 -77 -67
0 5 -7 -4 -14 -21 -10 -20 -14 -24 -15 -12 0 23 15 52 53 100 28 35 57 52 41
25 -4 -7 -5 -11 -1 -8 3 3 5 8 4 11 -4 13 36 48 46 42 5 -3 7 -1 3 5 -3 6 8
21 25 34 17 13 43 34 58 48 38 37 164 129 261 192 375 243 772 376 1260 422
88 8 427 -3 535 -18z m-102 -283 c-7 -2 -19 -2 -25 0 -7 3 -2 5 12 5 14 0 19
-2 13 -5z m1045 -382 c7 -4 14 -14 15 -22 2 -8 7 -20 12 -28 5 -10 4 -16 -3
-19 -7 -2 -10 -8 -7 -13 4 -5 -1 -6 -10 -2 -12 4 -13 8 -5 13 7 4 -1 12 -22
21 -33 14 -39 15 -59 18 -8 1 -8 5 1 16 10 12 15 12 33 -5 24 -23 26 -23 47
-10 12 8 10 10 -10 8 -16 -2 -25 3 -28 15 -4 18 14 22 36 8z m512 -21 c0 -5
-4 -10 -10 -10 -5 0 -10 5 -10 10 0 6 5 10 10 10 6 0 10 -4 10 -10z m58 -43
c10 -11 9 -17 -1 -26 -11 -8 -19 -5 -36 13 -26 28 -20 52 8 37 10 -6 23 -16
29 -24z m24 -29 c-8 -8 -6 -17 8 -36 11 -14 20 -30 20 -36 0 -6 -11 5 -24 24
-17 25 -21 39 -14 48 6 6 13 12 16 12 3 0 1 -5 -6 -12z m-447 -58 c3 -5 1 -10
-4 -10 -6 0 -11 5 -11 10 0 6 2 10 4 10 3 0 8 -4 11 -10z m272 -214 c0 -8 -6
-12 -15 -9 -11 5 -11 7 0 14 7 5 13 9 14 9 0 0 1 -6 1 -14z"/>
<path d="M501 2996 c4 -4 -4 -19 -17 -33 -13 -14 -24 -31 -24 -36 0 -6 1 -8 3
-6 1 2 15 18 30 35 22 24 26 34 15 40 -7 4 -10 4 -7 0z"/>
<path d="M3650 3026 c0 -2 7 -7 16 -10 8 -3 12 -2 9 4 -6 10 -25 14 -25 6z"/>
<path d="M4180 3024 c0 -7 27 -34 34 -34 13 0 5 16 -14 28 -11 7 -20 10 -20 6z"/>
<path d="M2988 3363 c7 -3 16 -2 19 1 4 3 -2 6 -13 5 -11 0 -14 -3 -6 -6z"/>
<path d="M2818 3333 c7 -3 16 -2 19 1 4 3 -2 6 -13 5 -11 0 -14 -3 -6 -6z"/>
<path d="M2868 3323 c7 -3 16 -2 19 1 4 3 -2 6 -13 5 -11 0 -14 -3 -6 -6z"/>
<path d="M3165 3290 c-4 -7 3 -8 22 -4 38 9 42 14 10 14 -14 0 -29 -5 -32 -10z"/>
<path d="M3230 3280 c0 -5 5 -10 10 -10 6 0 10 5 10 10 0 6 -4 10 -10 10 -5 0
-10 -4 -10 -10z"/>
<path d="M3118 3253 c7 -3 16 -2 19 1 4 3 -2 6 -13 5 -11 0 -14 -3 -6 -6z"/>
<path d="M3170 3236 c14 -8 27 -12 29 -10 6 6 -1 11 -29 18 l-25 7 25 -15z"/>
<path d="M3275 3190 c4 -6 11 -8 16 -5 14 9 11 15 -7 15 -8 0 -12 -5 -9 -10z"/>
<path d="M3490 3126 c0 -2 7 -7 16 -10 8 -3 12 -2 9 4 -6 10 -25 14 -25 6z"/>
<path d="M1250 3115 c0 -7 30 -13 34 -7 3 4 -4 9 -15 9 -10 1 -19 0 -19 -2z"/>
<path d="M1045 2970 c-4 -6 -11 -7 -17 -4 -7 4 -8 2 -4 -5 6 -9 11 -9 22 0 14
11 18 19 10 19 -3 0 -8 -5 -11 -10z"/>
<path d="M2104 2944 c-207 -28 -444 -104 -624 -201 -155 -83 -263 -160 -437
-317 -63 -56 -91 -158 -62 -233 13 -34 55 -80 91 -99 25 -13 28 -12 38 6 6 11
17 20 25 20 8 0 15 4 15 8 0 5 19 18 42 30 49 25 78 49 94 77 7 12 21 19 34
17 18 -2 20 1 11 11 -15 19 -2 30 17 14 13 -10 14 -8 7 13 -6 20 -5 23 6 13
10 -10 19 -5 47 27 18 22 40 40 48 40 8 0 14 4 14 10 0 14 42 51 54 47 10 -3
31 11 68 46 10 9 21 17 26 17 4 0 25 9 47 20 22 10 52 22 68 25 15 3 27 12 27
20 0 13 25 19 77 18 6 0 9 6 6 15 -5 13 1 14 38 8 26 -4 39 -3 31 2 -9 6 0 12
30 17 75 14 81 15 92 24 6 5 35 8 64 6 28 -1 52 1 52 5 0 11 398 11 445 0 24
-5 41 -5 43 0 4 10 30 2 52 -15 8 -7 26 -12 40 -11 14 1 30 -5 35 -12 7 -8 36
-15 75 -16 37 -2 66 -8 68 -15 2 -6 10 -11 18 -11 8 0 31 -11 52 -23 20 -13
53 -27 73 -31 20 -3 57 -21 81 -39 58 -43 80 -56 100 -63 9 -3 18 -14 21 -25
3 -10 13 -22 24 -25 17 -6 35 -21 110 -94 17 -16 41 -30 53 -30 20 0 21 -2 9
-16 -11 -14 -10 -18 6 -30 22 -17 32 -17 40 -4 4 6 11 5 20 -3 11 -10 11 -15
-1 -28 -12 -14 -10 -16 24 -16 62 -1 73 -3 67 -12 -3 -5 -1 -12 5 -16 6 -4 7
-12 3 -18 -4 -7 2 -5 12 3 17 14 18 13 12 -3 -8 -20 -6 -20 39 8 48 29 77 79
82 140 6 76 -12 119 -79 185 -280 278 -661 462 -1065 515 -139 18 -373 18
-510 -1z m491 -9 c303 -40 569 -139 815 -305 76 -51 214 -164 263 -217 33 -34
67 -116 54 -129 -3 -3 -38 21 -79 54 -40 33 -87 68 -104 79 -17 10 -58 34 -90
53 -51 30 -139 73 -259 125 -48 21 -213 72 -300 93 -331 81 -689 83 -1025 7
-106 -24 -271 -74 -345 -104 -84 -35 -258 -122 -289 -146 -18 -14 -36 -25 -40
-25 -9 0 -143 -100 -173 -129 l-22 -21 3 33 c4 45 21 75 75 127 69 68 189 169
235 198 23 14 65 41 94 60 125 80 372 179 542 216 206 46 445 57 645 31z
m-1497 -841 c-4 -3 -12 5 -18 18 -12 22 -12 22 6 6 10 -10 15 -20 12 -24z"/>
<path d="M889 2853 c-13 -16 -12 -17 4 -4 9 7 17 15 17 17 0 8 -8 3 -21 -13z"/>
<path d="M826 2805 c-11 -8 -15 -15 -9 -15 6 0 16 7 23 15 16 19 11 19 -14 0z"/>
<path d="M740 2800 c-8 -5 -12 -12 -9 -15 4 -3 12 1 19 10 14 17 11 19 -10 5z"/>
<path d="M752 2774 c-7 -8 -8 -14 -3 -14 10 0 25 19 20 25 -2 1 -10 -3 -17
-11z"/>
<path d="M770 2749 c0 -5 5 -7 10 -4 6 3 10 8 10 11 0 2 -4 4 -10 4 -5 0 -10
-5 -10 -11z"/>
<path d="M1765 2440 c-3 -6 1 -7 9 -4 18 7 21 14 7 14 -6 0 -13 -4 -16 -10z"/>
<path d="M1600 2396 c4 -4 16 -4 26 2 16 9 14 10 -8 9 -15 -1 -23 -6 -18 -11z"/>
<path d="M1540 2320 c-9 -6 -10 -10 -3 -10 6 0 15 5 18 10 8 12 4 12 -15 0z"/>
<path d="M1445 2310 c-3 -6 1 -7 9 -4 18 7 21 14 7 14 -6 0 -13 -4 -16 -10z"/>
<path d="M1434 2238 l-19 -23 23 19 c21 18 27 26 19 26 -2 0 -12 -10 -23 -22z"/>
<path d="M3330 2236 c0 -2 7 -7 16 -10 8 -3 12 -2 9 4 -6 10 -25 14 -25 6z"/>
<path d="M1385 2200 c-4 -6 -12 -7 -18 -4 -7 4 -9 3 -4 -1 4 -5 -1 -18 -10
-29 -10 -12 -3 -8 15 8 17 17 32 31 32 33 0 7 -9 2 -15 -7z"/>
<path d="M3380 2166 c0 -2 8 -10 18 -17 15 -13 16 -12 3 4 -13 16 -21 21 -21
13z"/>
<path d="M3478 2163 c7 -3 16 -2 19 1 4 3 -2 6 -13 5 -11 0 -14 -3 -6 -6z"/>
<path d="M2263 2119 c-182 -17 -365 -84 -515 -188 -95 -65 -176 -143 -194
-186 -20 -49 -18 -128 6 -175 20 -40 73 -85 89 -76 5 3 14 -1 21 -9 7 -8 18
-15 24 -15 6 0 2 7 -8 15 -22 17 -19 18 56 35 26 5 55 7 65 4 14 -5 15 -4 4 4
-17 12 -7 42 14 42 8 0 15 9 15 20 0 13 5 18 15 14 9 -4 26 4 39 17 45 44 86
71 101 65 9 -3 12 0 9 8 -3 8 10 18 36 26 22 7 40 19 40 25 0 12 59 31 120 41
60 9 247 10 284 2 23 -5 63 -11 90 -12 33 -2 52 -8 58 -20 5 -9 22 -16 40 -16
29 0 68 -30 81 -62 4 -10 6 -10 6 0 1 6 8 12 16 12 8 0 15 -6 15 -12 1 -7 15
-22 33 -34 18 -11 31 -28 31 -37 -1 -9 1 -15 5 -12 4 2 29 -7 56 -20 27 -14
60 -25 74 -25 14 0 48 -11 75 -24 48 -23 49 -23 68 -4 57 57 75 148 44 221
-17 43 -102 124 -194 188 -209 145 -466 212 -719 188z m264 -20 c195 -26 410
-129 552 -263 48 -46 89 -111 78 -123 -3 -2 -27 7 -55 21 -77 39 -277 105
-382 126 -376 76 -754 31 -1092 -130 -32 -15 -58 -23 -58 -18 0 47 99 155 206
223 229 147 479 201 751 164z m-872 -589 c-3 -5 -11 -10 -16 -10 -6 0 -7 5 -4
10 3 6 11 10 16 10 6 0 7 -4 4 -10z"/>
<path d="M2645 1670 c-3 -6 1 -7 9 -4 18 7 21 14 7 14 -6 0 -13 -4 -16 -10z"/>
<path d="M2005 1630 c-3 -6 1 -7 9 -4 18 7 21 14 7 14 -6 0 -13 -4 -16 -10z"/>
<path d="M1929 1573 c-13 -16 -12 -17 4 -4 9 7 17 15 17 17 0 8 -8 3 -21 -13z"/>
<path d="M2780 1586 c0 -2 8 -10 18 -17 15 -13 16 -12 3 4 -13 16 -21 21 -21
13z"/>
<path d="M1860 1521 c-8 -6 -18 -7 -24 -4 -5 4 -6 1 -1 -7 5 -9 1 -11 -16 -6
l-24 6 23 -12 c20 -10 26 -8 45 10 23 23 22 28 -3 13z"/>
<path d="M3070 1506 c0 -2 7 -7 16 -10 8 -3 12 -2 9 4 -6 10 -25 14 -25 6z"/>
<path d="M3030 1486 c0 -2 7 -7 16 -10 8 -3 12 -2 9 4 -6 10 -25 14 -25 6z"/>
<path d="M2233 1271 c-195 -71 -304 -283 -245 -478 23 -76 76 -158 94 -147 6
4 8 3 5 -3 -6 -10 13 -32 43 -48 8 -5 5 3 -8 17 -12 13 -19 28 -15 31 10 11
23 8 21 -4 -2 -6 3 -14 11 -17 8 -3 11 0 7 7 -4 6 1 14 11 18 10 3 28 14 40
23 22 17 64 23 163 24 79 1 133 -8 179 -31 22 -11 54 -19 72 -18 l32 2 -32
-29 c-18 -16 -31 -31 -29 -33 7 -7 73 55 70 66 -1 6 2 8 7 4 6 -3 22 14 37 37
135 212 36 496 -202 579 -71 25 -191 25 -261 0z m271 -19 c83 -38 182 -133
190 -184 1 -7 4 -17 8 -23 3 -5 9 -26 12 -45 5 -30 5 -33 -6 -16 -7 10 -21 28
-30 40 -16 21 -17 21 -25 1 -10 -24 -15 -25 -240 -31 -121 -4 -173 -2 -173 5
0 6 -11 11 -25 11 -16 0 -25 -6 -25 -15 0 -11 -13 -15 -54 -15 -44 0 -57 4
-70 23 -9 12 -14 16 -11 10 9 -19 -5 -38 -16 -22 -7 11 -9 10 -9 -3 0 -10 -4
-18 -10 -18 -15 0 -12 23 12 84 36 95 108 164 216 207 64 26 187 21 256 -9z
m179 -262 c4 -17 3 -19 -9 -9 -8 6 -14 18 -14 26 0 20 16 8 23 -17z m-613 -34
c0 -2 -11 -6 -25 -8 -13 -3 -22 -1 -19 3 5 9 44 13 44 5z"/>
</g>
</svg>
