<?xml version="1.0" encoding="UTF-8"?>
<!DOCTYPE svg PUBLIC "-//W3C//DTD SVG 1.1//EN" "http://www.w3.org/Graphics/SVG/1.1/DTD/svg11.dtd">
<svg xmlns="http://www.w3.org/2000/svg" version="1.1" width="5000px" height="5000px" style="shape-rendering:geometricPrecision; text-rendering:geometricPrecision; image-rendering:optimizeQuality; fill-rule:evenodd; clip-rule:evenodd" xmlns:xlink="http://www.w3.org/1999/xlink">
<g><path style="opacity:1" fill="#fefefe" d="M -0.5,-0.5 C 1666.17,-0.5 3332.83,-0.5 4999.5,-0.5C 4999.5,1666.17 4999.5,3332.83 4999.5,4999.5C 3332.83,4999.5 1666.17,4999.5 -0.5,4999.5C -0.5,3332.83 -0.5,1666.17 -0.5,-0.5 Z"/></g>
<g><path style="opacity:1" fill="#231f20" d="M 639.5,893.5 C 1870.83,893.333 3102.17,893.5 4333.5,894C 4399.91,902.109 4449.41,935.275 4482,993.5C 4497.19,1021.59 4505.86,1051.59 4508,1083.5C 4508.67,1857.83 4508.67,2632.17 4508,3406.5C 4502.01,3469.33 4474.51,3520.16 4425.5,3559C 4398.7,3578.6 4368.7,3589.94 4335.5,3593C 3103.17,3593.67 1870.83,3593.67 638.5,3593C 575.347,3583.83 527.847,3551.66 496,3496.5C 480.938,3468.65 471.938,3438.98 469,3407.5C 468.333,2629.83 468.333,1852.17 469,1074.5C 478.276,1001.97 514.443,947.806 577.5,912C 597.28,902.458 617.947,896.292 639.5,893.5 Z"/></g>
<g><path style="opacity:1" fill="#fefefe" d="M 703.5,1162.5 C 1886.17,1162.5 3068.83,1162.5 4251.5,1162.5C 4251.5,1867.83 4251.5,2573.17 4251.5,3278.5C 3068.83,3278.5 1886.17,3278.5 703.5,3278.5C 703.5,2573.17 703.5,1867.83 703.5,1162.5 Z"/></g>
<g><path style="opacity:1" fill="#231f20" d="M 2344.5,3646.5 C 2451.17,3646.5 2557.83,3646.5 2664.5,3646.5C 2664.5,3747.83 2664.5,3849.17 2664.5,3950.5C 2966.5,3950.5 3268.5,3950.5 3570.5,3950.5C 3617.98,3956.15 3652.81,3980.15 3675,4022.5C 3682.77,4038.71 3687.77,4055.71 3690,4073.5C 3690.5,4121.83 3690.67,4170.17 3690.5,4218.5C 2889.17,4218.5 2087.83,4218.5 1286.5,4218.5C 1286.5,4171.17 1286.5,4123.83 1286.5,4076.5C 1291.62,4027.06 1315.28,3989.56 1357.5,3964C 1372.84,3956 1389.18,3951.5 1406.5,3950.5C 1719.17,3950.5 2031.83,3950.5 2344.5,3950.5C 2344.5,3849.17 2344.5,3747.83 2344.5,3646.5 Z"/></g>
<g><path style="opacity:1" fill="#a7a5a6" d="M 2343.5,3646.5 C 2450.67,3645.5 2558,3645.17 2665.5,3645.5C 2665.5,3746.83 2665.5,3848.17 2665.5,3949.5C 2967.33,3949.17 3269,3949.5 3570.5,3950.5C 3268.5,3950.5 2966.5,3950.5 2664.5,3950.5C 2664.5,3849.17 2664.5,3747.83 2664.5,3646.5C 2557.83,3646.5 2451.17,3646.5 2344.5,3646.5C 2344.17,3646.5 2343.83,3646.5 2343.5,3646.5 Z"/></g>
<g><path style="opacity:1" fill="#858384" d="M 2343.5,3646.5 C 2343.83,3646.5 2344.17,3646.5 2344.5,3646.5C 2344.5,3747.83 2344.5,3849.17 2344.5,3950.5C 2031.83,3950.5 1719.17,3950.5 1406.5,3950.5C 1718.67,3949.5 2031,3949.17 2343.5,3949.5C 2343.5,3848.5 2343.5,3747.5 2343.5,3646.5 Z"/></g>
<g><path style="opacity:1" fill="#8e8c8d" d="M 1286.5,4076.5 C 1286.5,4123.83 1286.5,4171.17 1286.5,4218.5C 2087.83,4218.5 2889.17,4218.5 3690.5,4218.5C 2889,4219.5 2087.33,4219.83 1285.5,4219.5C 1285.17,4171.66 1285.5,4124 1286.5,4076.5 Z"/></g>
</svg>
