<?xml version="1.0" encoding="UTF-8"?>
<!DOCTYPE svg PUBLIC "-//W3C//DTD SVG 1.1//EN" "http://www.w3.org/Graphics/SVG/1.1/DTD/svg11.dtd">
<svg xmlns="http://www.w3.org/2000/svg" version="1.1" width="474px" height="511px" style="shape-rendering:geometricPrecision; text-rendering:geometricPrecision; image-rendering:optimizeQuality; fill-rule:evenodd; clip-rule:evenodd" xmlns:xlink="http://www.w3.org/1999/xlink">
<g><path style="opacity:1" fill="#fdfdfd" d="M -0.5,-0.5 C 157.5,-0.5 315.5,-0.5 473.5,-0.5C 473.5,157.167 473.5,314.833 473.5,472.5C 315.5,472.5 157.5,472.5 -0.5,472.5C -0.5,314.833 -0.5,157.167 -0.5,-0.5 Z"/></g>
<g><path style="opacity:1" fill="#090909" d="M 201.5,87.5 C 208,86.4987 210.5,89.1653 209,95.5C 207.344,97.1459 206.511,99.1459 206.5,101.5C 208.099,107.367 210.265,113.034 213,118.5C 214.837,126.65 212.837,133.65 207,139.5C 206.833,140.5 206.667,141.5 206.5,142.5C 208.66,148.823 210.826,155.156 213,161.5C 214.337,167.813 213.004,173.48 209,178.5C 203.733,181.783 200.233,180.449 198.5,174.5C 200.632,171.9 201.965,168.9 202.5,165.5C 201.511,160.518 199.677,155.852 197,151.5C 194.015,143.267 195.349,135.934 201,129.5C 201.923,127.966 202.423,126.299 202.5,124.5C 200.625,118.412 198.458,112.412 196,106.5C 194.078,98.9858 195.911,92.6525 201.5,87.5 Z"/></g>
<g><path style="opacity:1" fill="#0a0a0a" d="M 265.5,87.5 C 271.337,86.5179 274.17,88.8513 274,94.5C 271.915,96.1692 270.749,98.3359 270.5,101C 271.964,107.094 274.13,112.928 277,118.5C 277.667,122.5 277.667,126.5 277,130.5C 274.945,134.68 272.778,138.68 270.5,142.5C 272.381,148.598 274.548,154.598 277,160.5C 278.52,167.221 277.187,173.221 273,178.5C 265.563,181.945 262.563,179.611 264,171.5C 265.656,169.854 266.489,167.854 266.5,165.5C 263.01,157.849 260.676,149.849 259.5,141.5C 259.434,136.632 261.267,132.632 265,129.5C 265.923,127.966 266.423,126.299 266.5,124.5C 264.625,118.412 262.458,112.412 260,106.5C 258.078,98.9858 259.911,92.6525 265.5,87.5 Z"/></g>
<g><path style="opacity:1" fill="#0d0d0d" d="M 137.5,87.5 C 144,86.4987 146.5,89.1653 145,95.5C 143.196,97.2775 142.363,99.4441 142.5,102C 144.163,108.005 146.329,113.838 149,119.5C 150.709,126.507 149.043,132.507 144,137.5C 143.077,139.034 142.577,140.701 142.5,142.5C 143.818,148.803 145.985,154.803 149,160.5C 150.558,167.32 149.058,173.32 144.5,178.5C 139.277,181.986 135.943,180.652 134.5,174.5C 135.974,171.72 137.307,168.886 138.5,166C 135.037,158.276 132.37,150.276 130.5,142C 130.631,139.747 131.131,137.581 132,135.5C 135.019,132.491 137.186,128.991 138.5,125C 135.517,117.216 132.85,109.383 130.5,101.5C 131.263,95.9745 133.596,91.3078 137.5,87.5 Z"/></g>
<g><path style="opacity:1" fill="#0c0c0c" d="M 393.5,87.5 C 400.493,85.9959 403.327,88.6625 402,95.5C 400.06,97.0454 398.894,99.0454 398.5,101.5C 399.845,106.032 401.678,110.365 404,114.5C 406.609,120.074 406.942,125.741 405,131.5C 402.597,135.06 400.43,138.727 398.5,142.5C 400.721,148.61 403.221,154.61 406,160.5C 407.104,166.226 406.104,171.56 403,176.5C 399.623,181.197 395.957,181.53 392,177.5C 393.688,172.394 394.355,167.061 394,161.5C 389.518,154.065 387.518,146.065 388,137.5C 389.608,134.228 391.608,131.228 394,128.5C 394.167,127 394.333,125.5 394.5,124C 391.753,116.662 389.42,109.162 387.5,101.5C 387.875,96.0883 389.875,91.4217 393.5,87.5 Z"/></g>
<g><path style="opacity:1" fill="#0d0d0d" d="M 329.5,87.5 C 335.337,86.5179 338.17,88.8513 338,94.5C 336.304,96.5596 335.137,98.8929 334.5,101.5C 337.468,109.094 340.135,116.76 342.5,124.5C 342.406,126.923 341.906,129.256 341,131.5C 338.371,135.115 336.204,138.948 334.5,143C 337.131,149.098 339.631,155.265 342,161.5C 343.174,166.94 342.174,171.94 339,176.5C 335.992,180.902 332.325,181.569 328,178.5C 327.333,176.167 327.333,173.833 328,171.5C 329.804,169.723 330.637,167.556 330.5,165C 327.366,157.597 325.033,149.93 323.5,142C 323.426,136.411 325.592,131.911 330,128.5C 330.167,127.167 330.333,125.833 330.5,124.5C 327.679,117.202 325.346,109.702 323.5,102C 323.728,96.3846 325.728,91.5513 329.5,87.5 Z"/></g>
<g><path style="opacity:1" fill="#0c0c0c" d="M 72.5,87.5 C 79.4933,85.9959 82.3267,88.6625 81,95.5C 79.0604,97.0454 77.8938,99.0454 77.5,101.5C 80.8714,108.783 83.538,116.283 85.5,124C 85.3675,129.764 83.2008,134.597 79,138.5C 78.8333,139.833 78.6667,141.167 78.5,142.5C 80.0826,149.006 82.2492,155.339 85,161.5C 86.3657,168.93 84.199,175.097 78.5,180C 72.1714,180.668 69.6714,177.834 71,171.5C 72.9396,169.955 74.1062,167.955 74.5,165.5C 70.8271,157.992 68.1604,150.159 66.5,142C 66.6667,140.5 66.8333,139 67,137.5C 69.516,133.129 72.016,128.796 74.5,124.5C 73.221,119.941 71.3877,115.608 69,111.5C 64.9051,102.663 66.0718,94.6627 72.5,87.5 Z"/></g>
<g><path style="opacity:1" fill="#0b0b0b" d="M 43.5,192.5 C 172.89,192.005 302.223,192.505 431.5,194C 440.16,197.48 445.993,203.647 449,212.5C 449.667,256.5 449.667,300.5 449,344.5C 446.454,354.053 440.621,360.886 431.5,365C 422.225,366.353 412.891,366.853 403.5,366.5C 402.563,376.94 396.896,383.107 386.5,385C 286.167,385.667 185.833,385.667 85.5,385C 76.3512,382.025 71.0179,375.858 69.5,366.5C 60.0854,366.917 50.7521,366.417 41.5,365C 31.8164,361.473 25.9831,354.64 24,344.5C 23.3333,300.5 23.3333,256.5 24,212.5C 27.3514,202.65 33.8514,195.983 43.5,192.5 Z"/></g>
<g><path style="opacity:1" fill="#f9f9f9" d="M 47.5,206.5 C 174.556,206.005 301.556,206.505 428.5,208C 431.473,209.765 433.64,212.265 435,215.5C 435.667,258.167 435.667,300.833 435,343.5C 433.64,346.735 431.473,349.235 428.5,351C 418.891,352.754 409.224,352.92 399.5,351.5C 396.12,347.473 391.786,344.973 386.5,344C 316.418,343.007 246.418,343.34 176.5,345C 172.346,349.399 172.679,353.399 177.5,357C 246.833,357.333 316.167,357.667 385.5,358C 389.292,360.053 390.458,363.219 389,367.5C 388.5,368.667 387.667,369.5 386.5,370C 286.165,370.833 185.832,370.667 85.5,369.5C 83.5643,366.792 83.0643,363.792 84,360.5C 84.9025,359.299 86.0692,358.465 87.5,358C 96.6009,357.945 105.601,357.278 114.5,356C 117.69,350.949 116.69,346.949 111.5,344C 102.833,343.333 94.1667,343.333 85.5,344C 80.6547,345.25 76.6547,347.75 73.5,351.5C 64.8525,352.665 56.1858,352.832 47.5,352C 43.0641,350.563 39.8974,347.73 38,343.5C 37.3333,300.833 37.3333,258.167 38,215.5C 39.8714,211.006 43.0381,208.006 47.5,206.5 Z"/></g>
<g><path style="opacity:1" fill="#070707" d="M 57.5,220.5 C 70.1842,220.168 82.8508,220.501 95.5,221.5C 95.8333,222.5 96.5,223.167 97.5,223.5C 98.6666,259.162 98.8332,294.829 98,330.5C 97.1667,332.667 95.6667,334.167 93.5,335C 81.8333,335.667 70.1667,335.667 58.5,335C 56.714,334.215 55.214,333.049 54,331.5C 53.3333,295.5 53.3333,259.5 54,223.5C 55.1451,222.364 56.3117,221.364 57.5,220.5 Z"/></g>
<g><path style="opacity:1" fill="#040404" d="M 121.5,220.5 C 134.171,220.333 146.838,220.5 159.5,221C 160.333,221.833 161.167,222.667 162,223.5C 162.667,259.5 162.667,295.5 162,331.5C 160.786,333.049 159.286,334.215 157.5,335C 145.833,335.667 134.167,335.667 122.5,335C 120.333,334.167 118.833,332.667 118,330.5C 117.333,295.167 117.333,259.833 118,224.5C 119.032,222.973 120.199,221.64 121.5,220.5 Z"/></g>
<g><path style="opacity:1" fill="#080808" d="M 185.5,220.5 C 198.171,220.333 210.838,220.5 223.5,221C 224.667,222.167 225.833,223.333 227,224.5C 227.667,259.5 227.667,294.5 227,329.5C 226.167,332.333 224.333,334.167 221.5,335C 209.833,335.667 198.167,335.667 186.5,335C 184.333,334.167 182.833,332.667 182,330.5C 181.333,295.5 181.333,260.5 182,225.5C 182.697,223.416 183.864,221.749 185.5,220.5 Z"/></g>
<g><path style="opacity:1" fill="#070707" d="M 290.5,224.5 C 290.451,259.758 290.451,295.091 290.5,330.5C 289.976,333.188 288.309,334.688 285.5,335C 273.833,335.667 262.167,335.667 250.5,335C 248.274,333.773 246.774,331.939 246,329.5C 245.833,312.167 245.667,294.833 245.5,277.5C 245.346,259.412 245.846,241.412 247,223.5C 247.833,222.667 248.667,221.833 249.5,221C 262.167,220.333 274.833,220.333 287.5,221C 288.71,222.039 289.71,223.206 290.5,224.5 Z"/></g>
<g><path style="opacity:1" fill="#080808" d="M 313.5,220.5 C 326.171,220.333 338.838,220.5 351.5,221C 353,221.833 354.167,223 355,224.5C 355.667,260.167 355.667,295.833 355,331.5C 353.681,333.487 351.848,334.654 349.5,335C 337.833,335.667 326.167,335.667 314.5,335C 313,334.167 311.833,333 311,331.5C 310.333,295.5 310.333,259.5 311,223.5C 312.045,222.627 312.878,221.627 313.5,220.5 Z"/></g>
<g><path style="opacity:1" fill="#070707" d="M 378.5,220.5 C 390.838,220.333 403.171,220.5 415.5,221C 416.579,221.956 417.745,222.789 419,223.5C 419.667,259.5 419.667,295.5 419,331.5C 417.833,332.667 416.667,333.833 415.5,335C 403.167,335.667 390.833,335.667 378.5,335C 377.333,333.833 376.167,332.667 375,331.5C 374.333,295.5 374.333,259.5 375,223.5C 376.145,222.364 377.312,221.364 378.5,220.5 Z"/></g>
<g><path style="opacity:1" fill="#2b2b2b" d="M 290.5,224.5 C 291.833,259.833 291.833,295.167 290.5,330.5C 290.451,295.091 290.451,259.758 290.5,224.5 Z"/></g>
<g><path style="opacity:1" fill="#fdfdfd" d="M 67.5,234.5 C 73.1667,234.5 78.8333,234.5 84.5,234.5C 84.5,263.167 84.5,291.833 84.5,320.5C 78.8333,320.5 73.1667,320.5 67.5,320.5C 67.5,291.833 67.5,263.167 67.5,234.5 Z"/></g>
<g><path style="opacity:1" fill="#fbfbfb" d="M 148.5,234.5 C 148.5,263.167 148.5,291.833 148.5,320.5C 142.833,320.5 137.167,320.5 131.5,320.5C 131.5,291.833 131.5,263.167 131.5,234.5C 137.167,234.5 142.833,234.5 148.5,234.5 Z"/></g>
<g><path style="opacity:1" fill="#fbfbfb" d="M 324.5,234.5 C 330.167,234.5 335.833,234.5 341.5,234.5C 341.5,263.167 341.5,291.833 341.5,320.5C 335.833,320.5 330.167,320.5 324.5,320.5C 324.5,291.833 324.5,263.167 324.5,234.5 Z"/></g>
<g><path style="opacity:1" fill="#fcfcfc" d="M 388.5,234.5 C 394.167,234.5 399.833,234.5 405.5,234.5C 405.5,263.167 405.5,291.833 405.5,320.5C 399.833,320.5 394.167,320.5 388.5,320.5C 388.5,291.833 388.5,263.167 388.5,234.5 Z"/></g>
<g><path style="opacity:1" fill="#606060" d="M 148.5,234.5 C 149.498,263.329 149.831,292.329 149.5,321.5C 143.31,321.823 137.31,321.49 131.5,320.5C 137.167,320.5 142.833,320.5 148.5,320.5C 148.5,291.833 148.5,263.167 148.5,234.5 Z"/></g>
<g><path style="opacity:1" fill="#949494" d="M 196.5,234.5 C 196.5,263.167 196.5,291.833 196.5,320.5C 201.833,320.5 207.167,320.5 212.5,320.5C 212.5,291.833 212.5,263.167 212.5,234.5C 213.498,263.329 213.831,292.329 213.5,321.5C 207.5,321.5 201.5,321.5 195.5,321.5C 195.169,292.329 195.502,263.329 196.5,234.5 Z"/></g>
<g><path style="opacity:1" fill="#fdfdfd" d="M 196.5,234.5 C 201.833,234.5 207.167,234.5 212.5,234.5C 212.5,263.167 212.5,291.833 212.5,320.5C 207.167,320.5 201.833,320.5 196.5,320.5C 196.5,291.833 196.5,263.167 196.5,234.5 Z"/></g>
<g><path style="opacity:1" fill="#929292" d="M 260.5,234.5 C 260.5,263.167 260.5,291.833 260.5,320.5C 265.833,320.5 271.167,320.5 276.5,320.5C 276.5,291.833 276.5,263.167 276.5,234.5C 277.498,263.329 277.831,292.329 277.5,321.5C 271.5,321.5 265.5,321.5 259.5,321.5C 259.169,292.329 259.502,263.329 260.5,234.5 Z"/></g>
<g><path style="opacity:1" fill="#fefefe" d="M 260.5,234.5 C 265.833,234.5 271.167,234.5 276.5,234.5C 276.5,263.167 276.5,291.833 276.5,320.5C 271.167,320.5 265.833,320.5 260.5,320.5C 260.5,291.833 260.5,263.167 260.5,234.5 Z"/></g>
<g><path style="opacity:1" fill="#181a20" d="M -0.5,472.5 C 157.5,472.5 315.5,472.5 473.5,472.5C 473.5,473.167 473.5,473.833 473.5,474.5C 315.5,474.5 157.5,474.5 -0.5,474.5C -0.5,473.833 -0.5,473.167 -0.5,472.5 Z"/></g>
<g><path style="opacity:1" fill="#0e1120" d="M -0.5,474.5 C 157.5,474.5 315.5,474.5 473.5,474.5C 473.5,475.167 473.5,475.833 473.5,476.5C 315.5,476.5 157.5,476.5 -0.5,476.5C -0.5,475.833 -0.5,475.167 -0.5,474.5 Z"/></g>
<g><path style="opacity:1" fill="#111024" d="M -0.5,476.5 C 157.5,476.5 315.5,476.5 473.5,476.5C 473.5,487.833 473.5,499.167 473.5,510.5C 315.5,510.5 157.5,510.5 -0.5,510.5C -0.5,499.167 -0.5,487.833 -0.5,476.5 Z"/></g>
<g><path style="opacity:1" fill="#141322" d="M 96.5,488.5 C 96.5,488.833 96.5,489.167 96.5,489.5C 95.5416,489.953 94.7083,490.619 94,491.5C 92.7701,483.582 91.9368,483.749 91.5,492C 91.8333,494.167 92.1667,496.333 92.5,498.5C 93.2811,497.271 93.7811,495.938 94,494.5C 94.9487,496.093 96.1154,497.426 97.5,498.5C 97.1193,499.931 96.1193,500.764 94.5,501C 95.624,501.249 96.624,501.749 97.5,502.5C 97.3333,502.833 97.1667,503.167 97,503.5C 87.4892,503.365 77.8225,503.365 68,503.5C 67.6667,502.833 67.3333,502.167 67,501.5C 65.4747,502.72 63.6413,503.387 61.5,503.5C 59.2852,503.33 57.2852,502.663 55.5,501.5C 55.5105,502.441 55.0105,503.108 54,503.5C 43.1592,503.094 32.1592,503.094 21,503.5C 19.5,503.167 18,502.833 16.5,502.5C 15.7695,499.891 15.2695,497.224 15,494.5C 14.4169,492.998 13.5836,491.665 12.5,490.5C 11.6043,491.506 10.9377,491.506 10.5,490.5C 11.7558,487.368 13.2558,484.368 15,481.5C 15.3333,482.167 15.6667,482.833 16,483.5C 17.0113,482.663 18.1779,482.33 19.5,482.5C 19.2105,486.554 19.8771,487.054 21.5,484C 23.2182,483.654 24.8849,483.154 26.5,482.5C 27.086,482.709 27.586,483.043 28,483.5C 29.5067,481.992 31.1733,480.659 33,479.5C 35,480.833 37,480.833 39,479.5C 40.7134,480.878 42.0467,482.545 43,484.5C 43.7112,482.633 43.2112,481.133 41.5,480C 43.4335,479.217 44.9335,479.717 46,481.5C 46.3333,480.833 46.6667,480.167 47,479.5C 50.6219,480.253 54.4552,480.253 58.5,479.5C 60.1315,480.297 61.6315,481.297 63,482.5C 68.0048,480.487 73.5048,479.487 79.5,479.5C 79.238,480.978 79.5713,482.311 80.5,483.5C 82.1112,482.68 82.7778,481.346 82.5,479.5C 85.8499,479.335 89.1832,479.502 92.5,480C 91.6198,481.356 91.2865,482.856 91.5,484.5C 93.9806,484.774 95.6473,486.107 96.5,488.5 Z"/></g>
<g><path style="opacity:1" fill="#d0cfd9" d="M 61.5,485.5 C 63.4835,485.383 65.1502,486.05 66.5,487.5C 58.7536,487.821 58.7536,489.321 66.5,492C 67.9348,494.267 67.6015,496.267 65.5,498C 63.1902,498.497 60.8568,498.663 58.5,498.5C 58.281,497.325 58.6143,496.325 59.5,495.5C 61.4086,496.348 63.4086,496.682 65.5,496.5C 65.4709,493.344 63.8043,491.678 60.5,491.5C 59.2302,489.243 59.5636,487.243 61.5,485.5 Z"/></g>
<g><path style="opacity:1" fill="#5b596e" d="M 97.5,490.5 C 97.5,489.833 97.1667,489.5 96.5,489.5C 96.5,489.167 96.5,488.833 96.5,488.5C 97.5,488.5 98.5,488.5 99.5,488.5C 99.3501,484.839 100.85,483.839 104,485.5C 104.779,487.906 103.946,489.573 101.5,490.5C 100.135,489.193 98.8016,489.193 97.5,490.5 Z"/></g>
<g><path style="opacity:1" fill="#9493a1" d="M 22.5,491.5 C 27.2032,486.957 29.8698,487.957 30.5,494.5C 22.7216,494.573 22.7216,495.406 30.5,497C 25.4235,499.125 22.7568,497.292 22.5,491.5 Z"/></g>
<g><path style="opacity:1" fill="#a9a8b7" d="M 22.5,491.5 C 21.5433,494.023 20.21,496.357 18.5,498.5C 16.9288,494.618 15.2622,490.785 13.5,487C 14.4835,486.409 15.1501,486.743 15.5,488C 16.53,490.56 17.6966,493.06 19,495.5C 20.2663,492.534 21.4329,489.534 22.5,486.5C 23.0522,488.003 23.0522,489.669 22.5,491.5 Z"/></g>
<g><path style="opacity:1" fill="#0d0b18" d="M 26.5,489.5 C 30.412,492.236 29.7453,493.07 24.5,492C 25.3805,491.292 26.0472,490.458 26.5,489.5 Z"/></g>
<g><path style="opacity:1" fill="#cfcfd8" d="M 96.5,489.5 C 97.1667,489.5 97.5,489.833 97.5,490.5C 96.5222,490.811 95.8555,491.478 95.5,492.5C 96.2485,494.332 97.2485,495.999 98.5,497.5C 98.3764,498.107 98.0431,498.44 97.5,498.5C 96.1154,497.426 94.9487,496.093 94,494.5C 93.7811,495.938 93.2811,497.271 92.5,498.5C 92.1667,496.333 91.8333,494.167 91.5,492C 91.9368,483.749 92.7701,483.582 94,491.5C 94.7083,490.619 95.5416,489.953 96.5,489.5 Z"/></g>
<g><path style="opacity:1" fill="#cbcbd5" d="M 85.5,488.5 C 91.9661,489.623 91.9661,490.29 85.5,490.5C 85.5,492.5 85.5,494.5 85.5,496.5C 87.1992,496.34 88.8659,496.506 90.5,497C 84.6301,499.135 82.4634,496.969 84,490.5C 84.7172,489.956 85.2172,489.289 85.5,488.5 Z"/></g>
<g><path style="opacity:1" fill="#a1a1ae" d="M 49.5,489.5 C 45.5359,490.922 44.5359,493.589 46.5,497.5C 42.499,494.887 42.499,492.054 46.5,489C 47.7494,488.26 48.7494,488.427 49.5,489.5 Z"/></g>
<g><path style="opacity:1" fill="#7c7b87" d="M 70.5,486.5 C 69.5206,489.625 69.1872,492.958 69.5,496.5C 68.1923,492.981 68.1923,489.315 69.5,485.5C 70.1067,485.624 70.44,485.957 70.5,486.5 Z"/></g>
<g><path style="opacity:1" fill="#9898a5" d="M 33.5,488.5 C 35.288,488.215 36.9547,488.548 38.5,489.5C 37.1667,489.833 35.8333,490.167 34.5,490.5C 33.1667,492.5 33.1667,494.5 34.5,496.5C 35.7202,497.711 36.8869,497.711 38,496.5C 38.1667,496.833 38.3333,497.167 38.5,497.5C 35.5462,499.147 33.3795,498.481 32,495.5C 31.3911,492.935 31.8911,490.601 33.5,488.5 Z"/></g>
<g><path style="opacity:1" fill="#c5c4d1" d="M 40.5,486.5 C 41.2674,487.172 41.9341,488.005 42.5,489C 41.4789,492.149 41.3122,495.316 42,498.5C 40.5761,494.703 40.0761,490.703 40.5,486.5 Z"/></g>
<g><path style="opacity:1" fill="#8f8f9c" d="M 46.5,497.5 C 51.757,496.482 52.757,493.816 49.5,489.5C 51.4109,489.574 52.5776,490.574 53,492.5C 53.49,491.207 53.6567,489.873 53.5,488.5C 54.9778,488.238 56.3112,488.571 57.5,489.5C 56.0439,492.286 55.0439,495.286 54.5,498.5C 53.7022,496.922 53.2022,495.256 53,493.5C 52.2871,497.772 50.1204,499.105 46.5,497.5 Z"/></g>
<g><path style="opacity:1" fill="#cfcfd7" d="M 76.5,488.5 C 81.6858,488.964 83.3524,491.63 81.5,496.5C 77.4899,499.667 74.8232,498.834 73.5,494C 73.6132,491.601 74.6132,489.768 76.5,488.5 Z"/></g>
<g><path style="opacity:1" fill="#191a21" d="M 76.5,490.5 C 80.35,490.701 81.35,492.534 79.5,496C 75.5369,496.118 74.5369,494.284 76.5,490.5 Z"/></g>
<g><path style="opacity:1" fill="#181822" d="M 49.5,489.5 C 52.757,493.816 51.757,496.482 46.5,497.5C 44.5359,493.589 45.5359,490.922 49.5,489.5 Z"/></g>
<g><path style="opacity:1" fill="#ececf3" d="M 70.5,486.5 C 70.7214,487.735 71.3881,488.735 72.5,489.5C 69.8954,492.089 69.8954,494.589 72.5,497C 71.2506,497.74 70.2506,497.573 69.5,496.5C 69.1872,492.958 69.5206,489.625 70.5,486.5 Z"/></g>
<g><path style="opacity:1" fill="#171723" d="M 391.5,492.5 C 390.133,495.132 389.299,494.798 389,491.5C 388.676,493.569 387.842,493.902 386.5,492.5C 385.5,493.167 384.5,493.833 383.5,494.5C 379.769,491.537 378.102,492.537 378.5,497.5C 381.384,496.617 384.217,496.617 387,497.5C 388.326,497.245 389.326,496.578 390,495.5C 390.308,496.308 390.808,496.975 391.5,497.5C 391.308,496.038 391.641,494.372 392.5,492.5C 394.073,490.164 395.406,490.164 396.5,492.5C 397.255,490.534 398.421,490.2 400,491.5C 403.097,490.711 403.264,489.544 400.5,488C 400.833,487.833 401.167,487.667 401.5,487.5C 402.732,488.145 404.065,488.311 405.5,488C 403.993,488.837 403.493,490.004 404,491.5C 405.893,490.673 408.059,490.673 410.5,491.5C 411.478,491.023 412.311,490.357 413,489.5C 413.667,490.833 414.333,490.833 415,489.5C 415.464,490.094 415.631,490.761 415.5,491.5C 414.677,493.455 414.51,495.455 415,497.5C 416.02,496.109 416.853,494.609 417.5,493C 421.252,492.024 421.918,492.69 419.5,495C 420.577,495.47 421.577,495.303 422.5,494.5C 422.833,494.5 423.167,494.5 423.5,494.5C 423.5,495.5 423.5,496.5 423.5,497.5C 424.833,497.5 426.167,497.5 427.5,497.5C 427.662,495.473 427.495,493.473 427,491.5C 426.329,490.748 425.496,490.414 424.5,490.5C 424.369,489.624 424.702,488.957 425.5,488.5C 427.029,490.316 428.696,490.983 430.5,490.5C 429.434,492.701 428.767,495.035 428.5,497.5C 430.167,497.5 431.833,497.5 433.5,497.5C 432.62,495.389 432.62,493.389 433.5,491.5C 433.586,490.504 433.252,489.671 432.5,489C 433,488.833 433.5,488.667 434,488.5C 438.309,488.715 442.309,488.715 446,488.5C 446.464,489.094 446.631,489.761 446.5,490.5C 443.713,493.199 443.88,495.533 447,497.5C 449.055,496.308 451.055,496.308 453,497.5C 453.808,495.421 453.641,493.421 452.5,491.5C 451.123,494.695 449.123,495.195 446.5,493C 447.756,492.583 448.423,491.75 448.5,490.5C 448.5,489.5 448.5,488.5 448.5,487.5C 453.547,486.901 458.214,487.567 462.5,489.5C 463.986,494.297 463.819,498.963 462,503.5C 461,502.833 460,502.167 459,501.5C 456.583,502.998 453.917,503.665 451,503.5C 434.776,503.056 418.276,503.056 401.5,503.5C 400.278,501.022 398.278,500.022 395.5,500.5C 395.5,501.5 395.5,502.5 395.5,503.5C 374.892,503.292 355.059,502.958 336,502.5C 335.15,497.494 335.65,492.661 337.5,488C 341.275,487.782 344.942,487.616 348.5,487.5C 350.382,488.093 352.215,488.76 354,489.5C 355.533,489.056 357.033,488.723 358.5,488.5C 360.733,488.864 362.566,489.864 364,491.5C 365,490.167 366,490.167 367,491.5C 368.062,490.101 369.395,489.101 371,488.5C 372.533,489.695 374.033,489.695 375.5,488.5C 376.328,489.415 377.328,490.081 378.5,490.5C 379.948,488.638 381.615,487.972 383.5,488.5C 384.799,489.09 385.632,490.09 386,491.5C 387.726,490.424 389.559,490.257 391.5,491C 390.262,491.69 390.262,492.19 391.5,492.5 Z"/></g>
<g><path style="opacity:1" fill="#adadb9" d="M 457.5,490.5 C 460.113,491.095 460.113,491.929 457.5,493C 461.587,496.013 460.92,497.513 455.5,497.5C 455.166,494.812 455.832,492.479 457.5,490.5 Z"/></g>
<g><path style="opacity:1" fill="#a8a8b3" d="M 391.5,492.5 C 391.833,492.5 392.167,492.5 392.5,492.5C 391.641,494.372 391.308,496.038 391.5,497.5C 390.808,496.975 390.308,496.308 390,495.5C 389.326,496.578 388.326,497.245 387,497.5C 384.217,496.617 381.384,496.617 378.5,497.5C 378.102,492.537 379.769,491.537 383.5,494.5C 384.5,493.833 385.5,493.167 386.5,492.5C 387.842,493.902 388.676,493.569 389,491.5C 389.299,494.798 390.133,495.132 391.5,492.5 Z"/></g>
<g><path style="opacity:1" fill="#9696a1" d="M 349.5,492.5 C 351.017,492.511 352.184,493.177 353,494.5C 353.965,492.74 355.132,492.406 356.5,493.5C 353.823,495.264 354.156,496.43 357.5,497C 354.5,496.333 351.5,496.333 348.5,497C 347.419,495.289 347.752,493.789 349.5,492.5 Z"/></g>
<g><path style="opacity:1" fill="#21222b" d="M 456.5,494.5 C 458.337,494.639 458.67,495.306 457.5,496.5C 456.702,496.043 456.369,495.376 456.5,494.5 Z"/></g>
<g><path style="opacity:1" fill="#0f0f18" d="M 385.5,494.5 C 386.675,494.281 387.675,494.614 388.5,495.5C 386.948,496.798 385.948,496.465 385.5,494.5 Z"/></g>
<g><path style="opacity:1" fill="#050510" d="M 379.5,494.5 C 381.337,494.639 381.67,495.306 380.5,496.5C 379.702,496.043 379.369,495.376 379.5,494.5 Z"/></g>
<g><path style="opacity:1" fill="#c8c8d3" d="M 375.5,492.5 C 376.234,493.878 376.901,495.378 377.5,497C 377.167,497.167 376.833,497.333 376.5,497.5C 375.548,495.955 375.215,494.288 375.5,492.5 Z"/></g>
<g><path style="opacity:1" fill="#c1c1cb" d="M 360.5,496.5 C 360.44,497.043 360.107,497.376 359.5,497.5C 358.369,495.926 358.202,494.259 359,492.5C 359.21,494.058 359.71,495.391 360.5,496.5 Z"/></g>
<g><path style="opacity:1" fill="#a2a1ae" d="M 346.5,490.5 C 347.097,490.735 347.43,491.235 347.5,492C 345.588,499.284 343.588,499.284 341.5,492C 343.113,491.911 344.28,492.745 345,494.5C 345.41,493.099 345.91,491.766 346.5,490.5 Z"/></g>
<g><path style="opacity:1" fill="#92919c" d="M 424.5,490.5 C 425.496,490.414 426.329,490.748 427,491.5C 427.495,493.473 427.662,495.473 427.5,497.5C 426.167,497.5 424.833,497.5 423.5,497.5C 423.5,496.5 423.5,495.5 423.5,494.5C 423.433,493.041 423.766,491.708 424.5,490.5 Z"/></g>
<g><path style="opacity:1" fill="#7f7f8a" d="M 422.5,494.5 C 421.577,495.303 420.577,495.47 419.5,495C 421.918,492.69 421.252,492.024 417.5,493C 416.853,494.609 416.02,496.109 415,497.5C 414.51,495.455 414.677,493.455 415.5,491.5C 417.068,491.359 418.735,491.026 420.5,490.5C 422.111,491.32 422.778,492.654 422.5,494.5 Z"/></g>
<g><path style="opacity:1" fill="#a2a2ac" d="M 360.5,496.5 C 363.171,490.995 364.838,491.329 365.5,497.5C 363.708,497.634 362.042,497.301 360.5,496.5 Z"/></g>
<g><path style="opacity:1" fill="#070711" d="M 362.5,494.5 C 364.337,494.639 364.67,495.306 363.5,496.5C 362.702,496.043 362.369,495.376 362.5,494.5 Z"/></g>
<g><path style="opacity:1" fill="#91919d" d="M 446.5,490.5 C 447.167,490.5 447.833,490.5 448.5,490.5C 448.423,491.75 447.756,492.583 446.5,493C 449.123,495.195 451.123,494.695 452.5,491.5C 453.641,493.421 453.808,495.421 453,497.5C 451.055,496.308 449.055,496.308 447,497.5C 443.88,495.533 443.713,493.199 446.5,490.5 Z"/></g>
<g><path style="opacity:1" fill="#bdbdc8" d="M 440.5,491.5 C 442.12,492.841 443.12,494.674 443.5,497C 443.167,497.167 442.833,497.333 442.5,497.5C 441.523,495.589 440.857,493.589 440.5,491.5 Z"/></g>
<g><path style="opacity:1" fill="#acacb6" d="M 436.5,491.5 C 437.693,491.97 438.36,492.97 438.5,494.5C 438.516,497.723 437.182,498.056 434.5,495.5C 435.18,494.14 435.847,492.807 436.5,491.5 Z"/></g>
<g><path style="opacity:1" fill="#9897a2" d="M 430.5,490.5 C 431.609,490.557 432.609,490.89 433.5,491.5C 432.62,493.389 432.62,495.389 433.5,497.5C 431.833,497.5 430.167,497.5 428.5,497.5C 428.767,495.035 429.434,492.701 430.5,490.5 Z"/></g>
<g><path style="opacity:1" fill="#7d7d88" d="M 396.5,492.5 C 401.519,493.518 406.519,493.518 411.5,492.5C 413.384,493.693 413.884,495.359 413,497.5C 412,493.5 411,493.5 410,497.5C 409.051,493.622 407.885,493.622 406.5,497.5C 403.335,497.449 400.002,497.282 396.5,497C 395.587,495.586 395.587,494.086 396.5,492.5 Z"/></g>
<g><path style="opacity:1" fill="#17171d" d="M 401.5,494.5 C 403.337,494.639 403.67,495.306 402.5,496.5C 401.702,496.043 401.369,495.376 401.5,494.5 Z"/></g>
<g><path style="opacity:1" fill="#a5a5b0" d="M 371.5,490.5 C 375.326,491.48 375.326,492.313 371.5,493C 373.863,493.589 374.863,495.089 374.5,497.5C 370.107,497.543 369.774,497.043 373.5,496C 370.767,494.772 370.1,492.939 371.5,490.5 Z"/></g>
<g><path style="opacity:1" fill="#bcbcc5" d="M 366.5,493.5 C 367.239,493.369 367.906,493.536 368.5,494C 367.118,498.705 366.451,498.539 366.5,493.5 Z"/></g>
</svg>
