<?xml version="1.0" standalone="no"?>
<!DOCTYPE svg PUBLIC "-//W3C//DTD SVG 20010904//EN"
 "http://www.w3.org/TR/2001/REC-SVG-20010904/DTD/svg10.dtd">
<svg version="1.0" xmlns="http://www.w3.org/2000/svg"
 width="474.000000pt" height="315.000000pt" viewBox="0 0 474.000000 315.000000"
 preserveAspectRatio="xMidYMid meet">

<g transform="translate(0.000000,315.000000) scale(0.100000,-0.100000)"
fill="#000000" stroke="none">
<path d="M3277 2643 c-54 -14 -96 -27 -94 -30 3 -2 53 7 112 21 117 27 155 23
177 -18 8 -14 14 -158 19 -456 20 -1189 20 -1274 -2 -1238 -6 9 -9 7 -9 -9 0
-12 -5 -25 -12 -29 -6 -4 -8 -3 -4 4 3 6 2 13 -4 17 -5 3 -11 1 -11 -4 -1 -6
-2 -17 -3 -23 0 -7 -21 -16 -46 -20 -25 -3 -436 -7 -913 -7 -540 -1 -866 -5
-862 -10 3 -6 354 -8 923 -5 l917 6 30 29 30 30 -2 322 c-1 177 -7 558 -13
846 -11 554 -13 566 -59 591 -28 15 -64 11 -174 -17z"/>
<path d="M3148 2603 c7 -3 16 -2 19 1 4 3 -2 6 -13 5 -11 0 -14 -3 -6 -6z"/>
<path d="M3098 2593 c7 -3 16 -2 19 1 4 3 -2 6 -13 5 -11 0 -14 -3 -6 -6z"/>
<path d="M3058 2583 c7 -3 16 -2 19 1 4 3 -2 6 -13 5 -11 0 -14 -3 -6 -6z"/>
<path d="M3018 2573 c7 -3 16 -2 19 1 4 3 -2 6 -13 5 -11 0 -14 -3 -6 -6z"/>
<path d="M2968 2563 c7 -3 16 -2 19 1 4 3 -2 6 -13 5 -11 0 -14 -3 -6 -6z"/>
<path d="M1411 1293 c-6 -10 -11 -13 -11 -6 0 12 -90 14 -90 2 0 -3 -10 -5
-22 -4 -16 1 -25 -5 -30 -19 -6 -20 -6 -20 -7 2 -1 28 -21 29 -21 1 0 -11 -4
-18 -10 -14 -5 3 -7 12 -3 20 3 8 0 15 -5 15 -6 0 -10 -13 -10 -29 1 -29 2
-30 42 -25 57 7 68 12 60 25 -4 8 -3 9 5 5 6 -4 9 -11 6 -16 -3 -5 7 -8 22 -6
21 1 28 7 26 21 -1 18 0 18 10 4 15 -20 67 -22 67 -3 0 8 -6 14 -12 14 -10 0
-9 3 1 9 8 5 9 11 3 15 -6 4 -15 -2 -21 -11z m-71 -23 c0 -5 -2 -10 -4 -10 -3
0 -8 5 -11 10 -3 6 -1 10 4 10 6 0 11 -4 11 -10z"/>
<path d="M3170 1199 c-80 -5 -282 -15 -450 -24 -431 -22 -2130 -113 -2339
-125 -106 -6 -177 -14 -182 -21 -8 -14 -6 -135 3 -144 3 -3 246 -2 540 3 l533
10 -470 -2 c-259 -1 -483 1 -500 5 -24 5 -25 7 -7 8 12 0 22 5 22 9 0 24 83
33 410 42 484 13 1003 30 1080 36 36 2 171 9 300 15 129 6 258 13 285 14 378
18 766 11 830 -16 l30 -12 -30 -7 c-28 -7 -27 -8 15 -10 l45 -3 -45 -7 c-44
-7 -44 -7 20 -9 58 -2 62 -4 35 -12 -48 -16 -88 -17 -965 -29 -459 -6 -866
-12 -905 -14 -38 -2 333 -1 825 2 492 2 911 6 930 8 19 1 71 3 116 3 121 1
127 8 125 157 -1 65 -4 121 -7 126 -6 9 -35 9 -244 -3z"/>
<path d="M3476 962 c-3 -5 1 -9 9 -9 8 0 15 4 15 9 0 4 -4 8 -9 8 -6 0 -12 -4
-15 -8z"/>
<path d="M4480 920 c0 -5 11 -9 25 -8 14 1 25 6 25 10 0 4 -11 8 -25 8 -14 0
-25 -4 -25 -10z"/>
<path d="M4370 864 c-6 -14 -9 -55 -8 -92 l1 -67 6 80 c4 44 10 86 14 93 5 6
6 12 2 12 -3 0 -10 -12 -15 -26z"/>
<path d="M838 833 c68 -2 176 -2 240 0 64 1 9 3 -123 3 -132 0 -185 -2 -117
-3z"/>
<path d="M1278 833 c46 -2 118 -2 160 0 42 1 5 3 -83 3 -88 0 -123 -2 -77 -3z"/>
<path d="M1058 703 c12 -2 32 -2 45 0 12 2 2 4 -23 4 -25 0 -35 -2 -22 -4z"/>
<path d="M1618 693 c12 -2 32 -2 45 0 12 2 2 4 -23 4 -25 0 -35 -2 -22 -4z"/>
<path d="M2258 683 c12 -2 32 -2 45 0 12 2 2 4 -23 4 -25 0 -35 -2 -22 -4z"/>
<path d="M2897 672 c12 -4 45 -38 75 -77 29 -38 60 -75 68 -82 8 -7 11 -13 5
-13 -5 0 -4 -4 4 -9 9 -6 10 -11 2 -15 -6 -4 -11 -3 -11 3 0 5 -19 12 -42 15
-88 11 -665 33 -1118 41 -184 4 -359 10 -387 14 -29 5 -53 4 -53 -1 0 -4 12
-9 28 -9 19 -1 21 -3 8 -6 -10 -3 -29 1 -42 7 -15 8 -43 10 -86 6 -116 -12
-196 -14 -163 -5 17 5 42 6 57 3 15 -3 35 -1 45 5 15 9 12 10 -18 11 -20 0
-71 -5 -115 -10 -56 -7 -119 -7 -214 1 -74 6 -173 11 -220 10 -47 -1 -79 3
-73 7 7 4 -11 8 -42 8 -29 -1 -48 -4 -42 -8 19 -12 -7 -10 -40 3 -15 6 -39 12
-53 14 -21 3 -20 2 8 -11 51 -22 150 -33 542 -54 418 -23 1005 -57 1130 -65
47 -3 328 -19 625 -35 736 -40 707 -38 782 -51 37 -7 107 -9 162 -6 53 3 166
1 252 -5 164 -12 178 -10 289 30 30 11 98 25 150 32 52 6 101 17 108 24 11 11
3 11 -45 5 -32 -4 -78 -10 -103 -12 -25 -3 -77 -10 -115 -16 -39 -6 -96 -9
-126 -6 -56 4 -228 47 -261 65 -10 6 -25 10 -33 10 -19 0 -91 36 -124 62 -33
25 -40 14 -11 -17 l23 -25 -61 3 c-33 2 -59 0 -56 -4 2 -4 -3 -9 -11 -13 -8
-3 -17 -1 -21 5 -3 6 -12 8 -20 5 -8 -3 -31 10 -53 29 -21 19 -42 31 -47 27
-4 -4 -3 0 3 9 10 12 9 18 -6 31 -10 8 -25 25 -34 38 -11 16 -27 23 -59 25
-24 1 -29 0 -13 -2 17 -2 35 -9 40 -14 7 -7 -30 -10 -105 -9 -63 1 -119 1
-123 1 -12 -1 11 -38 49 -81 34 -38 38 -70 7 -70 -8 0 -11 4 -8 10 4 6 -3 6
-21 0 -15 -6 -36 -8 -47 -4 -13 4 -17 2 -13 -5 5 -7 1 -9 -9 -5 -9 4 -14 13
-10 21 4 11 1 13 -10 9 -19 -7 -69 37 -126 111 -32 41 -47 53 -68 52 -24 -1
-24 -2 -4 -7z m524 -59 c13 -16 12 -17 -3 -4 -17 13 -22 21 -14 21 2 0 10 -8
17 -17z m-2016 -83 c-3 -5 -15 -10 -26 -10 -10 0 -19 5 -19 10 0 6 12 10 26
10 14 0 23 -4 19 -10z m382 -26 c-3 -3 -12 -4 -19 -1 -8 3 -5 6 6 6 11 1 17
-2 13 -5z m1473 -2 c0 -4 14 -16 30 -26 17 -9 27 -22 24 -28 -5 -7 -11 -6 -18
4 -6 8 -21 20 -33 27 -23 12 -31 31 -13 31 6 0 10 -4 10 -8z m-703 -8 c-3 -3
-12 -4 -19 -1 -8 3 -5 6 6 6 11 1 17 -2 13 -5z"/>
<path d="M3193 663 c9 -2 23 -2 30 0 6 3 -1 5 -18 5 -16 0 -22 -2 -12 -5z"/>
<path d="M3278 663 c7 -3 16 -2 19 1 4 3 -2 6 -13 5 -11 0 -14 -3 -6 -6z"/>
<path d="M4371 567 c-1 -36 25 -105 36 -94 2 3 -1 16 -8 29 -7 12 -16 41 -20
63 l-6 40 -2 -38z"/>
<path d="M3495 571 c-3 -5 -2 -12 3 -15 5 -3 9 1 9 9 0 17 -3 19 -12 6z"/>
<path d="M928 563 c17 -2 47 -2 65 0 17 2 3 4 -33 4 -36 0 -50 -2 -32 -4z"/>
<path d="M1048 553 c12 -2 30 -2 40 0 9 3 -1 5 -23 4 -22 0 -30 -2 -17 -4z"/>
<path d="M3000 509 c0 -5 9 -9 20 -9 11 0 20 2 20 4 0 2 -9 6 -20 9 -11 3 -20
1 -20 -4z"/>
<path d="M4460 474 l-35 -13 35 5 c19 3 45 7 58 8 12 0 22 4 22 9 0 11 -41 7
-80 -9z"/>
</g>
</svg>
