<?xml version="1.0" standalone="no"?>
<!DOCTYPE svg PUBLIC "-//W3C//DTD SVG 20010904//EN"
 "http://www.w3.org/TR/2001/REC-SVG-20010904/DTD/svg10.dtd">
<svg version="1.0" xmlns="http://www.w3.org/2000/svg"
 width="474.000000pt" height="474.000000pt" viewBox="0 0 474.000000 474.000000"
 preserveAspectRatio="xMidYMid meet">

<g transform="translate(0.000000,474.000000) scale(0.100000,-0.100000)"
fill="#000000" stroke="none">
<path d="M2110 3051 c0 -22 5 -43 10 -46 6 -3 10 3 10 14 0 27 26 27 33 0 9
-33 27 -12 27 32 0 28 -4 39 -15 39 -8 0 -15 -7 -15 -15 0 -8 -7 -15 -15 -15
-8 0 -15 7 -15 15 0 8 -4 15 -10 15 -5 0 -10 -18 -10 -39z"/>
<path d="M2217 3053 c-17 -42 -13 -60 9 -42 11 9 18 9 29 -1 24 -20 29 -4 14
36 -19 50 -34 52 -52 7z m33 -9 c0 -8 -5 -12 -10 -9 -6 4 -8 11 -5 16 9 14 15
11 15 -7z"/>
<path d="M2290 3075 c0 -21 28 -75 39 -75 7 0 31 65 31 84 0 17 -20 3 -28 -21
l-10 -28 -7 28 c-8 29 -25 37 -25 12z"/>
<path d="M2380 3048 c0 -40 2 -43 30 -45 16 -1 32 2 35 7 4 6 -3 10 -14 10
-12 0 -21 5 -21 10 0 6 7 10 15 10 21 0 19 18 -2 23 -17 4 -17 5 0 6 30 2 18
21 -13 21 -29 0 -30 -2 -30 -42z"/>
<path d="M2470 3045 c0 -41 2 -45 24 -45 14 0 28 5 31 10 3 6 -3 10 -14 10
-17 0 -21 6 -21 35 0 19 -4 35 -10 35 -5 0 -10 -20 -10 -45z"/>
<path d="M2540 3050 c0 -25 5 -40 13 -41 6 0 20 -2 29 -4 10 -2 20 1 24 6 3 5
-4 9 -15 9 -17 0 -21 6 -21 35 0 24 -5 35 -15 35 -11 0 -15 -11 -15 -40z"/>
<path d="M2624 3075 c-7 -18 3 -35 22 -35 8 0 14 -5 14 -11 0 -6 -9 -8 -20 -4
-11 3 -20 2 -20 -4 0 -13 33 -23 54 -15 24 9 19 32 -11 48 -26 14 -27 15 -5
16 31 0 28 20 -3 20 -14 0 -28 -7 -31 -15z"/>
<path d="M3371 2274 c0 -11 3 -14 6 -6 3 7 2 16 -1 19 -3 4 -6 -2 -5 -13z"/>
<path d="M2220 1292 c0 -23 4 -42 8 -42 10 0 8 67 -2 77 -3 3 -6 -12 -6 -35z"/>
<path d="M2357 1313 c-7 -10 3 -63 12 -63 7 0 6 58 -1 66 -3 3 -8 2 -11 -3z"/>
<path d="M2282 1285 c0 -16 2 -22 5 -12 2 9 2 23 0 30 -3 6 -5 -1 -5 -18z"/>
<path d="M2316 1301 c-4 -5 -2 -19 2 -32 6 -15 11 -19 16 -10 4 6 3 18 -3 25
-6 7 -8 16 -4 19 3 4 4 7 0 7 -3 0 -8 -4 -11 -9z"/>
<path d="M2407 1283 c4 -23 2 -25 -7 -13 -9 12 -11 12 -8 1 5 -18 38 -23 38
-6 0 20 -11 45 -20 45 -4 0 -5 -12 -3 -27z"/>
<path d="M2472 1285 c0 -16 2 -22 5 -12 2 9 2 23 0 30 -3 6 -5 -1 -5 -18z"/>
<path d="M2534 1295 c-7 -18 2 -45 15 -45 12 0 24 37 16 50 -9 15 -25 12 -31
-5z m13 -27 c-3 -7 -5 -2 -5 12 0 14 2 19 5 13 2 -7 2 -19 0 -25z"/>
<path d="M2250 1278 c0 -19 2 -20 10 -8 13 19 13 30 0 30 -5 0 -10 -10 -10
-22z"/>
<path d="M2440 1280 c0 -11 4 -20 8 -20 4 0 8 9 8 20 0 11 -4 20 -8 20 -4 0
-8 -9 -8 -20z"/>
<path d="M2502 1275 c0 -16 2 -22 5 -12 2 9 2 23 0 30 -3 6 -5 -1 -5 -18z"/>
<path d="M2955 1008 c-44 -17 -89 -34 -100 -39 -37 -15 -240 -60 -362 -81
l-123 -20 -129 21 c-182 31 -415 91 -473 122 -12 6 -18 5 -18 -2 0 -6 9 -13
20 -16 19 -5 20 -6 3 -19 -10 -7 -25 -14 -34 -14 -9 0 -19 -9 -22 -20 -3 -11
-1 -18 4 -14 5 3 6 -2 3 -10 -3 -9 -10 -16 -15 -16 -5 0 -8 -5 -6 -12 1 -6 -6
-14 -15 -16 -14 -2 -16 1 -12 15 4 14 4 15 -4 4 -11 -15 -32 -7 -32 13 0 8 -9
16 -20 19 -59 15 24 -64 95 -92 143 -54 644 -88 931 -62 169 15 338 44 394 69
50 21 110 73 110 94 0 11 -2 11 -9 -1 -7 -11 -9 -11 -14 0 -4 10 -8 7 -12 -8
-4 -13 -12 -23 -17 -23 -5 0 -6 -5 -2 -11 4 -7 1 -10 -7 -7 -8 2 -21 23 -29
46 -14 40 -16 42 -55 42 -55 0 -73 13 -40 28 32 15 35 15 35 2 0 -5 -10 -10
-22 -10 -12 0 -19 -3 -15 -6 3 -4 18 -3 32 0 18 5 25 12 21 21 -3 9 1 15 9 15
8 0 15 5 15 10 0 6 -1 9 -2 9 -2 -1 -39 -15 -83 -31z m85 -88 c0 -5 -7 -10
-15 -10 -8 0 -15 5 -15 10 0 6 7 10 15 10 8 0 15 -4 15 -10z m9 -36 c2 -2 -7
-4 -22 -4 -14 0 -29 5 -32 10 -6 10 42 4 54 -6z m17 -19 c-11 -8 -27 -15 -35
-15 -10 0 -7 6 9 14 33 19 50 19 26 1z"/>
<path d="M1710 990 c-8 -5 -10 -10 -5 -10 6 0 17 5 25 10 8 5 11 10 5 10 -5 0
-17 -5 -25 -10z"/>
<path d="M1788 663 c7 -3 16 -2 19 1 4 3 -2 6 -13 5 -11 0 -14 -3 -6 -6z"/>
<path d="M2840 645 c-19 -7 -53 -11 -75 -9 -28 2 -36 1 -25 -6 12 -8 10 -10
-10 -11 -51 -3 -75 3 -89 19 -11 14 -13 14 -8 2 4 -13 -5 -15 -59 -12 -35 2
-72 1 -81 -3 -27 -12 -173 -15 -173 -4 0 13 -34 11 -48 -3 -9 -9 -15 -9 -24 0
-7 7 -28 11 -47 11 l-36 -2 40 -7 40 -7 -48 -2 c-33 -1 -46 2 -41 10 4 8 -4 9
-27 4 -25 -4 -30 -3 -19 4 12 9 11 11 -8 11 -13 0 -21 -4 -17 -9 3 -5 1 -12
-5 -16 -5 -3 -10 -1 -10 5 0 7 -8 9 -21 5 -12 -4 -19 -3 -16 2 3 5 -7 7 -24 5
-35 -5 -39 -22 -5 -22 13 0 31 -3 40 -6 30 -11 16 -24 -26 -24 -25 0 -38 -4
-33 -9 16 -14 125 -1 125 16 0 11 8 12 38 6 48 -9 395 -9 445 1 33 6 37 5 37
-13 0 -11 5 -23 10 -26 6 -3 10 -26 10 -51 0 -28 4 -43 10 -39 6 3 10 26 10
50 0 24 4 46 10 50 5 3 7 11 4 18 -3 9 22 18 86 31 50 11 93 23 96 28 3 4 10
5 16 2 7 -4 8 -2 4 4 -4 7 -8 11 -9 11 -1 -1 -18 -7 -37 -14z m-287 -32 c-7
-2 -21 -2 -30 0 -10 3 -4 5 12 5 17 0 24 -2 18 -5z m44 1 c-3 -3 -12 -4 -19
-1 -8 3 -5 6 6 6 11 1 17 -2 13 -5z"/>
<path d="M2908 653 c7 -3 16 -2 19 1 4 3 -2 6 -13 5 -11 0 -14 -3 -6 -6z"/>
<path d="M1876 638 c6 -10 64 -11 64 0 0 4 -16 7 -35 8 -19 0 -32 -3 -29 -8z"/>
<path d="M2458 623 c7 -3 16 -2 19 1 4 3 -2 6 -13 5 -11 0 -14 -3 -6 -6z"/>
<path d="M1895 580 c-3 -5 3 -10 15 -10 12 0 18 5 15 10 -3 6 -10 10 -15 10
-5 0 -12 -4 -15 -10z"/>
<path d="M2810 581 c0 -6 11 -11 25 -11 14 0 25 -4 25 -10 0 -6 48 -10 125
-10 69 0 125 4 125 9 0 15 -21 18 -130 20 -58 1 -120 4 -137 7 -21 4 -33 2
-33 -5z"/>
<path d="M2888 483 c34 -2 88 -2 120 0 31 2 3 3 -63 3 -66 0 -92 -1 -57 -3z"/>
<path d="M2844 441 c10 -11 15 -25 11 -30 -4 -8 35 -11 125 -11 l131 0 -3 28
-3 27 -139 3 c-138 3 -139 2 -122 -17z"/>
<path d="M1980 390 c0 -5 9 -10 20 -10 11 0 20 5 20 10 0 6 -9 10 -20 10 -11
0 -20 -4 -20 -10z"/>
</g>
</svg>
