<?xml version="1.0" standalone="no"?>
<!DOCTYPE svg PUBLIC "-//W3C//DTD SVG 20010904//EN"
 "http://www.w3.org/TR/2001/REC-SVG-20010904/DTD/svg10.dtd">
<svg version="1.0" xmlns="http://www.w3.org/2000/svg"
 width="849.000000pt" height="565.000000pt" viewBox="0 0 849.000000 565.000000"
 preserveAspectRatio="xMidYMid meet">

<g transform="translate(0.000000,565.000000) scale(0.100000,-0.100000)"
fill="#000000" stroke="none">
<path d="M2 3988 c2 -935 8 -1671 13 -1682 5 -12 5 -17 -2 -13 -6 4 -7 -14 -2
-51 22 -175 25 -1934 4 -2034 -4 -14 -2 -29 4 -32 6 -4 8 -39 4 -91 l-6 -85
158 0 157 0 -4 25 c-3 13 -1 22 3 19 5 -3 9 -14 9 -25 0 -18 8 -19 104 -19 74
0 106 4 109 13 4 10 6 10 6 0 1 -7 8 -13 15 -13 12 0 15 15 13 74 l-2 74 -30
-5 c-16 -4 -31 -10 -33 -15 -2 -4 -17 -8 -32 -8 -16 0 -31 -4 -34 -9 -3 -5
-26 -12 -51 -15 -25 -4 -52 -14 -60 -22 -8 -9 -19 -12 -25 -9 -13 8 -80 -13
-80 -25 0 -4 -20 -10 -45 -12 -44 -3 -59 12 -18 18 12 2 39 10 60 18 21 8 63
23 94 35 31 11 70 23 86 26 17 2 43 12 59 20 16 8 43 18 61 21 18 3 37 12 44
20 6 8 23 14 37 14 31 0 162 41 162 51 0 4 -10 5 -22 3 -13 -2 -17 -2 -10 2
24 11 11 23 -21 19 l-32 -5 30 10 c17 5 35 21 42 35 10 23 9 24 -11 19 -15 -3
-28 2 -41 16 -13 14 -21 17 -26 9 -4 -7 -14 -9 -25 -4 -11 5 -23 7 -27 6 -5
-1 -6 3 -2 9 3 5 18 11 33 11 23 2 24 2 5 6 -41 8 -56 -10 -58 -68 -2 -87 -4
-99 -16 -99 -6 0 -8 8 -5 18 3 9 -1 29 -8 44 -13 25 -13 29 2 37 13 7 14 13 5
21 -13 14 -131 -9 -195 -36 -40 -18 -57 -56 -37 -80 7 -8 9 -17 6 -20 -8 -8
-42 18 -43 34 -3 37 -5 42 -17 42 -7 0 -40 -10 -73 -23 -74 -29 -114 -40 -114
-30 0 12 192 81 240 87 14 2 59 15 100 28 41 14 90 29 107 33 28 5 32 10 28
28 -3 12 -7 32 -8 44 -1 16 -5 19 -13 12 -8 -7 -13 -6 -16 2 -2 6 -19 13 -38
14 -19 2 -37 4 -39 4 -2 1 4 12 13 25 9 14 12 27 7 30 -14 9 -69 -5 -75 -19
-2 -7 -21 -15 -40 -19 l-36 -7 0 -61 c0 -57 1 -60 21 -55 13 4 28 -1 38 -11
15 -15 15 -15 -1 -9 -10 3 -20 2 -23 -2 -8 -13 -52 -19 -52 -7 1 87 -5 137
-18 142 -8 3 -46 -4 -84 -16 -39 -12 -79 -20 -88 -18 -10 2 16 14 57 26 115
35 117 37 122 75 5 44 0 57 -20 57 -13 0 -12 3 4 14 19 14 19 15 0 22 -12 5
-30 1 -48 -9 -27 -15 -28 -15 -28 3 0 24 -10 30 -35 19 -16 -6 -17 -8 -3 -8 9
-1 20 -6 24 -12 4 -7 -5 -9 -30 -6 -22 3 -34 1 -30 -5 4 -6 0 -15 -7 -20 -10
-7 -8 -8 8 -3 12 3 24 1 27 -4 9 -13 -28 -33 -47 -25 -10 3 -17 -2 -20 -13 -3
-10 -5 8 -6 39 -1 45 3 59 16 67 10 5 20 9 23 9 11 1 68 15 118 30 60 18 64
25 59 117 -4 78 -9 86 -47 75 -17 -5 -31 -8 -33 -8 -11 5 -77 -27 -77 -37 0
-18 -26 -26 -38 -12 -6 7 -13 26 -17 42 -6 28 -5 29 9 11 13 -16 20 -17 43 -8
15 6 46 14 68 17 22 3 51 13 65 21 l25 15 -30 -7 c-32 -8 -85 -8 -92 0 -10 9
9 46 23 46 8 0 23 -9 35 -21 24 -24 28 -22 35 15 3 18 0 26 -10 26 -8 0 -18
-5 -21 -10 -8 -13 -25 -13 -25 0 0 6 7 10 16 10 14 0 16 7 11 40 -5 38 4 53
18 30 10 -16 22 -12 28 10 6 25 -7 34 -31 21 -10 -5 -49 -12 -86 -16 -38 -3
-73 -8 -77 -11 -5 -3 -9 -1 -9 5 0 6 12 14 28 17 113 27 127 32 131 49 2 10
13 27 25 37 l21 19 -30 -5 -30 -6 30 25 c17 14 31 30 31 37 1 7 2 21 3 31 1
18 31 25 31 7 0 -5 8 -10 18 -10 16 -1 16 -2 -2 -15 -20 -15 -13 -37 9 -28 9
3 15 -1 16 -8 1 -8 4 -3 8 11 4 14 4 30 -1 37 -13 16 -1 33 20 32 14 0 13 -2
-3 -9 -17 -7 -17 -9 -2 -9 31 -2 32 -1 33 9 1 6 2 15 3 20 2 15 31 12 31 -2 0
-10 3 -9 9 1 5 8 16 11 30 6 13 -4 27 -1 35 8 8 8 57 22 108 31 129 24 180 34
277 57 46 11 89 18 95 16 7 -3 11 -52 11 -146 l0 -141 33 0 c18 0 42 -5 53
-10 16 -9 17 -14 6 -31 -10 -16 -9 -21 3 -29 13 -8 13 -10 -2 -10 -9 0 -19 6
-22 13 -3 6 -4 -1 -3 -18 2 -27 -1 -30 -30 -33 -33 -3 -33 -3 -33 -60 0 -31
-1 -186 -1 -344 -1 -157 2 -291 6 -297 4 -7 4 -34 0 -62 -6 -40 -11 -50 -30
-55 -15 -4 -22 -11 -18 -20 3 -8 -1 -14 -10 -14 -8 0 -17 -6 -20 -12 -2 -7 -8
-10 -12 -6 -5 5 0 18 11 30 16 18 17 21 2 15 -9 -3 -19 -1 -22 6 -2 7 -5 2 -5
-11 -1 -18 -6 -23 -23 -20 -17 2 -23 9 -22 27 l1 24 -24 -27 c-17 -21 -23 -39
-23 -77 0 -56 6 -58 75 -34 48 17 45 17 45 6 0 -5 -13 -14 -30 -20 -17 -6 -43
-16 -60 -22 -23 -9 -29 -17 -28 -35 l2 -24 483 0 483 0 133 54 c72 29 206 82
297 116 185 69 191 72 240 93 19 9 49 18 65 22 17 3 3 -6 -30 -21 -33 -14 -64
-30 -70 -34 -5 -4 -26 -13 -45 -18 -41 -12 -146 -51 -315 -117 -66 -26 -132
-50 -146 -55 -14 -4 -39 -15 -55 -23 -27 -15 -13 -16 212 -17 l241 0 69 30
c38 17 78 35 89 40 115 51 426 177 468 190 15 5 27 5 27 0 0 -11 -30 -21 -41
-14 -5 3 -9 2 -9 -3 0 -4 -12 -13 -27 -20 -241 -101 -273 -116 -273 -125 0 -8
36 3 67 22 10 5 50 21 88 34 122 43 145 52 138 59 -3 4 0 7 8 7 9 0 34 9 57
20 33 16 62 20 154 20 109 1 276 13 347 26 23 5 32 3 27 -4 -9 -15 -65 -42
-88 -42 -10 0 -18 -4 -18 -10 0 -5 -5 -10 -11 -10 -6 0 -67 -27 -135 -60 -68
-33 -126 -60 -129 -60 -11 0 -176 -83 -181 -92 -3 -4 76 -8 175 -8 l181 0 0
25 c0 18 5 25 20 25 15 0 20 -7 20 -25 0 -14 5 -25 10 -25 6 0 10 12 10 26 0
17 -6 28 -20 31 -11 3 -20 9 -20 12 0 7 64 27 125 38 17 3 37 11 45 17 37 28
80 45 138 56 73 13 134 39 129 54 -2 6 10 18 27 25 l31 15 -50 6 c-27 4 -41 8
-30 9 l20 2 -20 9 c-16 7 -10 9 25 11 25 1 68 1 96 0 32 -2 55 2 59 9 5 9 1
10 -16 5 -18 -5 -21 -4 -9 4 8 6 23 8 33 5 9 -3 36 1 60 10 64 22 100 29 92
16 -4 -6 10 -4 30 4 45 19 48 19 39 4 -5 -8 -2 -9 10 -5 10 4 20 7 22 7 3 0 2
5 -1 10 -3 6 3 10 14 10 11 0 22 4 26 9 3 6 38 20 78 32 39 13 74 27 75 31 2
4 12 8 22 8 19 0 138 40 200 68 207 91 383 195 445 262 30 32 95 71 128 77 10
2 28 -4 40 -12 21 -15 21 -15 -6 -15 -29 0 -33 -7 -16 -30 8 -11 12 -12 16 -2
7 19 21 14 28 -9 4 -12 10 -17 14 -12 3 5 19 9 36 9 16 -1 30 4 30 11 0 21 13
25 34 11 20 -14 20 -15 -13 -31 -19 -8 -50 -19 -70 -23 -21 -3 -35 -9 -32 -12
3 -3 -3 -11 -14 -19 -11 -8 -20 -23 -20 -34 0 -14 -7 -19 -29 -19 -19 0 -30
-6 -34 -17 -2 -10 -8 -26 -12 -37 -8 -17 -6 -17 22 -2 20 10 43 13 67 9 24 -4
36 -2 36 6 0 6 8 11 18 11 11 0 27 9 37 20 9 10 20 18 24 18 3 -1 23 4 44 12
23 9 37 20 37 32 0 12 5 15 16 11 8 -3 25 3 37 14 12 11 29 23 37 26 8 3 -1 6
-20 7 -35 2 -34 2 15 17 28 8 59 15 71 16 11 1 28 8 37 16 9 7 23 11 32 8 8
-4 27 0 42 8 59 31 92 9 46 -31 -30 -26 -48 -30 -58 -13 -4 6 -13 -1 -21 -16
-8 -15 -12 -31 -9 -35 3 -5 -4 -11 -15 -15 -11 -3 -37 -23 -59 -43 -64 -60
-123 -102 -146 -102 -2 0 -16 -12 -29 -25 -14 -14 -32 -25 -41 -25 -8 0 -15
-6 -15 -12 0 -7 -12 -21 -28 -30 -123 -75 -172 -106 -197 -126 -33 -25 -264
-176 -360 -235 -92 -56 -103 -66 -86 -76 21 -13 -13 -45 -39 -38 -16 4 -20 0
-20 -18 0 -21 4 -24 39 -22 22 0 39 4 39 7 0 3 3 15 7 27 6 18 12 21 36 16 20
-4 30 -1 35 10 4 13 70 47 90 47 3 0 4 -19 2 -42 -2 -34 -8 -45 -28 -55 -21
-11 22 -13 246 -13 258 0 272 1 289 20 10 11 23 20 28 20 6 0 3 -8 -6 -18 -16
-18 -13 -18 69 -21 57 -1 91 2 101 10 11 10 16 10 22 1 6 -9 217 -12 895 -10
l888 3 67 130 c36 72 85 164 107 205 60 109 104 192 164 305 l53 100 3 167 c2
187 1 190 -64 193 -20 1 -100 16 -177 33 -289 64 -285 63 -285 83 0 23 -4 23
67 3 32 -9 72 -19 88 -21 17 -3 36 -10 42 -15 7 -6 20 -8 28 -4 8 3 15 1 15
-4 0 -6 5 -10 11 -10 5 0 7 5 4 10 -9 15 7 12 32 -5 12 -8 28 -12 37 -9 9 3
42 -2 73 -13 32 -10 84 -18 115 -18 31 1 55 -2 52 -6 -7 -11 94 -30 124 -23
18 4 23 3 14 -4 -16 -11 100 -38 117 -28 6 4 11 3 11 -2 0 -5 19 -13 42 -18
23 -5 43 -15 46 -23 3 -9 0 -11 -9 -5 -11 6 -12 5 -2 -7 7 -8 9 -26 6 -39 -4
-16 -3 -21 5 -16 8 5 12 -1 12 -14 0 -14 -4 -19 -12 -14 -7 4 -5 -2 5 -13 21
-24 22 -33 2 -33 -17 0 -20 -25 -5 -35 6 -3 10 -22 10 -41 0 -20 -4 -33 -10
-29 -5 3 -7 20 -4 38 4 30 4 31 -6 7 -8 -17 -8 -31 -1 -48 14 -30 14 -32 -4
-26 -24 10 -19 -42 6 -60 12 -8 19 -20 16 -28 -5 -16 10 -48 23 -48 6 0 10 74
10 189 l0 189 43 -10 c23 -5 51 -12 62 -14 11 -3 31 -7 45 -10 14 -3 42 -9 63
-14 39 -8 53 4 14 14 l-23 5 1 338 c0 186 -3 358 -6 383 -3 25 -6 -126 -7
-334 -2 -209 -4 -382 -7 -384 -2 -2 -13 -1 -24 3 l-21 6 0 776 c0 427 -2 774
-5 772 -2 -3 -5 -346 -5 -763 -1 -417 -3 -763 -6 -771 -3 -7 -14 -11 -25 -8
-19 5 -19 24 -21 817 l-2 811 -7 -770 c-8 -948 -4 -847 -31 -843 l-23 3 0 416
0 416 -125 6 c-145 7 -166 12 -173 39 -5 16 -11 18 -44 12 -49 -9 -53 -11 -53
-34 0 -27 -12 -31 -45 -14 -32 16 -65 15 -89 -5 -24 -20 -114 -5 -141 25 -12
13 -30 24 -39 24 -9 0 -16 7 -16 15 0 12 -13 15 -60 15 -36 0 -76 7 -98 17
-20 10 -57 20 -82 23 -40 4 -45 8 -48 32 -3 26 -2 27 29 18 38 -11 33 -5 -13
18 -39 20 -37 12 -77 317 -57 438 -58 453 -25 667 6 34 4 38 -27 51 -52 22
-117 84 -149 141 l-30 51 0 -36 c0 -47 24 -104 64 -154 18 -22 38 -50 45 -62
6 -13 15 -22 19 -21 13 4 52 -13 52 -22 0 -5 -5 -21 -12 -35 -10 -22 -9 -28 3
-36 11 -7 12 -11 1 -18 -10 -6 -13 -35 -10 -114 3 -120 6 -117 -74 -117 -64 0
-59 -8 6 -11 45 -3 76 -19 76 -39 0 -5 -33 -11 -72 -13 l-73 -3 73 -2 c40 -1
72 -6 72 -12 0 -5 -4 -10 -10 -10 -6 0 -6 -9 0 -26 13 -32 13 -44 0 -44 -5 0
-10 6 -10 13 0 6 -11 25 -24 42 l-23 29 -27 -29 c-20 -23 -25 -39 -23 -70 2
-35 5 -40 27 -40 14 0 34 -6 45 -12 19 -12 18 -12 -9 -13 -47 0 -17 -19 35
-21 25 -2 46 -7 47 -13 1 -6 4 -24 8 -40 l7 -29 -134 7 c-128 6 -161 9 -324
24 -68 7 -70 8 -73 36 -5 43 10 51 96 49 l77 -1 -68 7 c-38 4 -72 13 -76 20
-4 6 -5 26 -2 44 l5 32 6 -35 c5 -33 7 -35 47 -38 38 -3 43 0 49 22 6 27 -20
91 -41 100 -7 2 -21 -4 -31 -15 -24 -27 -48 -25 -40 4 3 12 6 26 6 31 0 4 9 6
20 3 11 -3 23 -1 26 4 3 5 -2 9 -11 9 -13 0 -10 8 12 36 l27 37 -38 -5 c-35
-4 -37 -2 -33 19 2 13 0 23 -4 23 -5 0 -9 -9 -9 -20 0 -11 -7 -20 -15 -20 -17
0 -19 18 -6 39 6 9 4 22 -5 36 -8 12 -11 25 -7 28 3 4 1 7 -5 7 -8 0 -12 -21
-12 -60 l0 -60 -54 0 c-30 0 -57 4 -60 9 -10 16 6 42 33 52 20 8 22 12 11 19
-9 5 -21 3 -34 -6 -11 -8 -27 -14 -35 -14 -7 0 -20 -8 -27 -18 -12 -16 -13
-15 -14 6 0 21 4 23 39 26 20 2 31 39 17 57 -6 8 -22 19 -36 26 l-25 11 35 16
35 15 -32 1 c-24 0 -33 5 -33 16 0 13 -3 14 -14 5 -12 -10 -20 -9 -40 4 -19
13 -29 14 -45 5 -29 -15 -26 -22 7 -14 26 6 26 6 7 -9 -16 -13 -17 -17 -6 -31
11 -14 11 -16 -2 -16 -9 0 -14 -6 -11 -13 2 -7 -1 -20 -8 -29 -15 -19 -64 -37
-54 -19 4 6 14 11 23 11 9 0 13 3 10 7 -4 3 -1 13 6 21 10 13 7 14 -21 10 -45
-6 -39 21 8 38 28 10 30 13 12 13 -13 1 -20 5 -17 11 3 6 -1 10 -9 10 -8 0
-16 10 -19 23 -3 21 -4 20 -16 -8 -12 -28 -14 -28 -21 -10 -8 18 -9 18 -9 2
-1 -10 -5 -16 -10 -13 -5 4 -7 -3 -4 -15 5 -18 2 -20 -28 -14 -19 3 -47 1 -64
-4 l-30 -9 31 -1 c35 -1 94 -19 95 -29 0 -4 2 -15 4 -25 4 -20 -27 -39 -68
-43 -39 -3 -44 -12 -14 -23 46 -18 40 -30 -24 -43 l-61 -12 32 -11 c30 -10 31
-12 16 -27 -10 -11 -42 -19 -93 -23 -113 -9 -114 -16 -2 -9 l96 6 -11 -59 c-9
-51 -11 -55 -16 -28 -6 27 -7 25 -11 -17 -3 -34 -1 -48 8 -48 7 0 13 5 13 10
0 6 5 10 10 10 6 0 10 -6 10 -14 0 -8 -20 -17 -52 -24 -53 -11 -41 -10 75 5
40 5 51 3 67 -15 11 -12 20 -25 20 -30 0 -10 -83 -33 -197 -53 -40 -7 -73 -16
-73 -20 0 -3 21 -2 48 2 26 5 64 10 84 12 l37 4 -3 -53 c-3 -59 8 -89 24 -64
6 9 10 10 10 3 0 -7 -7 -16 -15 -21 -10 -5 -14 -17 -11 -33 2 -13 5 -26 5 -29
1 -3 6 2 11 10 9 13 10 13 10 0 0 -9 -6 -22 -12 -29 -10 -11 -10 -13 0 -7 8 5
12 -2 12 -23 0 -23 -5 -31 -18 -31 -14 0 -19 -8 -19 -30 0 -18 5 -29 11 -27 6
2 11 11 11 20 0 8 4 19 8 23 6 7 12 -115 7 -160 -1 -13 3 -17 14 -13 8 3 18 2
21 -3 4 -6 -3 -10 -14 -10 -22 0 -26 -25 -23 -124 1 -29 -2 -37 -12 -33 -8 3
-17 -1 -20 -9 -3 -8 -10 -14 -17 -14 -6 0 -40 -14 -75 -31 -134 -63 -143 -63
-370 -9 -45 11 -90 21 -101 23 -11 1 -27 10 -36 18 -10 10 -81 28 -189 48 -95
17 -186 36 -203 41 -16 5 -48 12 -70 16 -50 10 -54 11 -57 14 -2 1 -14 3 -28
5 -62 7 -123 24 -131 36 -7 12 -9 12 -9 0 0 -9 -4 -10 -12 -4 -7 6 -33 13 -58
17 -24 4 -50 12 -57 18 -7 5 -19 8 -28 5 -8 -4 -32 0 -52 7 -36 13 -107 26
-164 31 -14 1 -30 4 -35 7 -5 4 -27 9 -49 13 -22 4 -54 12 -72 18 -28 9 -31
14 -26 39 6 31 2 33 -28 18 -15 -8 -19 -7 -19 5 0 8 -7 15 -16 15 -8 0 -12 -4
-9 -10 3 -5 -1 -10 -9 -10 -9 0 -16 7 -16 15 0 8 -4 15 -10 15 -5 0 -10 -11
-10 -25 0 -20 5 -25 28 -27 46 -2 50 -3 58 -11 5 -4 -20 -6 -54 -4 -36 3 -79
-1 -100 -8 -20 -7 -62 -16 -92 -19 -30 -4 -72 -12 -92 -18 -29 -8 -41 -8 -53
2 -8 7 -18 10 -22 6 -3 -3 -1 -6 6 -6 6 0 16 -11 21 -25 5 -14 13 -25 18 -25
13 0 62 -94 62 -118 0 -12 5 -24 10 -27 6 -3 10 1 10 11 0 14 7 15 40 10 36
-6 40 -4 46 19 4 15 16 28 30 31 30 8 44 -2 44 -30 0 -26 22 -36 78 -36 30 0
33 2 27 23 -12 41 -95 99 -95 66 0 -5 -5 -7 -10 -4 -6 4 -8 15 -5 25 4 12 -1
22 -12 29 -16 9 -16 10 5 11 15 0 26 -7 29 -20 5 -20 14 -24 76 -35 39 -6 79
-41 97 -85 9 -21 18 -27 49 -28 32 -2 39 1 44 18 5 18 12 21 44 18 33 -3 38
-7 41 -30 3 -23 10 -28 53 -37 62 -14 82 -14 74 -1 -8 14 5 58 20 63 7 3 46
-4 86 -15 41 -11 87 -23 104 -26 27 -4 54 -26 55 -43 0 -4 -10 -9 -22 -13 -19
-5 -21 -8 -8 -16 12 -8 12 -12 2 -18 -9 -6 9 -16 55 -31 37 -13 104 -43 149
-67 45 -24 83 -41 86 -39 2 2 22 7 43 11 21 3 49 10 63 15 14 5 27 8 29 5 2
-2 -13 -10 -34 -16 -21 -7 -45 -19 -54 -26 -9 -8 -20 -11 -25 -7 -5 5 2 -4 15
-20 19 -20 27 -24 34 -15 6 10 8 9 4 -3 -3 -9 7 -31 21 -49 15 -19 27 -39 28
-45 1 -7 8 -25 17 -40 l14 -29 13 24 c10 18 14 20 21 9 7 -11 9 -9 9 6 0 17 2
18 10 5 9 -13 12 -13 23 2 15 19 114 38 103 19 -4 -6 -13 -11 -21 -11 -8 0
-18 -6 -22 -13 -9 -14 -75 -57 -115 -75 -24 -10 -28 -18 -28 -50 0 -22 -3 -67
-6 -101 -32 -297 -585 -593 -1347 -720 -545 -92 -1060 -95 -1537 -10 -146 26
-352 89 -341 103 19 25 19 58 0 77 -10 10 -18 22 -17 27 2 8 -111 66 -117 60
-2 -2 2 -58 10 -123 21 -172 20 -194 -7 -204 -48 -17 -99 -20 -104 -6 -6 14
13 309 22 336 2 9 19 19 36 23 l31 6 -7 61 c-7 73 -12 82 -35 69 -12 -6 -21
-26 -25 -60 -4 -27 -9 -50 -13 -50 -17 0 -124 75 -159 112 -54 56 -102 143
-110 199 -14 100 63 228 196 328 127 96 244 153 465 231 268 93 472 137 940
200 95 12 297 23 428 22 59 0 120 3 136 8 16 4 32 5 36 2 9 -10 135 -11 135
-2 0 5 -4 10 -8 12 -4 2 -15 26 -24 53 l-16 50 -101 0 c-67 0 -137 -7 -209
-22 -59 -13 -143 -29 -187 -36 -44 -7 -85 -16 -91 -20 -6 -3 -33 -9 -60 -12
-55 -6 -56 -7 -139 -24 -33 -8 -63 -18 -67 -25 -6 -8 -8 -8 -8 0 0 7 -10 9
-25 6 -14 -2 -23 -7 -21 -11 2 -3 -29 -7 -70 -8 -41 -1 -99 -9 -129 -18 -31
-8 -61 -15 -68 -14 -7 1 -19 0 -27 -3 -8 -3 -46 -11 -85 -17 -38 -6 -83 -14
-100 -17 -16 -3 -43 -8 -60 -11 -89 -14 -137 -26 -127 -32 7 -4 -5 -7 -26 -7
-20 0 -66 -3 -102 -8 -36 -4 -91 -7 -122 -6 -47 1 -58 -2 -58 -14 0 -11 -10
-16 -32 -18 -39 -1 -48 -3 -68 -11 -8 -3 -49 -8 -90 -11 -129 -9 -215 -18
-225 -26 -5 -4 -32 -10 -58 -14 -27 -3 -53 -9 -59 -12 -5 -4 -31 -8 -57 -9
-25 -2 -61 -6 -78 -8 -18 -3 -33 -1 -33 4 0 5 15 9 33 10 47 1 112 23 111 37
-1 7 -2 26 -2 42 -1 19 -7 30 -17 30 -9 0 -15 9 -15 25 0 16 6 25 15 25 21 0
19 20 -2 21 -15 0 -15 2 2 8 l20 8 -20 4 c-11 3 -35 3 -52 1 -31 -4 -33 -7
-33 -43 0 -21 -4 -39 -10 -39 -5 0 -10 16 -10 35 0 32 -2 35 -31 35 -51 0 -69
-16 -69 -61 0 -38 2 -41 23 -36 34 9 164 18 147 11 -28 -12 -50 -37 -50 -56 0
-11 -5 -16 -11 -12 -6 3 -8 17 -4 31 5 23 4 24 -32 18 -71 -11 -73 -13 -73
-62 0 -39 2 -44 18 -38 12 4 14 3 6 -5 -6 -6 -30 -13 -54 -15 -36 -4 -40 -2
-30 10 16 20 5 19 -135 -5 -60 -11 -157 -27 -215 -35 -58 -9 -139 -22 -180
-30 -41 -8 -131 -21 -200 -30 -69 -9 -140 -20 -158 -25 -39 -10 -38 -12 -47
93 -4 53 -2 83 5 92 7 8 8 20 3 27 -11 18 -11 24 -16 405 -4 311 -3 341 12
336 9 -3 6 2 -7 12 -13 9 -30 14 -38 11 -12 -4 -14 -1 -9 14 4 11 2 20 -3 20
-6 0 -11 91 -13 238 -3 299 -3 202 0 1077 2 620 5 754 17 772 8 14 10 23 3 25
-6 2 -13 22 -16 46 -5 39 -4 42 18 43 24 0 24 0 2 9 -21 9 -22 12 -20 172 3
181 -3 168 72 154 22 -4 35 -3 35 4 0 5 -6 10 -14 10 -8 0 -27 5 -42 10 -26
10 -26 11 -8 25 18 15 18 15 -6 12 -14 -2 -19 -2 -13 0 7 3 13 9 13 14 0 5 11
7 25 3 15 -4 25 -2 25 5 0 6 -6 11 -12 11 -7 0 -24 3 -37 7 -17 4 -22 3 -17
-5 4 -7 3 -12 -3 -12 -5 0 -9 9 -8 20 2 24 33 26 60 5 11 -7 25 -11 32 -9 9 4
15 -4 18 -23 2 -15 3 15 1 67 -1 52 -3 113 -3 135 -1 27 -4 35 -10 26 -7 -11
-9 -11 -14 0 -4 10 -6 9 -6 -3 -1 -9 4 -20 9 -23 6 -3 10 -15 10 -26 0 -19 -1
-19 -32 -3 -28 15 -30 18 -15 29 9 6 14 15 10 18 -11 11 -31 8 -46 -8 -13 -12
-15 -12 -20 4 -8 31 7 45 30 30 12 -7 28 -9 39 -5 18 8 18 8 -1 16 -11 5 -16
9 -11 9 14 1 76 -22 76 -29 0 -3 2 -66 4 -140 2 -74 4 -189 5 -254 1 -66 4
-117 7 -114 3 4 5 94 4 202 l-1 196 31 0 c17 0 40 -5 51 -10 12 -7 19 -7 19
-1 0 6 -15 13 -34 16 -26 5 -33 11 -29 25 3 11 -4 24 -16 32 -26 18 -19 45 12
51 20 3 20 4 -6 15 -25 11 -28 16 -25 54 2 30 7 42 16 40 8 -1 35 -5 60 -8
l47 -5 -35 17 c-19 10 -46 20 -60 24 -20 4 -24 11 -25 43 -2 46 8 54 41 32 14
-9 33 -14 41 -11 10 4 13 2 10 -8 -3 -8 1 -17 10 -20 9 -4 13 -14 10 -26 -3
-11 0 -18 7 -17 7 1 11 -23 12 -73 1 -41 2 -103 3 -137 l1 -61 47 -10 c35 -8
50 -7 55 1 6 9 8 9 8 0 0 -25 19 -13 22 15 5 34 -21 82 -44 82 -9 0 -19 4 -22
9 -10 15 5 20 31 10 36 -13 44 -3 29 40 -8 20 -12 49 -9 64 4 22 2 25 -16 20
-15 -4 -21 -1 -21 11 0 9 5 16 11 16 8 0 8 5 -1 15 -10 13 -9 15 9 15 15 0 20
-4 15 -12 -5 -9 -4 -10 4 -3 6 6 12 28 15 50 3 32 4 26 7 -25 2 -36 4 -78 5
-95 1 -16 3 -54 3 -82 1 -29 6 -53 10 -53 8 0 15 70 13 133 0 28 0 29 25 13
13 -9 29 -14 34 -11 15 9 2 25 -21 25 -10 0 -19 5 -19 11 0 5 -4 7 -10 4 -5
-3 -10 1 -10 9 0 8 7 16 16 18 13 3 13 6 -5 27 -14 16 -21 38 -21 64 0 43 -1
43 84 21 20 -5 26 -2 26 10 0 9 5 16 11 16 6 0 10 -10 9 -22 -1 -13 -1 -84 1
-158 1 -74 4 -117 6 -95 14 184 15 186 29 181 10 -4 14 3 14 27 0 24 3 28 10
17 8 -13 10 -12 10 4 0 11 3 16 7 13 3 -4 12 -2 20 4 10 9 13 8 13 -5 0 -9 -5
-16 -11 -16 -5 0 -7 -5 -3 -11 3 -6 15 -9 25 -6 10 3 20 0 23 -7 2 -6 5 3 5
19 1 23 -2 26 -9 15 -5 -8 -10 -10 -10 -4 0 15 39 54 55 54 8 0 16 -4 19 -9 7
-10 31 -9 42 2 4 4 -2 7 -14 7 -11 0 -23 4 -27 10 -3 5 -12 7 -20 4 -17 -7
-37 27 -26 45 6 9 19 6 56 -13 51 -28 65 -31 65 -17 0 5 -9 11 -21 14 -12 3
-18 10 -15 16 8 12 78 6 106 -9 27 -14 30 -13 28 13 0 12 2 43 7 70 l7 47
-137 0 c-129 0 -136 -1 -130 -19 5 -18 3 -18 -29 -7 -20 7 -39 15 -42 19 -4 4
-167 7 -361 7 l-354 0 3 -1662z m854 1617 c1 -8 -2 -15 -7 -15 -5 0 -9 10 -9
22 0 23 12 17 16 -7z m64 -22 c0 -7 -6 -13 -12 -13 -25 0 -37 16 -31 38 5 22
7 22 24 6 11 -9 19 -23 19 -31z m-157 -7 c14 -13 29 -36 33 -51 6 -25 5 -26
-14 -16 -12 6 -24 16 -27 21 -4 6 -9 8 -13 6 -4 -2 -7 11 -7 30 0 19 0 34 1
34 0 0 13 -11 27 -24z m227 -12 c0 -8 -7 -14 -16 -14 -8 0 -13 4 -9 9 3 5 1
12 -5 16 -6 4 -8 11 -4 16 8 13 34 -8 34 -27z m-270 -19 c0 -8 -4 -15 -10 -15
-5 0 -10 7 -10 15 0 8 5 15 10 15 6 0 10 -7 10 -15z m-110 -16 c0 -10 -16 -11
-47 -3 -36 10 -27 20 12 16 19 -2 35 -8 35 -13z m46 -36 c-10 -10 -19 5 -10
18 6 11 8 11 12 0 2 -7 1 -15 -2 -18z m-403 -2 c-4 -3 -11 -10 -15 -15 -4 -4
-6 1 -5 12 1 12 6 18 15 15 7 -3 10 -9 5 -12z m72 -2 c6 -17 9 -19 16 -8 6 10
9 6 9 -14 0 -16 -4 -26 -10 -22 -5 3 -10 2 -10 -4 0 -5 -11 -6 -27 -2 -32 8
-46 51 -18 51 9 0 13 5 10 10 -3 6 1 10 9 10 8 0 18 -10 21 -21z m286 1 c6 0
7 -5 4 -10 -5 -8 -11 -8 -20 0 -9 8 -14 7 -18 -5 -4 -9 -13 -12 -23 -8 -15 6
-15 7 2 20 10 7 25 11 32 8 8 -3 18 -5 23 -5z m186 -22 c-3 -8 -6 -5 -6 6 -1
11 2 17 5 13 3 -3 4 -12 1 -19z m-299 -58 c-15 -23 -28 -26 -28 -7 0 17 10 27
27 27 11 0 11 -4 1 -20z m-353 -130 c5 -8 11 -7 21 1 17 14 44 5 44 -16 0 -11
-7 -14 -27 -10 l-28 5 28 -12 c40 -17 33 -28 -10 -15 -46 13 -63 25 -63 43 0
16 26 19 35 4z m305 -24 c31 1 32 0 12 -9 -17 -8 -31 -6 -55 7 -18 9 -23 13
-12 9 11 -4 36 -7 55 -7z m15 -65 c15 -6 10 -9 -24 -15 -28 -4 -48 -3 -55 4
-8 8 -4 10 17 5 17 -5 27 -3 27 4 0 12 7 13 35 2z m25 -124 c0 -5 -7 -1 -16 7
-8 9 -20 16 -25 16 -6 0 -8 4 -4 10 6 10 45 -18 45 -33z m-310 -37 c0 -5 -2
-10 -4 -10 -3 0 -8 5 -11 10 -3 6 -1 10 4 10 6 0 11 -4 11 -10z m6190 -2260
c0 -5 -5 -10 -11 -10 -5 0 -7 5 -4 10 3 6 8 10 11 10 2 0 4 -4 4 -10z m-58
-35 c3 -3 3 -17 0 -30 -4 -21 -10 -25 -41 -25 -47 0 -53 6 -39 36 8 18 19 24
43 24 17 0 34 -2 37 -5z m58 -20 c0 -16 -6 -25 -15 -25 -16 0 -19 9 -9 34 9
25 24 19 24 -9z m-200 -10 c0 -8 -4 -15 -9 -15 -13 0 -22 16 -14 24 11 11 23
6 23 -9z m270 -20 c0 -8 -7 -15 -15 -15 -16 0 -20 12 -8 23 11 12 23 8 23 -8z
m206 -57 c-11 -15 -16 -18 -16 -7 0 16 21 42 28 34 2 -2 -3 -14 -12 -27z m-76
2 c0 -19 -5 -21 -70 -18 -95 3 -96 22 0 27 24 1 46 4 49 7 11 10 21 2 21 -16z
m-89 -121 c-6 -24 -9 -28 -10 -12 -1 24 9 56 16 50 2 -3 0 -20 -6 -38z m106
-71 c-3 -8 -6 -5 -6 6 -1 11 2 17 5 13 3 -3 4 -12 1 -19z m-103 -19 c14 2 17
-2 13 -13 -4 -10 -1 -16 8 -16 17 0 20 -26 5 -35 -5 -3 -10 -1 -10 6 0 10 -3
10 -12 1 -16 -16 -48 -15 -48 2 0 8 -7 16 -15 20 -13 5 -13 8 2 25 9 11 21 17
27 13 6 -3 20 -5 30 -3z m606 7 c0 -3 -4 -8 -10 -11 -5 -3 -10 -1 -10 4 0 6 5
11 10 11 6 0 10 -2 10 -4z m-505 -23 c-2 -10 -4 -24 -4 -30 -1 -7 -8 -13 -16
-13 -17 0 -18 4 -9 38 7 26 34 30 29 5z m-195 -13 c0 -11 -7 -20 -15 -20 -13
0 -14 4 -5 20 6 11 13 20 15 20 3 0 5 -9 5 -20z m64 -75 c-4 -8 -8 -15 -10
-15 -2 0 -4 7 -4 15 0 8 4 15 10 15 5 0 7 -7 4 -15z m196 -12 c0 -15 17 -17
22 -4 3 9 319 -5 348 -16 8 -3 34 -5 58 -4 42 3 42 2 40 -30 -1 -18 2 -34 7
-36 6 -2 9 -21 7 -43 -2 -22 0 -40 4 -40 11 0 11 -107 0 -137 -5 -16 -3 -23 5
-23 14 0 59 -46 59 -61 0 -5 -1 -12 -2 -16 -2 -4 11 -11 27 -14 29 -6 29 -7 4
-8 -26 -1 -44 -22 -32 -35 4 -3 20 -6 37 -7 17 0 25 -3 19 -6 -10 -3 -10 -8 1
-19 16 -16 30 -19 21 -5 -3 5 -1 12 5 16 5 3 10 2 10 -3 0 -5 15 -12 32 -16
25 -5 36 -2 45 11 12 16 13 16 13 0 0 -10 12 -22 28 -29 28 -11 36 -12 137
-22 33 -3 75 -8 93 -11 29 -4 32 -2 32 20 0 14 5 25 10 25 6 0 10 -7 10 -15 0
-8 7 -15 16 -15 11 0 14 5 10 16 -5 12 -2 15 11 9 10 -4 33 -9 51 -12 26 -5
33 -3 30 8 -4 19 5 22 52 14 29 -5 40 -12 40 -25 0 -19 26 -30 78 -30 18 0 33
-5 34 -12 0 -7 2 -19 2 -27 1 -8 13 -15 29 -17 15 -1 36 -5 47 -9 18 -6 20 -2
20 38 l0 44 33 -6 c31 -5 31 -6 5 -9 -31 -4 -38 -21 -10 -23 16 -1 16 -2 0 -6
-10 -2 -18 -11 -18 -18 0 -9 6 -12 17 -8 12 5 14 3 8 -7 -6 -10 -4 -12 8 -7
10 4 17 1 17 -6 0 -9 3 -8 9 1 7 11 9 11 14 -2 4 -10 1 -16 -7 -16 -8 0 -16
-8 -19 -17 -2 -10 -8 -25 -12 -35 -4 -11 0 -18 14 -23 12 -3 21 -13 21 -21 0
-8 -5 -12 -11 -8 -7 4 -10 -7 -9 -32 3 -55 3 -55 -26 -44 -25 10 -25 9 -22
-33 3 -39 5 -42 35 -45 17 -2 37 -10 45 -19 11 -14 10 -15 -7 -10 -72 20 -75
19 -75 -12 0 -23 4 -29 15 -25 10 4 15 0 15 -11 0 -9 5 -13 10 -10 6 3 10 2
10 -4 0 -6 -11 -13 -24 -17 -20 -5 -24 -12 -23 -37 2 -24 6 -31 20 -29 23 4
22 -10 -3 -26 -28 -17 -25 -46 8 -61 15 -8 34 -17 42 -21 8 -4 15 -16 15 -26
0 -16 -6 -18 -40 -15 -22 1 -48 7 -59 13 -10 5 -35 7 -55 4 -28 -4 -32 -3 -16
4 16 8 11 9 -20 5 -25 -3 -35 -1 -26 4 18 12 -40 25 -71 16 -16 -4 -19 -3 -10
3 10 7 4 11 -20 15 -55 11 -110 24 -173 42 -33 9 -91 23 -130 30 -38 7 -128
25 -200 39 -71 14 -132 26 -134 26 -2 0 -1 15 3 33 9 48 10 226 2 234 -4 4
-25 7 -47 7 -21 -1 -39 2 -39 7 0 4 -17 7 -37 5 -21 -2 -43 0 -49 5 -5 4 -32
10 -60 13 -62 5 -173 26 -199 37 -11 4 -38 10 -60 13 -157 20 -158 21 -170 28
-6 3 -26 6 -46 6 -21 0 -47 3 -59 7 -19 6 -21 11 -14 58 4 29 8 66 8 82 1 23
6 29 19 27 13 -2 17 4 17 28 0 21 -5 30 -17 31 -17 1 -17 2 0 6 21 6 23 23 1
23 -8 0 -12 5 -9 10 4 6 11 8 16 5 5 -4 9 1 9 9 0 9 -3 15 -7 13 -5 -1 -8 3
-8 8 0 6 3 9 8 8 4 -2 7 12 7 31 0 28 -4 35 -22 38 -21 3 -21 4 -4 21 12 11
16 26 12 41 -3 13 -2 26 2 30 7 8 8 13 11 41 1 9 11 15 27 15 14 0 23 4 19 9
-3 5 -1 12 5 16 16 10 12 33 -7 38 -14 4 -13 5 4 6 12 0 24 -5 26 -11 3 -7 6
1 6 18 1 16 -4 35 -10 41 -9 9 -3 11 25 10 21 -1 36 -7 36 -14z m-215 -63 c3
-5 1 -10 -4 -10 -6 0 -11 5 -11 10 0 6 2 10 4 10 3 0 8 -4 11 -10z m-315 -240
c0 -5 -5 -10 -11 -10 -5 0 -7 5 -4 10 3 6 8 10 11 10 2 0 4 -4 4 -10z m-3 -72
c-3 -8 -6 -5 -6 6 -1 11 2 17 5 13 3 -3 4 -12 1 -19z m-1887 -57 c0 -6 -4 -13
-10 -16 -5 -3 -10 1 -10 9 0 9 5 16 10 16 6 0 10 -4 10 -9z m2997 -27 c-3 -3
-12 -4 -19 -1 -8 3 -5 6 6 6 11 1 17 -2 13 -5z m513 -37 c8 -3 0 -6 -19 -6
-29 -1 -32 1 -21 14 7 9 16 12 19 7 3 -5 13 -12 21 -15z m-1570 -62 c0 -8 -3
-16 -7 -18 -5 -3 -8 5 -8 18 0 13 3 21 8 18 4 -2 7 -10 7 -18z m-760 -117
c119 -75 241 -162 286 -204 39 -37 44 -46 44 -86 0 -53 -13 -68 -57 -68 -49 0
-40 -17 13 -25 l45 -6 -24 -32 c-25 -33 -72 -65 -96 -66 -10 -1 -7 6 8 20 12
12 20 24 16 27 -3 4 -9 2 -13 -4 -4 -6 -18 -15 -32 -19 -14 -4 -33 -14 -43
-23 -9 -8 -20 -12 -24 -8 -4 4 3 16 17 27 20 16 21 18 5 13 -11 -4 -25 -13
-32 -21 -6 -8 -16 -12 -22 -8 -6 3 -11 1 -11 -4 0 -6 5 -11 10 -11 6 0 10 -5
10 -12 0 -9 -3 -9 -12 0 -8 8 -15 9 -25 0 -7 -6 -16 -9 -18 -6 -11 11 73 85
127 113 l56 29 -68 63 c-38 35 -93 80 -122 100 -219 148 -248 184 -192 240 33
33 64 27 154 -29z m2777 -40 c-3 -7 -5 -2 -5 12 0 14 2 19 5 13 2 -7 2 -19 0
-25z m-1827 12 c0 -5 -2 -10 -4 -10 -3 0 -8 5 -11 10 -3 6 -1 10 4 10 6 0 11
-4 11 -10z m-4590 -135 c22 -26 8 -50 -30 -50 -19 0 -38 -4 -42 -10 -10 -12
-28 12 -28 37 0 34 76 52 100 23z m3450 11 c0 -2 -7 -6 -15 -10 -8 -3 -15 -1
-15 4 0 6 7 10 15 10 8 0 15 -2 15 -4z m-4023 -12 c-3 -3 -12 -4 -19 -1 -8 3
-5 6 6 6 11 1 17 -2 13 -5z m3983 -4 c0 -5 -3 -10 -7 -10 -5 0 -19 -3 -33 -6
-24 -6 -25 -6 -5 9 23 19 45 22 45 7z m-4943 -186 c-3 -3 -12 -4 -19 -1 -8 3
-5 6 6 6 11 1 17 -2 13 -5z m-97 -14 c0 -5 -2 -10 -4 -10 -3 0 -8 5 -11 10 -3
6 -1 10 4 10 6 0 11 -4 11 -10z m25 -30 c3 -5 -1 -10 -10 -10 -9 0 -13 5 -10
10 3 6 8 10 10 10 2 0 7 -4 10 -10z m80 -51 c11 -16 1 -19 -13 -3 -7 8 -8 14
-3 14 5 0 13 -5 16 -11z m5519 -13 c-18 -14 -18 -15 -1 -21 9 -4 30 -5 46 -3
22 3 31 0 34 -14 4 -15 2 -16 -15 -7 -10 6 -33 7 -51 3 l-31 -6 27 -15 c29
-15 37 -26 12 -17 -9 4 -15 0 -15 -7 0 -11 -3 -11 -10 1 -7 10 -10 11 -10 2 0
-20 -49 -34 -139 -38 -73 -3 -82 -2 -71 11 7 8 17 15 22 15 5 0 24 11 41 24
42 31 148 86 166 86 11 0 9 -4 -5 -14z m-5594 -25 c0 -5 -10 -13 -22 -17 -13
-4 -26 -12 -30 -18 -5 -6 -8 -2 -8 11 0 20 13 29 48 32 6 0 12 -3 12 -8z
m5715 -51 c-3 -5 -14 -10 -23 -10 -15 0 -15 2 -2 10 20 13 33 13 25 0z m-478
-16 c-3 -3 -12 -4 -19 -1 -8 3 -5 6 6 6 11 1 17 -2 13 -5z m-5220 -40 c-24
-16 -45 -23 -57 -19 -28 9 -26 33 3 28 12 -2 33 0 47 6 43 17 46 12 7 -15z
m-80 -66 c-3 -7 -5 -2 -5 12 0 14 2 19 5 13 2 -7 2 -19 0 -25z m37 -31 c7 -7
11 -17 9 -24 -3 -8 -11 -5 -24 8 -10 10 -19 21 -19 24 0 10 22 5 34 -8z m5726
-27 c0 -4 -7 -10 -15 -14 -10 -4 -15 1 -15 14 0 13 5 18 15 14 8 -4 15 -10 15
-14z m34 -14 c-10 -8 -21 -12 -23 -10 -3 2 4 11 15 18 10 8 21 12 23 10 3 -2
-4 -11 -15 -18z m-624 -16 c0 -5 -5 -10 -11 -10 -5 0 -7 5 -4 10 3 6 8 10 11
10 2 0 4 -4 4 -10z m-5033 -37 c-9 -2 -14 -9 -10 -15 4 -8 0 -9 -11 -5 -10 4
-23 7 -29 8 -20 1 27 18 48 17 17 0 17 -1 2 -5z m5073 -3 c0 -5 -4 -10 -10
-10 -5 0 -10 5 -10 10 0 6 5 10 10 10 6 0 10 -4 10 -10z m125 0 c-3 -5 -12
-10 -18 -10 -7 0 -6 4 3 10 19 12 23 12 15 0z m-5235 -54 c0 -2 -7 -7 -16 -10
-8 -3 -12 -2 -9 4 6 10 25 14 25 6z m5265 -6 c3 -5 -1 -10 -10 -10 -9 0 -13 5
-10 10 3 6 8 10 10 10 2 0 7 -4 10 -10z m-175 -24 c0 -3 -4 -8 -10 -11 -5 -3
-10 -1 -10 4 0 6 5 11 10 11 6 0 10 -2 10 -4z m60 -26 c0 -10 -22 -24 -64 -40
-34 -12 -26 9 12 32 31 19 52 22 52 8z m485 -29 c-3 -6 -11 -11 -17 -11 -6 0
-6 6 2 15 14 17 26 13 15 -4z m-50 -5 c12 -12 10 -18 -15 -40 -17 -14 -30 -23
-30 -19 0 5 -10 -4 -23 -18 -12 -14 -28 -24 -34 -22 -7 3 -13 -2 -13 -11 0 -9
-7 -16 -15 -16 -9 0 -29 -13 -44 -29 -25 -26 -55 -45 -132 -86 -11 -5 -19 -18
-19 -27 0 -10 -7 -18 -16 -18 -9 0 -12 -5 -8 -12 6 -10 4 -10 -7 -2 -27 21
-76 33 -88 21 -19 -19 -12 -28 15 -21 20 5 25 3 22 -7 -2 -7 -32 -23 -66 -35
-70 -24 -109 -58 -104 -92 2 -12 -1 -22 -7 -22 -6 0 -12 -8 -12 -17 -1 -17 -2
-17 -6 -1 -6 22 -22 23 -30 2 -5 -13 -7 -13 -14 -2 -7 10 -12 8 -24 -9 -9 -13
-25 -23 -36 -23 -21 0 -27 20 -6 20 7 1 4 6 -6 15 -18 13 -18 14 1 32 37 33
51 43 61 43 6 0 16 9 23 20 7 11 18 20 24 20 7 0 36 16 65 36 30 20 64 40 77
45 12 5 22 12 22 17 0 5 12 14 26 21 14 6 42 25 63 41 24 20 44 28 55 24 11
-4 16 -2 14 6 -2 7 13 21 32 32 19 11 44 28 55 38 11 10 32 22 47 25 14 4 34
15 44 26 9 10 20 16 25 13 4 -2 16 7 25 21 18 28 39 32 59 11z m-5495 -103 c0
-5 -7 -17 -15 -27 -15 -20 -15 -20 -15 0 0 12 3 24 7 27 9 9 23 9 23 0z m-80
-47 c0 -8 5 -16 12 -18 16 -6 0 -28 -20 -28 -15 0 -15 2 -2 11 11 8 12 12 3
16 -15 6 -17 33 -3 33 6 0 10 -6 10 -14z m-70 -6 c0 -5 -2 -10 -4 -10 -3 0 -8
5 -11 10 -3 6 -1 10 4 10 6 0 11 -4 11 -10z m27 -24 c-18 -14 -18 -14 0 -19
14 -4 14 -5 -4 -6 -27 -1 -30 14 -5 28 25 15 30 13 9 -3z m1503 -3 c1 -40 12
-141 21 -192 5 -30 9 -76 9 -102 0 -47 -1 -48 -44 -64 -76 -29 -81 -23 -78 80
1 50 5 126 8 170 4 44 6 88 6 97 -1 17 15 25 56 27 15 1 22 -5 22 -16z m-1563
-15 c-3 -8 -6 -5 -6 6 -1 11 2 17 5 13 3 -3 4 -12 1 -19z m416 -63 c-3 -8 -9
-15 -14 -15 -10 0 -12 24 -3 33 11 11 24 -3 17 -18z m972 -25 c-3 -5 -11 -10
-16 -10 -6 0 -7 5 -4 10 3 6 11 10 16 10 6 0 7 -4 4 -10z m-55 -19 c-8 -5 -26
-11 -40 -15 -21 -5 -20 -3 5 9 32 15 60 20 35 6z m-130 -40 c-8 -5 -26 -11
-40 -15 -21 -5 -20 -3 5 9 32 15 60 20 35 6z m4080 -1 c0 -5 -4 -10 -10 -10
-5 0 -10 5 -10 10 0 6 5 10 10 10 6 0 10 -4 10 -10z m-4750 -20 c0 -5 -2 -10
-4 -10 -3 0 -8 5 -11 10 -3 6 -1 10 4 10 6 0 11 -4 11 -10z m3247 -6 c-3 -3
-12 -4 -19 -1 -8 3 -5 6 6 6 11 1 17 -2 13 -5z m-3367 -14 c0 -5 -4 -10 -10
-10 -5 0 -10 5 -10 10 0 6 5 10 10 10 6 0 10 -4 10 -10z m200 -11 c0 -5 -4 -9
-10 -9 -5 0 -10 7 -10 16 0 8 5 12 10 9 6 -3 10 -10 10 -16z m1401 -5 c-35
-14 -65 -23 -68 -21 -5 6 98 46 117 46 8 0 -14 -11 -49 -25z m3174 -4 c-3 -5
-12 -10 -18 -10 -7 0 -6 4 3 10 19 12 23 12 15 0z m-1570 -20 c3 -5 -1 -10
-10 -10 -9 0 -13 5 -10 10 3 6 8 10 10 10 2 0 7 -4 10 -10z m-1728 -21 c-9 -5
-41 -18 -70 -28 -99 -34 -252 -92 -285 -107 -18 -8 -40 -14 -48 -12 -8 2 63
32 158 67 95 35 187 70 203 77 37 17 69 19 42 3z m3303 -3 c0 -2 -7 -7 -16
-10 -8 -3 -12 -2 -9 4 6 10 25 14 25 6z m-263 -28 c-3 -8 -6 -5 -6 6 -1 11 2
17 5 13 3 -3 4 -12 1 -19z m-2457 -2 c0 -2 -7 -6 -15 -10 -8 -3 -15 -1 -15 4
0 6 7 10 15 10 8 0 15 -2 15 -4z m2477 -32 c8 -23 -78 -90 -99 -78 -7 4 -8 3
-4 -5 5 -7 -4 -16 -26 -23 -40 -14 -41 -14 -50 18 -7 28 9 54 35 54 26 0 117
33 117 42 0 12 23 5 27 -8z m-4717 -58 c-7 -7 -10 1 -9 25 0 32 1 33 10 10 6
-16 6 -28 -1 -35z m5140 -30 c0 -2 -8 -10 -17 -17 -16 -13 -17 -12 -4 4 13 16
21 21 21 13z m182 -11 c0 -19 -49 -47 -71 -40 -26 8 -19 21 22 39 35 16 48 16
49 1z m-157 -25 c3 -6 -1 -7 -9 -4 -18 7 -21 14 -7 14 6 0 13 -4 16 -10z
m-5095 -14 c0 -3 -4 -8 -10 -11 -5 -3 -10 -1 -10 4 0 6 5 11 10 11 6 0 10 -2
10 -4z"/>
<path d="M6712 2295 c4 -4 2 -15 -5 -23 -8 -11 -8 -14 0 -9 6 4 14 1 16 -5 3
-7 6 -3 6 9 1 12 -5 25 -11 29 -7 4 -10 4 -6 -1z"/>
<path d="M6612 2235 c0 -11 3 -29 8 -40 l9 -20 0 20 c1 17 3 18 12 5 7 -10 9
-11 7 -2 -2 8 -8 13 -13 12 -6 -1 -13 9 -17 22 -5 20 -6 20 -6 3z"/>
<path d="M6650 2229 c0 -5 5 -7 10 -4 6 3 10 8 10 11 0 2 -4 4 -10 4 -5 0 -10
-5 -10 -11z"/>
<path d="M6694 2227 c-8 -21 -3 -29 13 -19 8 5 9 13 3 22 -7 12 -10 12 -16 -3z"/>
<path d="M6698 2183 c7 -3 16 -2 19 1 4 3 -2 6 -13 5 -11 0 -14 -3 -6 -6z"/>
<path d="M6941 2174 c0 -11 3 -14 6 -6 3 7 2 16 -1 19 -3 4 -6 -2 -5 -13z"/>
<path d="M6537 2160 c-6 -23 11 -40 40 -40 18 0 23 6 23 25 0 14 -6 25 -12 26
-7 0 -20 2 -30 4 -9 2 -18 -5 -21 -15z m40 -22 c-3 -8 -6 -5 -6 6 -1 11 2 17
5 13 3 -3 4 -12 1 -19z"/>
<path d="M7001 2164 c0 -11 3 -14 6 -6 3 7 2 16 -1 19 -3 4 -6 -2 -5 -13z"/>
<path d="M6771 2135 c0 -16 3 -24 6 -17 2 6 16 12 31 12 29 0 27 6 -3 12 -11
1 -23 8 -27 13 -4 6 -7 -3 -7 -20z"/>
<path d="M7070 2150 c0 -5 5 -10 10 -10 6 0 10 5 10 10 0 6 -4 10 -10 10 -5 0
-10 -4 -10 -10z"/>
<path d="M6880 2132 c0 -6 -8 -13 -17 -15 -16 -4 -16 -5 -1 -6 18 -1 34 16 24
26 -3 4 -6 1 -6 -5z"/>
<path d="M7033 2103 c-15 -6 -17 -43 -3 -43 6 0 10 7 10 15 0 8 5 15 10 15 6
0 10 5 10 10 0 11 -7 12 -27 3z"/>
<path d="M7050 2070 c0 -5 6 -10 14 -10 8 0 18 5 21 10 3 6 -3 10 -14 10 -12
0 -21 -4 -21 -10z"/>
<path d="M6863 2053 c-17 -6 -16 -21 2 -39 8 -9 15 -14 16 -12 9 38 2 58 -18
51z"/>
<path d="M6530 2001 c0 -29 3 -31 36 -31 33 0 35 2 32 28 -2 22 -8 28 -35 30
-31 3 -33 1 -33 -27z"/>
<path d="M6991 2014 c0 -11 3 -14 6 -6 3 7 2 16 -1 19 -3 4 -6 -2 -5 -13z"/>
<path d="M6770 1984 c0 -6 7 -11 15 -11 8 0 15 4 15 8 0 4 8 10 18 12 9 2 2 4
-15 3 -18 0 -33 -6 -33 -12z"/>
<path d="M6851 1983 c-1 -6 4 -15 10 -19 13 -8 36 13 25 23 -4 4 -11 1 -15 -6
-7 -11 -10 -11 -14 0 -3 9 -6 10 -6 2z"/>
<path d="M6905 1970 c-3 -5 -1 -10 4 -10 6 0 11 5 11 10 0 6 -2 10 -4 10 -3 0
-8 -4 -11 -10z"/>
<path d="M7083 1935 c0 -22 2 -30 4 -17 2 12 2 30 0 40 -3 9 -5 -1 -4 -23z"/>
<path d="M6620 1939 c0 -5 4 -8 9 -5 5 4 11 0 14 -6 2 -7 8 -9 13 -5 5 4 2 12
-6 17 -20 13 -30 12 -30 -1z"/>
<path d="M6880 1939 c0 -5 10 -9 22 -9 12 0 18 3 14 7 -10 11 -36 12 -36 2z"/>
<path d="M6700 1921 c-14 -27 -13 -34 4 -28 10 4 13 1 10 -8 -4 -9 1 -13 15
-12 21 1 30 17 10 17 -5 0 -7 5 -4 10 3 6 -1 17 -9 25 -13 14 -16 13 -26 -4z"/>
<path d="M7020 1914 c0 -8 5 -12 10 -9 6 4 8 11 5 16 -9 14 -15 11 -15 -7z"/>
<path d="M6618 1913 c6 -2 12 -11 12 -19 0 -8 9 -14 20 -14 11 0 19 6 18 13
-3 14 -25 26 -48 26 -10 -1 -11 -2 -2 -6z"/>
<path d="M6548 1873 c6 -2 18 -2 25 0 6 3 1 5 -13 5 -14 0 -19 -2 -12 -5z"/>
<path d="M6606 1863 c-2 -2 -1 -15 2 -28 3 -21 10 -25 36 -24 30 1 30 1 6 9
-14 4 -19 8 -12 9 21 2 14 37 -8 37 -12 0 -22 -2 -24 -3z"/>
<path d="M6571 1834 c0 -11 3 -14 6 -6 3 7 2 16 -1 19 -3 4 -6 -2 -5 -13z"/>
<path d="M6738 1827 c-3 -19 -2 -25 4 -19 6 6 8 18 6 28 -3 14 -5 12 -10 -9z"/>
<path d="M7145 1830 c-3 -5 -1 -10 4 -10 6 0 11 5 11 10 0 6 -2 10 -4 10 -3 0
-8 -4 -11 -10z"/>
<path d="M6770 1819 c0 -5 5 -7 10 -4 6 3 10 8 10 11 0 2 -4 4 -10 4 -5 0 -10
-5 -10 -11z"/>
<path d="M6821 1794 c0 -11 3 -14 6 -6 3 7 2 16 -1 19 -3 4 -6 -2 -5 -13z"/>
<path d="M6532 1780 c0 -14 2 -19 5 -12 2 6 2 18 0 25 -3 6 -5 1 -5 -13z"/>
<path d="M6570 1770 c0 -19 3 -21 12 -12 9 9 9 15 0 24 -9 9 -12 7 -12 -12z"/>
<path d="M6635 1780 c-6 -9 15 -50 26 -50 3 0 6 7 6 15 0 8 -6 15 -14 15 -7 0
-13 5 -13 11 0 5 5 7 10 4 6 -3 10 -1 10 4 0 14 -17 14 -25 1z"/>
<path d="M6950 1780 c0 -12 8 -12 35 0 18 8 17 9 -7 9 -16 1 -28 -3 -28 -9z"/>
<path d="M7305 1770 c3 -5 14 -10 23 -10 15 0 15 2 2 10 -20 13 -33 13 -25 0z"/>
<path d="M6610 1740 c0 -5 5 -10 11 -10 5 0 7 5 4 10 -3 6 -8 10 -11 10 -2 0
-4 -4 -4 -10z"/>
<path d="M7712 1744 c10 -9 58 -12 52 -3 -3 5 -17 9 -31 9 -15 0 -24 -3 -21
-6z"/>
<path d="M6530 1711 c0 -31 13 -41 43 -33 10 3 17 14 17 29 0 15 -5 23 -12 20
-7 -2 -21 0 -30 5 -15 7 -18 4 -18 -21z"/>
<path d="M6797 1727 c-3 -8 1 -14 9 -14 16 0 19 13 5 21 -5 3 -11 0 -14 -7z"/>
<path d="M7480 1725 c0 -8 4 -15 8 -15 5 0 9 7 9 15 0 8 -4 15 -9 15 -4 0 -8
-7 -8 -15z"/>
<path d="M7865 1730 c-3 -5 -1 -10 4 -10 6 0 11 5 11 10 0 6 -2 10 -4 10 -3 0
-8 -4 -11 -10z"/>
<path d="M7513 1705 c0 -8 4 -12 9 -9 5 3 6 10 3 15 -9 13 -12 11 -12 -6z"/>
<path d="M6688 1703 c-7 -13 7 -59 14 -47 8 11 5 40 -4 49 -3 4 -8 3 -10 -2z"/>
<path d="M6742 1675 c0 -16 2 -22 5 -12 2 9 2 23 0 30 -3 6 -5 -1 -5 -18z"/>
<path d="M7167 1685 c-4 -8 -2 -17 3 -20 6 -4 10 3 10 14 0 25 -6 27 -13 6z"/>
<path d="M6793 1683 c14 -4 18 -12 14 -29 -5 -29 9 -32 18 -4 8 27 -1 40 -28
39 -18 -1 -19 -2 -4 -6z"/>
<path d="M7901 1674 c0 -11 3 -14 6 -6 3 7 2 16 -1 19 -3 4 -6 -2 -5 -13z"/>
<path d="M7920 1681 c0 -5 11 -12 25 -15 14 -4 25 -11 25 -17 0 -6 -7 -9 -15
-5 -8 3 -15 1 -15 -4 0 -6 5 -10 11 -10 7 0 18 -8 26 -17 12 -16 13 -14 11 20
-2 20 -7 38 -13 38 -5 1 -20 5 -32 10 -13 5 -23 5 -23 0z"/>
<path d="M6880 1670 c0 -5 -7 -7 -15 -4 -11 5 -13 2 -9 -10 3 -9 11 -16 18
-17 6 0 2 -4 -9 -9 -16 -7 -14 -8 12 -7 31 2 48 17 21 17 -10 0 -9 3 1 9 7 5
10 14 7 20 -9 14 -26 15 -26 1z"/>
<path d="M6765 1650 c3 -5 8 -10 11 -10 2 0 4 5 4 10 0 6 -5 10 -11 10 -5 0
-7 -4 -4 -10z"/>
<path d="M7490 1649 c0 -5 5 -7 10 -4 6 3 10 8 10 11 0 2 -4 4 -10 4 -5 0 -10
-5 -10 -11z"/>
<path d="M8087 1643 c3 -7 6 -13 8 -13 2 0 5 6 8 13 3 8 -1 14 -8 14 -7 0 -11
-6 -8 -14z"/>
<path d="M7420 1636 c0 -8 -6 -17 -12 -19 -8 -3 -6 -6 5 -6 11 -1 17 6 17 19
0 11 -2 20 -5 20 -3 0 -5 -6 -5 -14z"/>
<path d="M7610 1600 c0 -5 9 -14 20 -20 22 -12 27 -1 8 18 -14 14 -28 16 -28
2z"/>
<path d="M8065 1600 c3 -5 8 -10 11 -10 2 0 4 5 4 10 0 6 -5 10 -11 10 -5 0
-7 -4 -4 -10z"/>
<path d="M7298 1593 c7 -3 16 -2 19 1 4 3 -2 6 -13 5 -11 0 -14 -3 -6 -6z"/>
<path d="M7347 1593 c-12 -11 -8 -23 8 -23 8 0 15 7 15 15 0 16 -12 20 -23 8z"/>
<path d="M7230 1575 c0 -2 7 -8 15 -15 12 -10 15 -10 15 2 0 8 -7 15 -15 15
-8 0 -15 -1 -15 -2z"/>
<path d="M7500 1570 c-12 -7 -10 -9 8 -7 12 0 22 5 22 9 0 11 -12 10 -30 -2z"/>
<path d="M7284 1559 c-6 -10 59 -18 69 -9 5 4 -8 10 -28 12 -20 2 -38 1 -41
-3z"/>
<path d="M7515 1538 c11 -6 23 -16 27 -22 4 -6 10 -8 13 -4 9 9 -24 38 -43 38
-14 -1 -14 -3 3 -12z"/>
<path d="M7328 1496 c-4 -21 0 -26 36 -35 92 -23 96 -23 96 -1 0 13 -7 20 -18
20 -11 0 -24 10 -30 23 -8 16 -11 18 -11 5 -1 -9 -7 -19 -13 -21 -8 -3 -6 -6
5 -6 9 -1 17 -5 17 -10 0 -10 -39 -3 -57 11 -6 5 -9 16 -6 24 3 8 1 14 -5 14
-5 0 -12 -11 -14 -24z"/>
<path d="M7791 1504 c0 -11 3 -14 6 -6 3 7 2 16 -1 19 -3 4 -6 -2 -5 -13z"/>
<path d="M7826 1500 c-11 -3 -15 -9 -10 -13 10 -6 42 9 34 16 -3 3 -14 1 -24
-3z"/>
<path d="M7970 1490 c0 -5 5 -10 11 -10 5 0 7 5 4 10 -3 6 -8 10 -11 10 -2 0
-4 -4 -4 -10z"/>
<path d="M7780 1470 c0 -8 89 -24 96 -17 4 4 -12 8 -83 23 -7 1 -13 -1 -13 -6z"/>
<path d="M8080 1460 c0 -11 2 -20 4 -20 2 0 6 9 9 20 3 11 1 20 -4 20 -5 0 -9
-9 -9 -20z"/>
<path d="M7970 1460 c0 -5 5 -10 10 -10 6 0 10 5 10 10 0 6 -4 10 -10 10 -5 0
-10 -4 -10 -10z"/>
<path d="M7680 1450 c0 -5 5 -10 11 -10 5 0 7 5 4 10 -3 6 -8 10 -11 10 -2 0
-4 -4 -4 -10z"/>
<path d="M7293 1420 c0 -22 5 -30 18 -30 9 0 24 -3 33 -6 9 -3 16 -1 16 5 0 6
-9 11 -20 11 -11 0 -19 3 -18 8 2 11 -13 42 -21 42 -4 0 -8 -13 -8 -30z"/>
<path d="M7745 1440 c4 -6 -6 -10 -23 -10 -18 0 -32 -6 -36 -16 -8 -21 -9 -20
40 -28 l41 -7 0 35 c0 24 -5 36 -14 36 -8 0 -11 -4 -8 -10z"/>
<path d="M7332 1428 c3 -7 13 -15 24 -17 16 -3 17 -1 5 13 -16 19 -34 21 -29
4z"/>
<path d="M7581 1424 c0 -11 3 -14 6 -6 3 7 2 16 -1 19 -3 4 -6 -2 -5 -13z"/>
<path d="M8050 1433 c0 -7 32 -32 43 -33 17 0 5 18 -18 28 -14 6 -25 9 -25 5z"/>
<path d="M7390 1426 c0 -2 7 -6 15 -10 8 -3 15 -1 15 4 0 6 -7 10 -15 10 -8 0
-15 -2 -15 -4z"/>
<path d="M7433 1417 c6 -16 3 -18 -22 -12 -26 6 -29 4 -24 -14 6 -22 53 -31
53 -10 0 5 5 7 10 4 17 -11 11 22 -7 36 -15 12 -16 12 -10 -4z"/>
<path d="M7891 1425 c0 -5 4 -19 9 -30 7 -17 9 -17 9 -2 1 9 5 17 10 17 5 0 9
-6 8 -12 0 -7 1 -22 2 -33 3 -17 4 -17 11 5 l8 25 1 -29 c1 -23 4 -26 15 -17
11 9 15 9 19 -1 3 -7 6 4 6 25 1 34 -1 37 -29 39 -52 2 -55 3 -62 13 -5 7 -8
7 -7 0z"/>
<path d="M7525 1377 c-17 -13 -16 -14 5 -12 13 1 26 7 28 13 5 16 -10 15 -33
-1z"/>
<path d="M7580 1366 c0 -19 4 -24 20 -21 11 2 20 1 20 -3 0 -4 9 -13 19 -19
17 -11 19 -9 19 22 0 26 -5 35 -21 39 -43 11 -57 7 -57 -18z"/>
<path d="M7678 1368 c-3 -7 -3 -19 -1 -25 5 -15 33 -17 33 -3 0 6 -7 10 -16
10 -14 0 -14 3 -4 15 7 9 8 15 2 15 -5 0 -12 -6 -14 -12z"/>
<path d="M7895 1360 c4 -6 11 -8 16 -5 14 9 11 15 -7 15 -8 0 -12 -5 -9 -10z"/>
<path d="M7305 1350 c3 -5 18 -10 33 -10 21 0 24 2 12 10 -20 13 -53 13 -45 0z"/>
<path d="M7280 1334 c0 -10 48 -34 67 -34 7 0 13 6 13 14 0 8 -10 14 -22 13
-13 0 -31 3 -40 7 -10 5 -18 4 -18 0z"/>
<path d="M7390 1321 c0 -12 6 -21 13 -21 6 0 23 -3 35 -7 21 -5 23 -3 20 18
-2 19 -10 25 -35 27 -28 3 -33 0 -33 -17z"/>
<path d="M7476 1333 c-9 -9 -8 -53 2 -54 7 0 39 -6 64 -11 18 -4 23 51 6 56
-35 11 -66 15 -72 9z"/>
<path d="M7900 1326 c0 -9 5 -16 10 -16 6 0 10 4 10 9 0 6 -4 13 -10 16 -5 3
-10 -1 -10 -9z"/>
<path d="M7940 1305 c0 -14 -4 -25 -10 -25 -5 0 -10 5 -10 10 0 6 -4 10 -10
10 -20 0 -10 -28 13 -35 55 -18 65 -16 62 18 -2 18 -8 31 -14 30 -6 -2 -11 2
-11 7 0 6 -4 10 -10 10 -5 0 -10 -11 -10 -25z"/>
<path d="M8003 1298 c2 -28 17 -45 52 -58 44 -17 52 -11 17 10 -20 12 -32 26
-29 34 6 15 -11 36 -29 36 -7 0 -12 -10 -11 -22z"/>
<path d="M7580 1284 c0 -8 5 -12 10 -9 6 3 10 10 10 16 0 5 -4 9 -10 9 -5 0
-10 -7 -10 -16z"/>
<path d="M7621 1284 c0 -11 3 -14 6 -6 3 7 2 16 -1 19 -3 4 -6 -2 -5 -13z"/>
<path d="M7674 1266 c4 -30 49 -51 76 -34 19 12 28 38 13 38 -5 1 -27 5 -50 9
-40 8 -42 7 -39 -13z"/>
<path d="M7791 1238 c0 -13 3 -17 6 -10 2 6 11 12 19 12 9 0 12 5 9 10 -12 19
-35 10 -34 -12z"/>
<path d="M7845 1250 c-3 -6 1 -17 9 -26 15 -14 16 -14 16 5 0 23 -16 36 -25
21z"/>
<path d="M7890 1226 c0 -23 22 -51 32 -41 3 3 17 1 31 -4 21 -8 26 -7 30 10 3
10 1 19 -4 19 -5 0 -9 6 -9 14 0 7 -14 16 -31 20 -47 9 -49 8 -49 -18z"/>
<path d="M5591 554 c0 -11 3 -14 6 -6 3 7 2 16 -1 19 -3 4 -6 -2 -5 -13z"/>
<path d="M5300 380 c0 -5 5 -10 11 -10 5 0 7 5 4 10 -3 6 -8 10 -11 10 -2 0
-4 -4 -4 -10z"/>
<path d="M728 5643 c7 -3 16 -2 19 1 4 3 -2 6 -13 5 -11 0 -14 -3 -6 -6z"/>
<path d="M930 5431 c0 -12 5 -21 10 -21 6 0 10 6 10 14 0 8 -4 18 -10 21 -5 3
-10 -3 -10 -14z"/>
<path d="M934 5366 c1 -31 5 -40 21 -42 18 -2 18 -2 3 10 -9 6 -18 25 -21 41
-4 22 -4 20 -3 -9z"/>
<path d="M722 5360 c0 -14 2 -19 5 -12 2 6 2 18 0 25 -3 6 -5 1 -5 -13z"/>
<path d="M801 5354 c0 -11 3 -14 6 -6 3 7 2 16 -1 19 -3 4 -6 -2 -5 -13z"/>
<path d="M248 5353 c7 -3 16 -2 19 1 4 3 -2 6 -13 5 -11 0 -14 -3 -6 -6z"/>
<path d="M595 5320 c3 -5 8 -10 11 -10 2 0 4 5 4 10 0 6 -5 10 -11 10 -5 0 -7
-4 -4 -10z"/>
<path d="M803 5295 c0 -22 2 -30 4 -17 2 12 2 30 0 40 -3 9 -5 -1 -4 -23z"/>
<path d="M830 5215 c0 -19 4 -35 9 -35 5 0 9 16 8 35 -3 46 -17 46 -17 0z"/>
<path d="M935 5240 c3 -5 8 -10 11 -10 2 0 4 5 4 10 0 6 -5 10 -11 10 -5 0 -7
-4 -4 -10z"/>
<path d="M626 5221 c-4 -5 -2 -12 3 -15 5 -4 12 -2 15 3 4 5 2 12 -3 15 -5 4
-12 2 -15 -3z"/>
<path d="M325 5180 c-3 -5 -1 -10 4 -10 6 0 11 5 11 10 0 6 -2 10 -4 10 -3 0
-8 -4 -11 -10z"/>
<path d="M631 5174 c0 -11 3 -14 6 -6 3 7 2 16 -1 19 -3 4 -6 -2 -5 -13z"/>
<path d="M537 5102 c-17 -4 -17 -5 3 -19 24 -17 30 -15 21 7 -3 9 -14 14 -24
12z"/>
<path d="M521 4953 c1 -49 3 -61 9 -43 12 36 12 98 0 105 -6 4 -10 -19 -9 -62z"/>
<path d="M8445 4780 c-3 -5 -18 -10 -32 -10 -15 0 -24 -3 -20 -6 9 -9 97 6 97
17 0 12 -37 12 -45 -1z"/>
<path d="M8432 4733 c-18 -2 -30 -8 -27 -13 2 -4 -1 -8 -8 -7 -6 0 -23 -1 -37
-2 l-25 -1 25 -13 c14 -8 24 -19 23 -25 -2 -8 8 -10 30 -6 76 13 77 13 77 44
0 18 -5 29 -12 28 -7 0 -28 -3 -46 -5z"/>
<path d="M8255 4684 c-9 -7 -15 -21 -12 -31 4 -16 5 -16 6 0 0 9 9 17 19 18
69 3 90 15 38 21 -19 2 -42 -2 -51 -8z"/>
<path d="M8174 4645 c-2 -27 3 -30 25 -16 12 8 12 12 2 25 -19 22 -26 20 -27
-9z"/>
<path d="M221 4644 c0 -11 3 -14 6 -6 3 7 2 16 -1 19 -3 4 -6 -2 -5 -13z"/>
<path d="M8397 4641 c-43 -10 -81 -19 -85 -20 -4 -1 -24 -6 -46 -12 -21 -6
-45 -8 -53 -5 -8 3 -11 1 -8 -4 4 -6 -6 -10 -22 -11 -65 -2 -76 -5 -80 -16 -2
-6 20 -23 50 -38 51 -24 55 -28 60 -67 4 -28 1 -46 -6 -51 -9 -7 -9 -10 1 -14
15 -6 16 -28 0 -52 -6 -10 -8 -27 -4 -37 13 -31 14 -98 2 -106 -8 -6 -6 -11 4
-18 12 -7 13 -13 3 -28 -8 -14 -8 -29 0 -61 7 -27 8 -45 2 -49 -15 -10 -13
-61 2 -66 10 -4 13 47 13 254 0 241 1 260 18 260 9 0 24 5 32 10 11 7 6 8 -17
4 -26 -5 -33 -3 -33 10 0 9 1 16 3 16 76 12 77 12 77 -8 0 -18 4 -19 53 -9 28
6 64 11 80 11 15 1 27 6 28 11 0 6 4 1 9 -10 8 -19 9 -19 9 3 1 21 -2 23 -29
17 -23 -5 -30 -3 -30 9 0 9 3 16 8 15 4 -1 17 2 30 6 17 6 22 15 22 41 0 19
-3 34 -7 33 -5 0 -43 -9 -86 -18z m13 -85 c0 -9 -16 -17 -41 -21 -47 -8 -62 1
-35 21 26 18 76 19 76 0z"/>
<path d="M222 4590 c0 -14 2 -19 5 -12 2 6 2 18 0 25 -3 6 -5 1 -5 -13z"/>
<path d="M133 4533 c9 -2 23 -2 30 0 6 3 -1 5 -18 5 -16 0 -22 -2 -12 -5z"/>
<path d="M222 4520 c0 -14 2 -19 5 -12 2 6 2 18 0 25 -3 6 -5 1 -5 -13z"/>
<path d="M600 4536 c0 -2 7 -7 16 -10 8 -3 12 -2 9 4 -6 10 -25 14 -25 6z"/>
<path d="M8180 4493 c0 -5 5 -15 10 -23 8 -12 10 -11 10 8 0 12 -4 22 -10 22
-5 0 -10 -3 -10 -7z"/>
<path d="M8484 4125 c0 -187 2 -262 3 -167 2 95 2 248 0 340 -1 92 -3 14 -3
-173z"/>
<path d="M8410 4043 c0 -168 3 -303 6 -300 11 11 14 607 3 607 -5 0 -9 -122
-9 -307z"/>
<path d="M8344 4140 c3 -111 8 -205 11 -208 3 -3 6 76 6 176 1 100 2 192 2
204 1 12 -4 23 -12 26 -10 3 -12 -34 -7 -198z"/>
<path d="M8280 4145 c0 -117 4 -185 10 -185 6 0 10 68 10 185 0 117 -4 185
-10 185 -6 0 -10 -68 -10 -185z"/>
<path d="M7817 4243 c-18 -5 -18 -5 0 -26 18 -20 17 -20 -2 -13 -11 5 -27 9
-35 9 -8 0 -18 5 -22 11 -5 7 -8 4 -8 -8 0 -13 -5 -17 -19 -13 -14 3 -18 1
-14 -9 4 -11 -2 -13 -28 -8 -24 4 -30 3 -20 -4 12 -9 12 -11 0 -15 -8 -2 -5
-3 6 -1 33 5 129 16 143 17 6 0 13 3 13 6 3 16 8 61 6 60 -1 -1 -10 -3 -20 -6z"/>
<path d="M1818 4222 c-22 -4 -23 -16 -3 -46 9 -13 15 -40 13 -61 l-2 -36 -54
4 c-30 3 -58 10 -62 17 -16 26 -22 -15 -28 -191 -7 -181 -4 -199 28 -199 8 0
23 -9 33 -20 9 -11 24 -20 33 -20 13 0 15 -19 13 -147 -1 -82 -6 -158 -10
-171 -6 -15 -3 -33 9 -57 17 -34 42 -47 42 -22 0 7 5 18 11 24 7 7 13 75 15
175 3 89 9 187 14 217 6 30 10 145 10 256 0 188 1 202 20 218 34 29 25 44 -34
56 -17 4 -39 5 -48 3z m-104 -331 c-5 -69 -10 -108 -12 -86 -5 49 10 257 16
231 2 -11 0 -76 -4 -145z m143 82 c-3 -10 -5 -2 -5 17 0 19 2 27 5 18 2 -10 2
-26 0 -35z m-108 -47 c-5 -6 -9 7 -8 35 l1 44 8 -35 c5 -20 5 -39 -1 -44z m95
-208 c-4 -101 -10 -172 -12 -158 -5 33 9 353 15 346 3 -3 1 -87 -3 -188z m-97
160 c-3 -8 -6 -5 -6 6 -1 11 2 17 5 13 3 -3 4 -12 1 -19z m80 -450 c-2 -13 -4
-3 -4 22 0 25 2 35 4 23 2 -13 2 -33 0 -45z"/>
<path d="M7570 4165 c0 -9 9 -15 21 -15 18 0 19 2 9 15 -7 8 -16 15 -21 15 -5
0 -9 -7 -9 -15z"/>
<path d="M7472 4148 c3 -7 13 -15 24 -17 16 -3 17 -1 5 13 -16 19 -34 21 -29
4z"/>
<path d="M7846 4092 c-4 -7 -16 -10 -27 -7 -10 4 -29 -1 -41 -9 -12 -9 -30
-16 -40 -16 -12 0 -21 -16 -32 -54 -9 -30 -16 -59 -16 -65 0 -17 29 -13 58 7
38 27 72 34 79 16 9 -25 21 -5 28 50 8 62 4 98 -9 78z"/>
<path d="M123 4073 c9 -2 23 -2 30 0 6 3 -1 5 -18 5 -16 0 -22 -2 -12 -5z"/>
<path d="M7416 4028 c-14 -13 -28 -36 -32 -52 -7 -28 -6 -29 21 -22 15 4 40 9
55 13 22 4 29 12 33 37 2 17 3 34 0 39 -9 15 -53 6 -77 -15z"/>
<path d="M3627 3894 c-3 -4 0 -15 7 -26 9 -12 12 -36 10 -66 -5 -47 -14 -71
-14 -36 0 30 -19 44 -52 37 -19 -4 -33 -1 -38 7 -4 7 -15 10 -24 7 -14 -5 -16
-27 -16 -147 0 -159 -2 -155 82 -155 34 0 48 -4 50 -15 2 -8 1 -74 -2 -147 -4
-111 -2 -135 11 -151 34 -43 39 0 39 337 0 203 4 322 10 326 6 3 10 13 10 21
0 14 -60 21 -73 8z m40 -91 c-3 -10 -5 -2 -5 17 0 19 2 27 5 18 2 -10 2 -26 0
-35z m0 -285 c-1 -46 -3 -9 -3 82 0 91 2 128 3 83 2 -46 2 -120 0 -165z m-30
150 c-2 -13 -4 -3 -4 22 0 25 2 35 4 23 2 -13 2 -33 0 -45z m-110 -80 c-2 -24
-4 -5 -4 42 0 47 2 66 4 43 2 -24 2 -62 0 -85z m110 -5 c-3 -10 -5 -4 -5 12 0
17 2 24 5 18 2 -7 2 -21 0 -30z m20 -316 c-2 -23 -3 -1 -3 48 0 50 1 68 3 42
2 -26 2 -67 0 -90z"/>
<path d="M7393 3772 c-13 -2 -23 -8 -23 -13 0 -12 47 -12 55 0 7 13 -5 18 -32
13z"/>
<path d="M550 3720 c-13 -8 -12 -10 3 -10 9 0 17 5 17 10 0 12 -1 12 -20 0z"/>
<path d="M6951 3424 c0 -11 3 -14 6 -6 3 7 2 16 -1 19 -3 4 -6 -2 -5 -13z"/>
<path d="M8402 3257 c-7 -7 -34 -33 -60 -58 -26 -25 -69 -60 -97 -79 -62 -42
-65 -46 -65 -94 0 -36 1 -38 14 -21 12 17 14 12 20 -51 3 -38 5 -122 4 -186
-1 -65 2 -121 5 -125 4 -3 7 90 7 209 0 195 2 217 19 236 23 27 31 19 32 -32
1 -35 2 -38 9 -16 4 14 8 41 9 60 1 24 8 39 21 48 22 13 21 15 24 -43 9 -159
10 -160 15 -34 5 101 9 129 24 143 13 14 18 14 22 4 3 -7 6 -274 8 -593 l2
-580 3 597 c1 328 5 603 8 612 7 19 -6 20 -24 3z"/>
<path d="M4571 3184 c0 -11 3 -14 6 -6 3 7 2 16 -1 19 -3 4 -6 -2 -5 -13z"/>
<path d="M8284 2815 c0 -71 1 -99 3 -62 2 37 2 96 0 130 -2 34 -3 4 -3 -68z"/>
<path d="M6470 2856 c0 -2 7 -7 16 -10 8 -3 12 -2 9 4 -6 10 -25 14 -25 6z"/>
<path d="M6640 2802 c-8 -3 -23 -13 -34 -23 -17 -17 -18 -19 -3 -25 10 -3 17
-13 17 -22 0 -9 9 1 20 23 22 44 22 55 0 47z"/>
<path d="M6130 2776 c0 -2 7 -7 16 -10 8 -3 12 -2 9 4 -6 10 -25 14 -25 6z"/>
<path d="M6110 2760 c0 -5 5 -10 11 -10 5 0 7 5 4 10 -3 6 -8 10 -11 10 -2 0
-4 -4 -4 -10z"/>
<path d="M6678 2723 c7 -3 16 -2 19 1 4 3 -2 6 -13 5 -11 0 -14 -3 -6 -6z"/>
<path d="M4080 2660 c0 -5 5 -10 10 -10 6 0 10 5 10 10 0 6 -4 10 -10 10 -5 0
-10 -4 -10 -10z"/>
<path d="M4186 2660 c7 -7 19 -7 35 -1 23 9 22 10 -10 10 -24 1 -32 -2 -25 -9z"/>
<path d="M4418 2653 c7 -3 16 -2 19 1 4 3 -2 6 -13 5 -11 0 -14 -3 -6 -6z"/>
<path d="M6808 2643 c7 -3 16 -2 19 1 4 3 -2 6 -13 5 -11 0 -14 -3 -6 -6z"/>
<path d="M3865 2610 l-80 -6 85 -1 c47 -1 96 3 110 7 24 8 24 8 -5 7 -16 0
-66 -4 -110 -7z"/>
<path d="M4058 2613 c23 -2 61 -2 85 0 23 2 4 4 -43 4 -47 0 -66 -2 -42 -4z"/>
<path d="M4293 2603 c20 -2 54 -2 75 0 20 2 3 4 -38 4 -41 0 -58 -2 -37 -4z"/>
<path d="M3703 2593 c9 -2 23 -2 30 0 6 3 -1 5 -18 5 -16 0 -22 -2 -12 -5z"/>
<path d="M4117 2594 c-3 -3 -3 -12 0 -20 3 -8 0 -14 -5 -14 -6 0 -13 8 -15 18
-3 9 -5 -7 -4 -37 2 -58 0 -57 75 -66 31 -3 32 -3 32 36 0 67 -31 105 -44 54
-8 -32 -26 -33 -20 -1 4 24 -7 41 -19 30z"/>
<path d="M4483 2593 c9 -2 23 -2 30 0 6 3 -1 5 -18 5 -16 0 -22 -2 -12 -5z"/>
<path d="M3453 2583 c20 -2 54 -2 75 0 20 2 3 4 -38 4 -41 0 -58 -2 -37 -4z"/>
<path d="M3917 2566 c-9 -14 -16 -40 -16 -58 1 -18 3 -25 6 -15 2 9 8 17 13
17 5 0 7 -7 4 -15 -7 -17 -3 -18 20 -9 19 7 20 50 2 82 l-13 24 -16 -26z"/>
<path d="M3980 2585 c-8 -41 -5 -95 5 -95 7 0 10 14 7 38 -4 46 -9 70 -12 57z"/>
<path d="M4024 2577 c-33 -38 -21 -87 21 -87 29 0 31 15 11 65 -17 39 -17 39
-32 22z"/>
<path d="M4213 2535 c-3 -55 -3 -55 27 -55 17 0 30 -5 30 -12 0 -10 3 -9 9 1
7 11 9 11 14 0 3 -8 6 0 6 17 1 35 -17 94 -29 94 -8 0 -25 -38 -34 -75 -2 -11
-5 -4 -4 15 0 56 -2 70 -9 70 -5 0 -9 -25 -10 -55z m53 -32 c-11 -11 -19 6
-11 24 8 17 8 17 12 0 3 -10 2 -21 -1 -24z"/>
<path d="M4678 2583 c18 -2 45 -2 60 0 15 2 0 4 -33 4 -33 0 -45 -2 -27 -4z"/>
<path d="M6728 2583 c6 -2 18 -2 25 0 6 3 1 5 -13 5 -14 0 -19 -2 -12 -5z"/>
<path d="M6823 2583 c9 -2 25 -2 35 0 9 3 1 5 -18 5 -19 0 -27 -2 -17 -5z"/>
<path d="M3810 2562 c-8 -8 -15 -37 -16 -64 l-3 -48 28 15 c36 18 43 43 22 82
-14 28 -17 29 -31 15z m25 -62 c-3 -5 -10 -10 -16 -10 -5 0 -9 5 -9 10 0 6 7
10 16 10 8 0 12 -4 9 -10z"/>
<path d="M3872 2555 c0 -16 2 -22 5 -12 2 9 2 23 0 30 -3 6 -5 -1 -5 -18z"/>
<path d="M5748 2573 c6 -2 18 -2 25 0 6 3 1 5 -13 5 -14 0 -19 -2 -12 -5z"/>
<path d="M3521 2554 c0 -11 3 -14 6 -6 3 7 2 16 -1 19 -3 4 -6 -2 -5 -13z"/>
<path d="M4357 2549 c-19 -26 -22 -49 -8 -49 5 0 12 12 16 27 5 21 8 24 15 13
5 -8 11 -12 14 -9 3 3 0 14 -8 24 -12 17 -14 17 -29 -6z"/>
<path d="M4422 2550 c0 -14 2 -19 5 -12 2 6 2 18 0 25 -3 6 -5 1 -5 -13z"/>
<path d="M4461 2547 c-14 -35 -14 -58 -1 -37 7 12 12 12 29 -4 21 -19 21 -19
21 1 0 12 -9 31 -19 44 l-19 24 -11 -28z"/>
<path d="M4530 2546 c0 -14 4 -27 8 -30 5 -3 6 8 4 25 -5 35 -12 38 -12 5z"/>
<path d="M5048 2563 c6 -2 18 -2 25 0 6 3 1 5 -13 5 -14 0 -19 -2 -12 -5z"/>
<path d="M5098 2563 c7 -3 16 -2 19 1 4 3 -2 6 -13 5 -11 0 -14 -3 -6 -6z"/>
<path d="M6011 2554 c0 -11 3 -14 6 -6 3 7 2 16 -1 19 -3 4 -6 -2 -5 -13z"/>
<path d="M6756 2539 c-10 -52 -7 -101 5 -93 6 3 15 0 20 -7 6 -10 9 -6 9 14 0
16 -7 35 -15 43 -9 10 -12 25 -8 44 3 17 3 30 1 30 -3 0 -8 -14 -12 -31z"/>
<path d="M1150 2550 c-13 -8 -12 -10 3 -10 9 0 17 5 17 10 0 12 -1 12 -20 0z"/>
<path d="M1213 2553 c9 -2 23 -2 30 0 6 3 -1 5 -18 5 -16 0 -22 -2 -12 -5z"/>
<path d="M2888 2553 c6 -2 18 -2 25 0 6 3 1 5 -13 5 -14 0 -19 -2 -12 -5z"/>
<path d="M3451 2543 c-17 -19 -27 -98 -13 -107 6 -3 23 -2 37 4 25 10 27 14
22 52 -7 52 -26 73 -46 51z m38 -70 c0 -15 -3 -23 -5 -16 -3 7 -13 9 -21 6
-13 -5 -15 -2 -10 11 4 10 7 27 7 38 0 17 2 18 15 4 8 -8 15 -27 14 -43z"/>
<path d="M3577 2553 c-4 -3 -7 -13 -7 -22 0 -14 2 -14 10 -1 9 13 11 13 20 0
11 -17 13 -10 4 14 -7 17 -16 20 -27 9z"/>
<path d="M3691 2538 c-14 -23 -13 -23 7 -5 13 12 22 14 25 7 3 -6 5 -6 3 2 -4
21 -21 19 -35 -4z"/>
<path d="M4570 2541 c-12 -22 -14 -68 -2 -57 4 4 7 12 7 17 0 5 4 8 8 7 12 -4
29 30 22 42 -10 16 -23 12 -35 -9z"/>
<path d="M5273 2553 c15 -2 39 -2 55 0 15 2 2 4 -28 4 -30 0 -43 -2 -27 -4z"/>
<path d="M5940 2553 c0 -7 5 -15 10 -18 14 -8 13 -42 -2 -47 -7 -3 -9 -14 -4
-31 6 -24 8 -25 31 -15 20 9 25 18 25 49 0 43 -8 69 -21 69 -5 0 -9 -8 -9 -17
-1 -16 -2 -16 -15 1 -8 11 -15 15 -15 9z"/>
<path d="M6825 2535 c-17 -16 -25 -35 -25 -58 0 -32 3 -34 45 -44 48 -11 55
-6 55 44 0 27 -29 83 -43 83 -4 0 -19 -11 -32 -25z"/>
<path d="M6920 2550 c-12 -8 -12 -10 -1 -10 10 0 11 -8 6 -27 -3 -16 -8 -43
-10 -60 -3 -29 0 -33 22 -33 23 0 25 3 20 38 -11 77 -21 102 -37 92z"/>
<path d="M1058 2543 c12 -2 30 -2 40 0 9 3 -1 5 -23 4 -22 0 -30 -2 -17 -4z"/>
<path d="M2678 2543 c17 -2 47 -2 65 0 17 2 3 4 -33 4 -36 0 -50 -2 -32 -4z"/>
<path d="M3322 2530 c-18 -29 -15 -47 4 -24 13 16 15 16 10 2 -3 -10 -1 -20 4
-23 6 -4 10 0 10 7 0 10 3 9 11 -2 8 -11 9 -9 4 10 -11 41 -28 53 -43 30z"/>
<path d="M5895 2528 c-10 -40 -2 -83 15 -83 11 0 15 11 14 43 -1 52 -20 77
-29 40z"/>
<path d="M2473 2533 c9 -2 23 -2 30 0 6 3 -1 5 -18 5 -16 0 -22 -2 -12 -5z"/>
<path d="M4944 2532 c-6 -4 -14 -20 -17 -37 l-6 -30 12 28 c11 27 31 39 21 12
-4 -9 0 -15 10 -15 19 0 20 10 4 33 -7 9 -18 13 -24 9z"/>
<path d="M5742 2515 c-18 -40 -15 -65 8 -65 15 0 20 6 19 28 0 15 -4 35 -8 45
-6 17 -8 16 -19 -8z"/>
<path d="M5821 2512 c-15 -37 -11 -67 9 -67 18 0 25 41 12 74 -8 24 -8 24 -21
-7z"/>
<path d="M2288 2523 c17 -2 47 -2 65 0 17 2 3 4 -33 4 -36 0 -50 -2 -32 -4z"/>
<path d="M3182 2518 c-7 -7 -12 -17 -12 -22 0 -6 7 -2 15 8 11 14 15 16 15 5
0 -22 -17 -42 -29 -35 -7 5 -11 -2 -11 -18 0 -14 5 -26 11 -26 6 0 8 7 5 17
-4 10 -4 14 0 10 4 -3 16 3 26 16 19 21 20 21 18 2 -4 -32 -1 -45 10 -45 16 0
12 48 -6 75 -18 28 -25 30 -42 13z"/>
<path d="M4370 2515 c0 -8 7 -15 15 -15 8 0 15 4 15 9 0 5 -7 11 -15 15 -9 3
-15 0 -15 -9z"/>
<path d="M1980 2509 c-30 -4 15 -4 100 -2 85 3 157 7 159 9 7 7 -200 1 -259
-7z"/>
<path d="M3040 2505 c-7 -9 -10 -18 -6 -22 3 -3 6 -1 6 5 0 7 9 12 20 12 13 0
22 -10 29 -32 6 -22 10 -26 10 -13 1 22 -25 65 -38 65 -5 0 -14 -7 -21 -15z"/>
<path d="M4310 2506 c0 -8 5 -18 10 -21 6 -3 10 3 10 14 0 12 -4 21 -10 21 -5
0 -10 -6 -10 -14z"/>
<path d="M4612 2500 c0 -14 2 -19 5 -12 2 6 2 18 0 25 -3 6 -5 1 -5 -13z"/>
<path d="M2586 2495 c-3 -8 -1 -15 4 -15 6 0 10 7 10 15 0 8 -2 15 -4 15 -2 0
-6 -7 -10 -15z"/>
<path d="M2920 2501 c0 -5 5 -13 10 -16 6 -3 10 -2 10 4 0 5 -4 13 -10 16 -5
3 -10 2 -10 -4z"/>
<path d="M1738 2493 c23 -2 61 -2 85 0 23 2 4 4 -43 4 -47 0 -66 -2 -42 -4z"/>
<path d="M2331 2484 c0 -11 3 -14 6 -6 3 7 2 16 -1 19 -3 4 -6 -2 -5 -13z"/>
<path d="M2400 2467 c-21 -33 -27 -107 -10 -107 6 0 8 10 4 24 -3 14 2 40 12
61 l17 37 24 -38 c12 -22 21 -44 18 -51 -2 -7 0 -15 5 -18 16 -10 11 41 -7 79
-23 48 -40 52 -63 13z"/>
<path d="M3562 2475 c0 -16 2 -22 5 -12 2 9 2 23 0 30 -3 6 -5 -1 -5 -18z"/>
<path d="M3610 2488 c0 -9 5 -20 10 -23 13 -8 13 5 0 25 -8 13 -10 13 -10 -2z"/>
<path d="M3772 2475 c0 -16 2 -22 5 -12 2 9 2 23 0 30 -3 6 -5 -1 -5 -18z"/>
<path d="M3875 2490 c3 -5 8 -10 11 -10 2 0 4 5 4 10 0 6 -5 10 -11 10 -5 0
-7 -4 -4 -10z"/>
<path d="M1519 2486 c-2 -2 -98 -7 -214 -11 -224 -7 -269 -11 -259 -26 3 -5 8
-7 12 -5 4 2 138 11 297 21 315 17 361 22 244 24 -42 0 -78 -1 -80 -3z"/>
<path d="M2033 2456 c-12 -19 -25 -46 -29 -61 -6 -26 -6 -26 45 -23 28 2 51 7
51 12 0 5 3 7 6 4 3 -4 1 -16 -6 -27 -9 -17 -8 -21 5 -21 25 0 18 61 -12 108
-15 23 -30 42 -33 42 -3 0 -15 -16 -27 -34z"/>
<path d="M2153 2455 c0 -22 2 -30 4 -17 2 12 2 30 0 40 -3 9 -5 -1 -4 -23z"/>
<path d="M2216 2451 c-27 -41 -32 -76 -17 -99 5 -9 12 7 20 47 10 51 15 61 32
61 12 0 19 5 17 12 -9 25 -28 18 -52 -21z"/>
<path d="M4350 2479 c0 -5 11 -9 25 -9 14 0 25 2 25 4 0 2 -11 6 -25 8 -14 3
-25 1 -25 -3z"/>
<path d="M4420 2480 c0 -5 5 -10 11 -10 5 0 7 5 4 10 -3 6 -8 10 -11 10 -2 0
-4 -4 -4 -10z"/>
<path d="M3260 2461 c-13 -26 -13 -31 5 -31 9 0 15 9 15 25 0 30 -6 32 -20 6z"/>
<path d="M3300 2469 c0 -5 5 -7 10 -4 6 3 10 8 10 11 0 2 -4 4 -10 4 -5 0 -10
-5 -10 -11z"/>
<path d="M3640 2470 c0 -5 5 -10 10 -10 6 0 10 5 10 10 0 6 -4 10 -10 10 -5 0
-10 -4 -10 -10z"/>
<path d="M4465 2470 c3 -5 10 -10 16 -10 5 0 9 5 9 10 0 6 -7 10 -16 10 -8 0
-12 -4 -9 -10z"/>
<path d="M5860 2459 c0 -11 5 -17 10 -14 6 3 10 13 10 21 0 8 -4 14 -10 14 -5
0 -10 -9 -10 -21z"/>
<path d="M1853 2459 c-27 -34 -48 -87 -45 -116 3 -32 22 -48 22 -19 0 8 5 18
11 22 8 4 9 -1 4 -16 -6 -19 -4 -22 11 -16 10 4 21 1 26 -6 5 -9 8 -4 8 13 0
18 6 28 19 32 25 6 17 45 -18 87 -22 26 -29 30 -38 19z"/>
<path d="M3361 2454 c0 -11 3 -14 6 -6 3 7 2 16 -1 19 -3 4 -6 -2 -5 -13z"/>
<path d="M3525 2460 c-3 -5 -1 -10 4 -10 6 0 11 5 11 10 0 6 -2 10 -4 10 -3 0
-8 -4 -11 -10z"/>
<path d="M3580 2460 c0 -5 5 -10 10 -10 6 0 10 5 10 10 0 6 -4 10 -10 10 -5 0
-10 -4 -10 -10z"/>
<path d="M1629 2424 c-13 -21 -24 -42 -25 -46 -1 -5 -2 -9 -4 -10 -1 -2 -3
-14 -6 -28 -5 -32 9 -55 27 -44 8 5 19 9 24 10 6 0 16 2 23 2 7 1 10 7 6 13
-3 6 -17 9 -30 6 -13 -2 -24 0 -24 4 0 5 5 9 11 9 6 0 8 7 5 16 -4 11 1 10 20
-5 15 -11 31 -18 36 -15 6 4 8 -2 3 -15 -7 -24 10 -29 19 -5 10 25 7 66 -4 59
-5 -3 -10 3 -10 14 0 11 -10 32 -23 47 l-24 27 -24 -39z"/>
<path d="M1745 2450 c3 -5 10 -10 16 -10 5 0 9 5 9 10 0 6 -7 10 -16 10 -8 0
-12 -4 -9 -10z"/>
<path d="M1981 2438 c-15 -40 -20 -109 -7 -105 6 2 10 19 9 38 -1 19 2 46 7
62 11 32 3 37 -9 5z"/>
<path d="M2260 2445 c-10 -12 -10 -15 4 -15 21 0 21 -17 -1 -23 -15 -4 -14 -6
5 -12 14 -5 21 -13 18 -21 -6 -17 10 -19 20 -3 7 12 -15 89 -26 89 -4 0 -13
-7 -20 -15z"/>
<path d="M4140 2450 c30 -5 78 -8 105 -8 l50 1 -55 7 c-30 5 -77 8 -105 8
l-50 -1 55 -7z"/>
<path d="M1415 2426 c-37 -38 -51 -78 -47 -133 2 -16 8 -23 22 -23 29 0 82 29
75 40 -9 14 -42 12 -48 -2 -3 -8 -6 -6 -6 5 -1 19 33 23 59 7 12 -7 11 -12 -5
-31 -20 -21 -20 -21 0 -18 11 2 25 15 31 28 15 29 -5 95 -39 127 l-22 20 -20
-20z m5 -76 c0 -5 -2 -10 -4 -10 -3 0 -8 5 -11 10 -3 6 -1 10 4 10 6 0 11 -4
11 -10z"/>
<path d="M1541 2418 c0 -20 -5 -48 -11 -62 -8 -22 -7 -26 7 -26 14 0 14 -2 -3
-15 -18 -14 -18 -14 9 -15 20 0 27 5 27 20 0 11 -6 20 -13 20 -9 0 -11 12 -9
39 2 21 2 47 -1 57 -3 11 -5 2 -6 -18z"/>
<path d="M3123 2435 c0 -8 4 -15 9 -15 4 0 8 4 8 9 0 6 -4 12 -8 15 -5 3 -9
-1 -9 -9z"/>
<path d="M3196 2441 c-4 -7 -5 -15 -2 -18 9 -9 19 4 14 18 -4 11 -6 11 -12 0z"/>
<path d="M3320 2440 c0 -5 4 -10 9 -10 6 0 13 5 16 10 3 6 -1 10 -9 10 -9 0
-16 -4 -16 -10z"/>
<path d="M3883 2443 c9 -2 23 -2 30 0 6 3 -1 5 -18 5 -16 0 -22 -2 -12 -5z"/>
<path d="M1152 2391 c-28 -41 -33 -57 -31 -99 2 -48 3 -49 33 -47 17 1 59 2
94 3 48 2 62 5 62 17 0 8 5 15 10 15 6 0 13 -7 16 -15 8 -21 26 -19 21 3 -3 9
-8 34 -12 55 -6 39 -20 49 -28 20 -3 -12 -5 -9 -6 8 0 15 -7 32 -15 38 -11 9
-12 2 -8 -39 3 -33 1 -50 -7 -50 -6 0 -11 12 -11 27 0 27 -57 112 -75 112 -5
0 -25 -21 -43 -48z m133 -110 c3 -5 1 -12 -5 -16 -5 -3 -10 1 -10 9 0 18 6 21
15 7z"/>
<path d="M1277 2426 c-4 -10 -1 -13 9 -9 7 3 14 0 14 -7 0 -6 6 -18 14 -25 12
-12 14 -10 18 15 3 17 1 30 -4 30 -4 0 -8 -6 -8 -12 0 -7 -5 -5 -11 5 -12 21
-25 22 -32 3z"/>
<path d="M2550 2429 c0 -5 5 -7 10 -4 6 3 10 8 10 11 0 2 -4 4 -10 4 -5 0 -10
-5 -10 -11z"/>
<path d="M2940 2421 c0 -25 6 -27 13 -6 4 8 2 17 -3 20 -6 4 -10 -3 -10 -14z"/>
<path d="M2991 2424 c0 -11 3 -14 6 -6 3 7 2 16 -1 19 -3 4 -6 -2 -5 -13z"/>
<path d="M5730 2436 c0 -9 30 -14 35 -6 4 6 -3 10 -14 10 -12 0 -21 -2 -21 -4z"/>
<path d="M1057 2422 c-14 -3 -14 -7 -4 -23 14 -23 27 -25 27 -4 0 8 5 15 11
15 6 0 9 -9 6 -20 -3 -11 -1 -20 4 -20 5 0 9 5 9 12 0 6 6 19 14 27 13 14 11
16 -18 16 -18 0 -40 -1 -49 -3z"/>
<path d="M4538 2423 c7 -3 16 -2 19 1 4 3 -2 6 -13 5 -11 0 -14 -3 -6 -6z"/>
<path d="M2333 2413 c-7 -3 -13 -16 -13 -29 0 -17 6 -24 20 -24 15 0 20 7 20
24 0 27 -8 36 -27 29z"/>
<path d="M3528 2413 c6 -2 18 -2 25 0 6 3 1 5 -13 5 -14 0 -19 -2 -12 -5z"/>
<path d="M1760 2392 c0 -13 -4 -20 -10 -17 -6 4 -10 -7 -10 -27 0 -25 6 -36
23 -44 22 -10 23 -9 20 34 -4 51 -22 94 -23 54z"/>
<path d="M2750 2400 c0 -5 5 -10 10 -10 6 0 10 5 10 10 0 6 -4 10 -10 10 -5 0
-10 -4 -10 -10z"/>
<path d="M5365 2400 c3 -5 8 -10 11 -10 2 0 4 5 4 10 0 6 -5 10 -11 10 -5 0
-7 -4 -4 -10z"/>
<path d="M5868 2403 c6 -2 18 -2 25 0 6 3 1 5 -13 5 -14 0 -19 -2 -12 -5z"/>
<path d="M6801 2406 c2 -2 49 -6 104 -9 68 -4 86 -3 55 3 -45 9 -167 13 -159
6z"/>
<path d="M1341 2384 c0 -11 3 -14 6 -6 3 7 2 16 -1 19 -3 4 -6 -2 -5 -13z"/>
<path d="M2590 2390 c0 -5 5 -10 10 -10 6 0 10 5 10 10 0 6 -4 10 -10 10 -5 0
-10 -4 -10 -10z"/>
<path d="M3288 2393 c7 -3 16 -2 19 1 4 3 -2 6 -13 5 -11 0 -14 -3 -6 -6z"/>
<path d="M3328 2393 c7 -3 16 -2 19 1 4 3 -2 6 -13 5 -11 0 -14 -3 -6 -6z"/>
<path d="M5798 2393 c6 -2 18 -2 25 0 6 3 1 5 -13 5 -14 0 -19 -2 -12 -5z"/>
<path d="M1946 2373 c-6 -14 -5 -15 5 -6 7 7 10 15 7 18 -3 3 -9 -2 -12 -12z"/>
<path d="M2137 2377 c-8 -21 7 -39 26 -31 21 8 22 30 1 38 -21 8 -21 8 -27 -7z"/>
<path d="M2410 2380 c0 -5 9 -10 21 -10 11 0 17 5 14 10 -3 6 -13 10 -21 10
-8 0 -14 -4 -14 -10z"/>
<path d="M3153 2383 c9 -2 25 -2 35 0 9 3 1 5 -18 5 -19 0 -27 -2 -17 -5z"/>
<path d="M5738 2383 c7 -3 16 -2 19 1 4 3 -2 6 -13 5 -11 0 -14 -3 -6 -6z"/>
<path d="M2235 2371 c-3 -5 -1 -12 5 -16 12 -7 30 2 30 16 0 12 -27 12 -35 0z"/>
<path d="M4076 2372 c7 -4 14 -18 15 -32 3 -14 12 -26 22 -28 16 -3 18 0 12
20 -6 21 -4 20 19 -7 14 -17 25 -24 26 -16 0 11 3 11 15 1 9 -7 18 -10 22 -6
3 3 1 6 -4 6 -6 0 -10 7 -9 15 1 9 5 15 9 15 4 0 12 0 17 0 6 0 10 -10 10 -22
0 -19 2 -20 10 -8 9 13 10 13 10 0 1 -10 5 -7 13 8 14 25 27 20 27 -10 0 -22
24 -19 26 3 2 31 7 33 13 5 8 -37 39 -44 39 -10 0 14 1 26 3 28 2 2 28 1 57
-1 35 -4 52 -10 52 -19 0 -8 5 -14 10 -14 6 0 10 -7 10 -16 0 -8 4 -13 9 -10
5 4 12 0 15 -6 3 -7 4 2 3 21 l-4 34 60 -7 c34 -3 63 -9 66 -14 3 -4 38 -7 76
-7 39 0 97 -3 130 -7 33 -4 134 -14 225 -23 91 -8 179 -18 195 -21 84 -14 171
-22 178 -15 8 8 -79 21 -283 41 -58 6 -161 17 -230 25 -319 37 -792 85 -850
85 -14 0 -20 -3 -14 -8z"/>
<path d="M2053 2353 c-3 -10 -8 -22 -11 -26 -2 -5 5 -3 17 5 23 14 26 24 11
33 -6 3 -13 -2 -17 -12z"/>
<path d="M2888 2363 c7 -3 16 -2 19 1 4 3 -2 6 -13 5 -11 0 -14 -3 -6 -6z"/>
<path d="M4008 2363 c7 -3 16 -2 19 1 4 3 -2 6 -13 5 -11 0 -14 -3 -6 -6z"/>
<path d="M2778 2353 c12 -2 30 -2 40 0 9 3 -1 5 -23 4 -22 0 -30 -2 -17 -4z"/>
<path d="M2663 2343 c9 -2 23 -2 30 0 6 3 -1 5 -18 5 -16 0 -22 -2 -12 -5z"/>
<path d="M1905 2330 c-3 -5 -1 -10 4 -10 6 0 11 5 11 10 0 6 -2 10 -4 10 -3 0
-8 -4 -11 -10z"/>
<path d="M2528 2333 c6 -2 18 -2 25 0 6 3 1 5 -13 5 -14 0 -19 -2 -12 -5z"/>
<path d="M2588 2333 c6 -2 18 -2 25 0 6 3 1 5 -13 5 -14 0 -19 -2 -12 -5z"/>
<path d="M2413 2323 c15 -2 39 -2 55 0 15 2 2 4 -28 4 -30 0 -43 -2 -27 -4z"/>
<path d="M2303 2313 c15 -2 37 -2 50 0 12 2 0 4 -28 4 -27 0 -38 -2 -22 -4z"/>
<path d="M3428 2313 c7 -3 16 -2 19 1 4 3 -2 6 -13 5 -11 0 -14 -3 -6 -6z"/>
<path d="M3498 2313 c7 -3 16 -2 19 1 4 3 -2 6 -13 5 -11 0 -14 -3 -6 -6z"/>
<path d="M1065 2300 c-16 -4 -22 -8 -12 -9 20 -1 23 -17 5 -23 -7 -3 -40 -6
-73 -7 -79 -3 -85 -11 -7 -11 39 0 62 -4 66 -12 3 -10 9 -8 19 5 13 16 15 16
21 2 10 -27 27 -6 24 31 -1 19 -5 33 -8 33 -3 -1 -18 -5 -35 -9z"/>
<path d="M2163 2303 c15 -2 39 -2 55 0 15 2 2 4 -28 4 -30 0 -43 -2 -27 -4z"/>
<path d="M1965 2290 c-18 -8 -17 -9 8 -9 16 -1 26 3 22 9 -3 6 -7 10 -8 9 -1
0 -11 -4 -22 -9z"/>
<path d="M2043 2293 c15 -2 39 -2 55 0 15 2 2 4 -28 4 -30 0 -43 -2 -27 -4z"/>
<path d="M4380 2290 c0 -5 7 -7 15 -4 8 4 15 8 15 10 0 2 -7 4 -15 4 -8 0 -15
-4 -15 -10z"/>
<path d="M5778 2293 c6 -2 18 -2 25 0 6 3 1 5 -13 5 -14 0 -19 -2 -12 -5z"/>
<path d="M4182 2273 c6 -37 38 -38 38 -2 0 12 -7 19 -20 19 -14 0 -20 -6 -18
-17z"/>
<path d="M4230 2276 c0 -11 5 -15 13 -10 10 6 10 4 0 -7 -32 -34 4 -31 41 3
15 13 16 18 5 18 -8 0 -24 3 -36 6 -17 5 -23 2 -23 -10z"/>
<path d="M1843 2273 c9 -2 23 -2 30 0 6 3 -1 5 -18 5 -16 0 -22 -2 -12 -5z"/>
<path d="M608 2263 c6 -2 18 -2 25 0 6 3 1 5 -13 5 -14 0 -19 -2 -12 -5z"/>
<path d="M1635 2260 c-28 -4 -4 -5 55 -2 58 2 107 6 109 8 7 6 -108 2 -164 -6z"/>
<path d="M4341 2257 c-1 -10 6 -25 14 -33 13 -14 15 -13 15 11 0 14 -4 24 -9
21 -5 -4 -12 0 -14 6 -3 8 -6 5 -6 -5z"/>
<path d="M4380 2248 c0 -19 2 -20 10 -8 13 19 13 30 0 30 -5 0 -10 -10 -10
-22z"/>
<path d="M290 2250 c-40 -4 -55 -9 -55 -20 0 -9 6 -13 15 -11 8 2 49 8 90 13
41 4 109 12 150 17 l75 8 -110 -1 c-60 0 -135 -3 -165 -6z"/>
<path d="M4405 2250 c-3 -5 -1 -10 4 -10 6 0 11 5 11 10 0 6 -2 10 -4 10 -3 0
-8 -4 -11 -10z"/>
<path d="M4430 2250 c0 -5 7 -10 15 -10 8 0 15 5 15 10 0 6 -7 10 -15 10 -8 0
-15 -4 -15 -10z"/>
<path d="M6020 2225 c0 -19 5 -35 10 -35 6 0 10 16 10 35 0 19 -4 35 -10 35
-5 0 -10 -16 -10 -35z"/>
<path d="M575 2229 c-121 -10 -239 -19 -262 -20 -24 -2 -43 -4 -43 -5 0 -1 3
-10 6 -18 5 -12 10 -14 19 -6 7 6 136 22 287 35 314 28 344 32 268 32 -30 0
-154 -8 -275 -18z"/>
<path d="M1405 2244 c-22 -2 -107 -9 -190 -15 -82 -6 -157 -15 -165 -20 -17
-10 61 -5 330 21 146 15 163 24 25 14z"/>
<path d="M4139 2230 c-3 -14 -3 -33 -1 -43 4 -18 5 -18 23 -1 19 17 20 17 26
-4 6 -26 23 -19 23 9 0 13 -7 19 -22 19 -19 0 -20 2 -8 10 12 8 11 10 -7 10
-12 0 -23 6 -26 13 -2 6 -6 1 -8 -13z"/>
<path d="M4540 2236 c0 -2 9 -6 20 -9 11 -3 18 -1 14 4 -5 9 -34 13 -34 5z"/>
<path d="M5988 2215 c-4 -17 -1 -25 8 -25 8 0 14 11 14 25 0 14 -4 25 -9 25
-5 0 -11 -11 -13 -25z"/>
<path d="M4288 2223 c7 -3 16 -2 19 1 4 3 -2 6 -13 5 -11 0 -14 -3 -6 -6z"/>
<path d="M4392 2221 c-10 -6 -9 -10 7 -14 14 -3 21 0 21 9 0 16 -9 18 -28 5z"/>
<path d="M4260 2193 c0 -15 -2 -16 -10 -3 -8 12 -10 11 -10 -6 0 -12 7 -24 15
-28 11 -4 15 2 15 24 0 17 -2 30 -5 30 -3 0 -5 -8 -5 -17z"/>
<path d="M3490 2190 c0 -5 5 -10 11 -10 5 0 7 5 4 10 -3 6 -8 10 -11 10 -2 0
-4 -4 -4 -10z"/>
<path d="M8222 2170 c0 -19 2 -27 5 -17 2 9 2 25 0 35 -3 9 -5 1 -5 -18z"/>
<path d="M1910 2160 c-9 -6 -10 -10 -3 -10 6 0 15 5 18 10 8 12 4 12 -15 0z"/>
<path d="M6023 2152 c0 -12 5 -22 9 -22 11 0 10 12 -2 30 -7 12 -9 10 -7 -8z"/>
<path d="M1808 2153 c6 -2 18 -2 25 0 6 3 1 5 -13 5 -14 0 -19 -2 -12 -5z"/>
<path d="M755 2130 c-110 -10 -244 -21 -297 -25 -79 -5 -98 -10 -98 -22 0 -13
10 -15 63 -9 203 23 338 36 383 36 28 0 53 3 56 6 4 3 36 6 72 7 36 1 70 7 78
15 15 15 8 15 -257 -8z m-322 -47 c-7 -2 -19 -2 -25 0 -7 3 -2 5 12 5 14 0 19
-2 13 -5z"/>
<path d="M4650 2140 c0 -13 11 -13 30 0 12 8 11 10 -7 10 -13 0 -23 -4 -23
-10z"/>
<path d="M1616 2132 c-2 -4 12 -6 32 -4 62 6 69 10 20 11 -26 0 -49 -3 -52 -7z"/>
<path d="M1265 2104 c-115 -12 -213 -23 -217 -23 -13 -2 -9 -179 4 -187 6 -4
14 -2 16 4 2 7 8 12 14 12 6 0 8 -7 5 -15 -4 -8 -2 -17 4 -21 7 -4 9 9 6 35
-2 23 -1 41 2 41 4 0 5 27 3 60 -4 58 -3 60 20 58 21 -1 291 33 403 51 l50 8
-50 0 c-27 0 -144 -10 -260 -23z"/>
<path d="M4683 2116 c-10 -11 -9 -15 2 -20 10 -4 15 1 15 14 0 23 -1 24 -17 6z"/>
<path d="M4190 2110 c20 -13 33 -13 25 0 -3 6 -14 10 -23 10 -15 0 -15 -2 -2
-10z"/>
<path d="M1505 2102 c-30 -6 -43 -22 -18 -22 12 0 23 -5 25 -11 3 -8 10 -6 21
5 12 13 17 14 17 4 0 -10 3 -9 10 2 5 8 10 18 10 21 0 7 -34 8 -65 1z"/>
<path d="M4771 2094 c0 -11 3 -14 6 -6 3 7 2 16 -1 19 -3 4 -6 -2 -5 -13z"/>
<path d="M1428 2083 c7 -3 16 -2 19 1 4 3 -2 6 -13 5 -11 0 -14 -3 -6 -6z"/>
<path d="M8222 2070 c0 -14 2 -19 5 -12 2 6 2 18 0 25 -3 6 -5 1 -5 -13z"/>
<path d="M797 2074 c-4 -4 -7 -19 -8 -33 0 -14 -3 -20 -6 -13 -2 6 -12 12 -20
12 -9 0 -13 -6 -10 -14 4 -9 -2 -16 -15 -19 -14 -4 -19 -11 -15 -21 4 -9 3
-15 -1 -15 -21 3 -31 -3 -26 -16 4 -8 1 -15 -5 -15 -6 0 -11 -9 -11 -19 0 -10
-8 -22 -17 -25 -15 -6 -15 -8 -3 -16 10 -7 11 -10 3 -10 -7 0 -13 -7 -13 -15
0 -8 5 -15 10 -15 6 0 10 -4 10 -10 0 -5 -3 -9 -8 -7 -4 1 -8 -2 -9 -8 -2 -5
5 -10 14 -10 9 0 18 -5 20 -12 3 -7 -3 -9 -16 -6 -12 3 -21 1 -21 -6 0 -6 4
-11 9 -11 5 0 7 -8 4 -19 -5 -19 29 -41 35 -22 2 7 10 8 20 2 22 -11 62 2 43
14 -8 4 -17 2 -22 -6 -7 -11 -9 -10 -9 4 0 11 -5 15 -11 11 -22 -13 22 43 48
62 32 23 90 24 105 3 8 -11 9 -11 5 2 -5 16 40 59 63 59 21 0 9 20 -12 21 -17
1 -19 2 -5 6 9 2 17 9 17 15 0 6 -9 8 -20 5 -24 -6 -27 8 -4 17 8 3 13 10 9
15 -3 6 -12 8 -20 4 -11 -4 -13 -1 -9 11 4 11 1 16 -11 16 -11 0 -15 5 -12 14
4 10 0 12 -14 9 -15 -4 -18 -2 -13 11 4 10 1 16 -8 16 -8 0 -19 9 -24 21 -5
11 -13 17 -17 13z m-57 -206 c0 -17 -19 -7 -35 18 l-17 27 26 -19 c14 -11 26
-22 26 -26z m159 20 c14 5 14 4 2 -11 -8 -10 -14 -16 -15 -15 -1 2 -8 12 -16
23 -10 14 -10 17 -1 8 7 -6 21 -9 30 -5z m-39 -12 c0 -3 -4 -8 -10 -11 -5 -3
-10 -1 -10 4 0 6 5 11 10 11 6 0 10 -2 10 -4z"/>
<path d="M977 2066 c-4 -9 -1 -13 6 -11 23 9 36 -11 40 -60 3 -42 4 -39 5 20
1 52 -1 66 -9 55 -8 -11 -12 -12 -16 -2 -6 16 -20 15 -26 -2z"/>
<path d="M1418 2063 c7 -3 16 -2 19 1 4 3 -2 6 -13 5 -11 0 -14 -3 -6 -6z"/>
<path d="M1482 2050 c0 -14 2 -19 5 -12 2 6 2 18 0 25 -3 6 -5 1 -5 -13z"/>
<path d="M537 2040 c-8 -12 -20 -18 -29 -15 -9 4 -18 -1 -22 -10 -3 -9 -1 -15
7 -14 31 4 35 -3 39 -60 3 -61 -5 -73 -15 -22 -9 42 -68 100 -109 106 l-33 5
35 -16 c46 -21 78 -67 96 -138 5 -23 4 -28 -7 -24 -11 4 -14 -7 -13 -57 0 -34
4 -67 8 -73 4 -7 2 -12 -3 -12 -6 0 -11 -7 -11 -15 0 -17 -14 -18 -45 -5 -17
7 -17 9 -2 9 9 1 17 8 17 16 0 11 -7 14 -27 10 -23 -4 -21 -3 6 8 31 12 34 17
35 56 1 27 -3 45 -11 48 -8 3 -13 10 -12 17 2 22 -14 56 -27 56 -8 0 -11 6 -8
15 4 9 0 15 -10 15 -9 0 -16 7 -16 15 0 8 -5 15 -11 15 -6 0 -9 -35 -6 -103 4
-97 15 -140 42 -159 6 -4 0 -8 -12 -8 -16 0 -23 -6 -23 -19 0 -23 35 -37 54
-22 7 6 29 8 49 4 26 -4 40 -1 53 12 12 12 26 15 48 11 38 -7 59 5 50 27 -7
18 -24 23 -24 7 0 -5 -19 -10 -42 -9 l-43 1 49 13 c27 8 52 17 57 22 5 5 2 34
-6 66 -19 75 -19 86 6 143 19 46 19 47 1 31 -17 -16 -30 -49 -46 -122 -2 -11
-4 15 -3 58 1 59 5 81 16 88 14 9 13 10 -1 5 -13 -4 -18 0 -18 14 0 28 -17 33
-33 10z m-130 -366 c-3 -3 -12 -4 -19 -1 -8 3 -5 6 6 6 11 1 17 -2 13 -5z"/>
<path d="M1530 2046 c0 -9 5 -16 10 -16 6 0 10 4 10 9 0 6 -4 13 -10 16 -5 3
-10 -1 -10 -9z"/>
<path d="M649 2023 c-13 -16 -12 -17 4 -4 9 7 17 15 17 17 0 8 -8 3 -21 -13z"/>
<path d="M4238 2033 c7 -3 16 -2 19 1 4 3 -2 6 -13 5 -11 0 -14 -3 -6 -6z"/>
<path d="M982 1974 c24 -65 26 -69 33 -63 7 7 -25 92 -40 108 -9 9 -7 -6 7
-45z"/>
<path d="M4710 2019 c0 -5 5 -7 10 -4 6 3 10 8 10 11 0 2 -4 4 -10 4 -5 0 -10
-5 -10 -11z"/>
<path d="M1553 2013 c-18 -7 -16 -43 2 -43 9 0 15 9 15 25 0 14 -1 25 -2 24
-2 0 -9 -3 -15 -6z"/>
<path d="M1587 1999 c-5 -20 0 -24 19 -11 9 5 8 10 -1 19 -10 9 -14 8 -18 -8z"/>
<path d="M1730 1986 c0 -8 -6 -17 -12 -19 -7 -3 -3 -6 10 -6 22 -1 31 22 12
34 -5 3 -10 0 -10 -9z"/>
<path d="M4710 1989 c0 -5 5 -9 10 -9 6 0 10 -8 10 -17 0 -15 -2 -16 -10 -3
-8 13 -10 13 -10 -1 0 -9 7 -19 15 -23 10 -4 15 1 15 15 0 11 4 17 10 14 5 -3
7 0 4 8 -6 17 -44 30 -44 16z"/>
<path d="M8414 1905 c0 -55 1 -76 3 -47 2 29 2 74 0 100 -2 26 -3 2 -3 -53z"/>
<path d="M1268 1983 c-14 -3 -18 -15 -18 -51 0 -34 3 -43 10 -32 5 8 10 23 10
33 0 11 12 22 30 28 54 19 26 37 -32 22z"/>
<path d="M1761 1974 c0 -11 3 -14 6 -6 3 7 2 16 -1 19 -3 4 -6 -2 -5 -13z"/>
<path d="M1166 1969 c3 -5 -2 -6 -11 -2 -22 8 -35 -13 -35 -56 0 -30 2 -33 23
-27 12 3 28 6 35 6 6 0 12 10 12 23 0 12 6 31 14 42 13 18 11 20 -15 21 -16 1
-26 -3 -23 -7z"/>
<path d="M4830 1961 c0 -25 6 -27 13 -6 4 8 2 17 -3 20 -6 4 -10 -3 -10 -14z"/>
<path d="M6062 1956 c-14 -32 -12 -39 7 -27 7 5 11 19 9 32 -4 24 -5 24 -16
-5z"/>
<path d="M4240 1960 c0 -5 7 -10 15 -10 8 0 15 5 15 10 0 6 -7 10 -15 10 -8 0
-15 -4 -15 -10z"/>
<path d="M1481 1944 c0 -11 3 -14 6 -6 3 7 2 16 -1 19 -3 4 -6 -2 -5 -13z"/>
<path d="M1608 1953 c7 -3 16 -2 19 1 4 3 -2 6 -13 5 -11 0 -14 -3 -6 -6z"/>
<path d="M1500 1946 c0 -2 7 -6 15 -10 8 -3 15 -1 15 4 0 6 -7 10 -15 10 -8 0
-15 -2 -15 -4z"/>
<path d="M5995 1939 c-4 -6 -5 -12 -2 -15 2 -3 7 2 10 11 7 17 1 20 -8 4z"/>
<path d="M1212 1915 c0 -16 2 -22 5 -12 2 9 2 23 0 30 -3 6 -5 -1 -5 -18z"/>
<path d="M1717 1933 c-13 -3 -17 -12 -15 -31 3 -23 8 -27 41 -30 30 -3 37 0
37 15 0 14 -2 15 -9 4 -12 -18 -58 -7 -58 14 0 9 12 18 26 21 14 3 31 7 36 9
15 5 -38 3 -58 -2z"/>
<path d="M1671 1925 c-2 -5 -4 -19 -5 -30 -1 -13 -13 -23 -41 -32 l-40 -13 45
5 c24 3 46 8 48 9 2 2 2 19 -1 38 -2 18 -5 29 -6 23z"/>
<path d="M3677 1913 c-13 -12 -7 -23 11 -22 10 0 12 3 4 6 -6 2 -10 9 -6 14 6
10 0 12 -9 2z"/>
<path d="M4550 1909 c0 -5 9 -9 20 -9 11 0 20 2 20 4 0 2 -9 6 -20 9 -11 3
-20 1 -20 -4z"/>
<path d="M4687 1901 c-4 -17 -3 -21 5 -13 5 5 8 16 6 23 -3 8 -7 3 -11 -10z"/>
<path d="M985 1846 c0 -48 2 -51 28 -54 15 -2 27 -7 27 -12 0 -7 16 -8 63 -1
5 0 7 17 5 37 -3 33 -7 37 -36 40 -18 2 -32 3 -32 1 0 -1 4 -17 9 -35 10 -35
10 -35 -13 -26 -10 4 -16 18 -16 35 0 16 -4 29 -10 29 -5 0 -10 7 -10 16 0 8
5 12 10 9 6 -3 10 -2 10 4 0 5 -8 9 -17 8 -15 -1 -18 -11 -18 -51z"/>
<path d="M1388 1882 c-20 -12 -28 -25 -28 -44 0 -25 3 -28 36 -28 19 0 42 7
50 15 9 8 11 15 5 15 -15 0 -14 33 1 48 19 19 -32 15 -64 -6z"/>
<path d="M3718 1893 c7 -3 16 -2 19 1 4 3 -2 6 -13 5 -11 0 -14 -3 -6 -6z"/>
<path d="M4830 1871 c0 -34 13 -39 36 -16 12 12 12 15 2 15 -10 0 -9 3 2 10 9
6 10 10 3 10 -6 0 -18 3 -27 6 -13 5 -16 -1 -16 -25z"/>
<path d="M1253 1875 c-11 -8 -13 -21 -8 -48 7 -37 7 -37 49 -30 48 7 56 16 56
61 0 32 -1 32 -41 30 -23 -2 -48 -8 -56 -13z"/>
<path d="M6020 1879 c0 -5 5 -7 10 -4 6 3 10 8 10 11 0 2 -4 4 -10 4 -5 0 -10
-5 -10 -11z"/>
<path d="M620 1869 c0 -5 5 -7 10 -4 6 3 10 8 10 11 0 2 -4 4 -10 4 -5 0 -10
-5 -10 -11z"/>
<path d="M1165 1871 c-39 -6 -40 -7 -42 -47 -3 -49 5 -54 65 -42 38 8 42 12
42 38 0 32 -9 61 -19 59 -3 -1 -24 -5 -46 -8z"/>
<path d="M930 1860 c0 -5 -7 -10 -15 -10 -21 0 -21 -66 1 -74 21 -8 24 -8 24
4 0 6 -8 10 -17 11 -14 0 -13 2 5 9 24 10 30 30 10 30 -8 1 -6 6 4 14 10 7 15
16 11 19 -10 10 -23 8 -23 -3z"/>
<path d="M1595 1810 c2 -8 4 -18 4 -22 1 -5 16 -8 34 -7 30 1 30 1 7 9 -25 7
-25 7 10 23 l35 16 -46 -2 c-36 -1 -46 -5 -44 -17z"/>
<path d="M6050 1805 c0 -16 6 -25 15 -25 9 0 15 9 15 25 0 16 -6 25 -15 25 -9
0 -15 -9 -15 -25z"/>
<path d="M790 1813 c-16 -7 -39 -33 -40 -45 0 -5 9 -8 21 -8 11 0 17 -4 14
-10 -9 -15 0 -12 39 11 42 24 41 23 20 43 -16 17 -28 19 -54 9z"/>
<path d="M1508 1813 c-11 -3 -18 -14 -18 -29 0 -14 4 -22 10 -19 6 3 10 0 10
-9 0 -8 -6 -17 -12 -19 -20 -8 34 -6 62 2 l25 7 -22 12 c-20 11 -23 10 -23 -5
0 -12 -3 -14 -11 -6 -12 12 -2 56 11 48 4 -3 13 2 20 10 10 13 9 15 -11 14
-13 -1 -32 -3 -41 -6z m12 -23 c0 -5 -4 -10 -10 -10 -5 0 -10 5 -10 10 0 6 5
10 10 10 6 0 10 -4 10 -10z"/>
<path d="M5413 1783 c9 -9 19 -14 23 -11 10 10 -6 28 -24 28 -15 0 -15 -1 1
-17z"/>
<path d="M8400 1770 c0 -16 5 -30 10 -30 6 0 10 14 10 30 0 17 -4 30 -10 30
-5 0 -10 -13 -10 -30z"/>
<path d="M1300 1770 c0 -5 -13 -7 -30 -3 -25 5 -29 3 -24 -11 3 -9 9 -16 13
-16 4 0 8 -7 8 -15 0 -8 -4 -15 -9 -15 -5 0 -7 -3 -4 -8 2 -4 25 -6 50 -4 43
4 45 5 43 33 -1 16 -8 29 -14 29 -7 0 -13 5 -13 10 0 6 -4 10 -10 10 -5 0 -10
-4 -10 -10z m27 -26 c-3 -3 -12 -4 -19 -1 -8 3 -5 6 6 6 11 1 17 -2 13 -5z"/>
<path d="M1700 1769 c0 -5 5 -7 10 -4 6 3 10 8 10 11 0 2 -4 4 -10 4 -5 0 -10
-5 -10 -11z"/>
<path d="M1608 1763 c-10 -2 -18 -8 -18 -13 0 -7 48 1 85 15 15 5 -47 4 -67
-2z"/>
<path d="M1051 1697 c-1 -53 3 -69 24 -97 17 -23 25 -28 25 -17 0 9 4 17 10
17 5 0 8 10 6 23 -2 16 -11 23 -32 26 -29 4 -29 4 -4 10 22 6 25 13 28 54 3
46 3 47 -26 47 -30 0 -30 0 -31 -63z"/>
<path d="M1153 1753 c9 -2 25 -2 35 0 9 3 1 5 -18 5 -19 0 -27 -2 -17 -5z"/>
<path d="M1175 1740 c-22 -4 -30 -8 -18 -9 12 0 25 -5 28 -11 11 -17 31 -11
32 10 1 11 1 19 0 19 -1 -1 -20 -5 -42 -9z"/>
<path d="M1738 1743 c7 -3 16 -2 19 1 4 3 -2 6 -13 5 -11 0 -14 -3 -6 -6z"/>
<path d="M1670 1723 c0 -23 -22 -45 -41 -41 -7 2 -15 -5 -17 -14 -4 -21 16
-23 50 -5 20 10 24 19 21 42 -5 35 -13 47 -13 18z"/>
<path d="M1818 1723 c6 -2 18 -2 25 0 6 3 1 5 -13 5 -14 0 -19 -2 -12 -5z"/>
<path d="M3993 1723 c9 -2 25 -2 35 0 9 3 1 5 -18 5 -19 0 -27 -2 -17 -5z"/>
<path d="M4058 1723 c7 -3 16 -2 19 1 4 3 -2 6 -13 5 -11 0 -14 -3 -6 -6z"/>
<path d="M1140 1706 c0 -8 -6 -16 -12 -19 -7 -2 -10 -8 -5 -12 4 -5 28 -1 55
7 39 13 42 16 20 17 -16 1 -28 6 -28 11 0 6 -7 10 -15 10 -8 0 -15 -6 -15 -14z"/>
<path d="M1620 1709 c0 -5 5 -7 10 -4 6 3 10 8 10 11 0 2 -4 4 -10 4 -5 0 -10
-5 -10 -11z"/>
<path d="M1870 1710 c0 -6 -12 -8 -31 -5 -22 4 -30 2 -27 -7 3 -8 17 -12 34
-10 34 4 51 17 35 26 -6 4 -11 2 -11 -4z"/>
<path d="M690 1700 c0 -5 4 -10 9 -10 6 0 13 5 16 10 3 6 -1 10 -9 10 -9 0
-16 -4 -16 -10z"/>
<path d="M955 1699 c-27 -5 -138 -20 -245 -34 -317 -42 -340 -46 -340 -61 0
-17 -4 -17 116 1 54 8 105 15 112 15 7 0 11 3 9 8 -3 4 21 8 53 9 32 1 77 7
101 14 24 6 55 11 69 11 47 0 210 30 210 39 0 10 -15 10 -85 -2z"/>
<path d="M1510 1703 c0 -4 5 -15 10 -23 8 -13 10 -13 10 2 0 9 -4 20 -10 23
-5 3 -10 3 -10 -2z"/>
<path d="M1760 1690 c-12 -8 -10 -10 8 -10 13 0 20 4 17 10 -7 12 -6 12 -25 0z"/>
<path d="M4720 1670 c0 -5 5 -10 10 -10 6 0 10 5 10 10 0 6 -4 10 -10 10 -5 0
-10 -4 -10 -10z"/>
<path d="M4614 1628 c11 -6 33 -14 50 -18 17 -4 40 -11 51 -15 20 -7 20 -6 1
9 -11 9 -30 16 -43 16 -13 0 -23 5 -23 10 0 6 -12 10 -27 10 -26 -1 -26 -2 -9
-12z"/>
<path d="M1370 1613 c0 -9 7 -9 30 -2 17 6 30 13 30 15 0 2 -13 3 -30 2 -16
-1 -30 -8 -30 -15z"/>
<path d="M1610 1620 c-13 -8 -13 -10 2 -10 9 0 20 5 23 10 8 13 -5 13 -25 0z"/>
<path d="M1508 1613 c-13 -3 -18 -15 -18 -42 0 -38 0 -38 37 -34 46 5 45 4 48
48 2 32 0 35 -24 34 -14 -1 -34 -3 -43 -6z"/>
<path d="M1718 1603 c6 -3 12 -9 12 -14 0 -6 -4 -8 -9 -4 -5 3 -12 1 -16 -5
-3 -5 3 -10 14 -10 12 0 21 5 21 10 0 7 6 7 19 1 19 -11 31 -6 31 14 0 6 -18
11 -42 12 -24 0 -37 -2 -30 -4z"/>
<path d="M1398 1593 c-28 -4 -38 -26 -18 -38 6 -4 8 -15 5 -25 -5 -15 0 -17
35 -14 54 5 61 10 51 37 -5 12 -8 26 -7 31 1 10 -27 14 -66 9z"/>
<path d="M1607 1593 c-4 -3 -7 -15 -7 -25 0 -14 5 -17 23 -13 12 3 31 7 43 7
12 1 21 10 22 22 1 17 -1 18 -9 6 -8 -11 -12 -12 -16 -2 -5 13 -45 17 -56 5z"/>
<path d="M4155 1549 c-9 -14 -2 -20 40 -35 33 -11 52 0 20 12 -8 4 -15 12 -15
20 0 16 -36 19 -45 3z"/>
<path d="M3335 1340 c4 -6 11 -8 16 -5 14 9 11 15 -7 15 -8 0 -12 -5 -9 -10z"/>
<path d="M500 1291 c0 -5 9 -7 20 -4 11 3 20 7 20 9 0 2 -9 4 -20 4 -11 0 -20
-4 -20 -9z"/>
<path d="M2900 1280 c0 -5 5 -10 11 -10 5 0 7 5 4 10 -3 6 -8 10 -11 10 -2 0
-4 -4 -4 -10z"/>
<path d="M3300 1220 c0 -5 5 -10 10 -10 6 0 10 5 10 10 0 6 -4 10 -10 10 -5 0
-10 -4 -10 -10z"/>
<path d="M380 1191 c16 -11 15 -13 -15 -29 -18 -11 -18 -11 8 -12 24 0 28 4
25 22 -2 12 -10 23 -18 25 -13 4 -13 3 0 -6z"/>
<path d="M2950 1160 c0 -5 5 -10 10 -10 6 0 10 5 10 10 0 6 -4 10 -10 10 -5 0
-10 -4 -10 -10z"/>
<path d="M500 1150 c-8 -5 -45 -12 -82 -16 -39 -4 -68 -11 -69 -18 -1 -6 -2
-48 -3 -93 -1 -97 -6 -94 114 -64 52 12 76 23 78 34 3 15 14 21 35 18 9 -1 9
23 0 33 -10 10 -11 46 -1 46 4 0 8 9 8 20 0 12 -5 17 -14 14 -8 -3 -17 -1 -21
5 -3 7 2 11 14 11 12 0 21 5 21 10 0 13 -6 13 -40 -5 -17 -9 -30 -11 -30 -6 0
5 6 12 13 14 6 3 8 6 2 6 -5 0 -17 -4 -25 -9z m-9 -29 c-11 -7 -10 -11 5 -20
18 -11 17 -12 -3 -6 -12 3 -24 2 -26 -3 -3 -4 4 -9 15 -9 27 -2 28 -5 21 -31
-3 -12 -9 -19 -14 -16 -5 3 -9 0 -9 -6 0 -6 -5 -8 -10 -5 -8 5 -8 11 -1 19 15
18 3 27 -25 20 -14 -4 -24 -2 -24 4 0 19 45 62 65 62 15 0 17 -2 6 -9z m54
-11 c8 -13 -5 -13 -25 0 -13 8 -13 10 2 10 9 0 20 -4 23 -10z m-43 -112 c-9
-9 -15 -9 -24 0 -9 9 -7 12 12 12 19 0 21 -3 12 -12z"/>
<path d="M8472 1044 c0 -65 4 -101 9 -93 12 19 11 199 -1 199 -5 0 -9 -45 -8
-106z"/>
<path d="M3268 1083 c7 -3 16 -2 19 1 4 3 -2 6 -13 5 -11 0 -14 -3 -6 -6z"/>
<path d="M295 1040 c-3 -5 1 -10 9 -10 9 0 16 5 16 10 0 6 -4 10 -9 10 -6 0
-13 -4 -16 -10z"/>
<path d="M2995 1040 c-3 -5 1 -10 9 -10 9 0 16 5 16 10 0 6 -4 10 -9 10 -6 0
-13 -4 -16 -10z"/>
<path d="M470 939 c-41 -10 -85 -21 -97 -24 -28 -7 -32 -51 -5 -58 16 -4 16
-5 0 -6 -14 -1 -18 -10 -18 -46 0 -29 4 -45 13 -45 8 0 7 -4 -3 -10 -22 -14
-1 -13 93 5 43 8 81 15 83 15 3 0 9 10 14 23 6 16 9 18 9 5 1 -11 6 -15 16
-12 21 9 19 17 -12 38 -16 9 -21 15 -12 13 9 -3 21 -2 28 3 18 10 -3 50 -27
51 -10 0 -12 3 -4 6 17 7 15 23 -3 23 -20 0 -19 17 3 29 24 14 9 12 -78 -10z
m-18 -28 c2 -6 15 -11 29 -13 15 -2 33 -9 40 -15 8 -5 21 -13 29 -16 9 -3 4
-6 -12 -6 -14 -1 -28 -6 -30 -12 -4 -11 -74 -30 -82 -21 -3 3 -1 11 5 18 8 10
5 15 -16 20 -18 5 -23 9 -14 14 7 5 23 4 36 -1 37 -14 41 -11 10 9 -15 10 -24
22 -20 25 9 10 21 9 25 -2z"/>
<path d="M562 945 c-11 -12 -10 -15 3 -15 8 0 15 7 15 15 0 18 -2 18 -18 0z"/>
<path d="M610 910 c0 -5 5 -10 10 -10 6 0 10 5 10 10 0 6 -4 10 -10 10 -5 0
-10 -4 -10 -10z"/>
<path d="M7794 889 c-3 -5 6 -9 20 -9 31 0 34 6 6 13 -11 3 -23 1 -26 -4z"/>
<path d="M636 875 c-9 -26 -7 -32 5 -12 6 10 9 21 6 23 -2 3 -7 -2 -11 -11z"/>
<path d="M5740 855 c-8 -9 -8 -15 -2 -15 12 0 26 19 19 26 -2 2 -10 -2 -17
-11z"/>
<path d="M4572 828 c16 -10 45 -10 51 0 3 4 -10 7 -29 8 -21 0 -30 -3 -22 -8z"/>
<path d="M610 813 c0 -14 10 -16 34 -7 25 10 19 24 -9 22 -14 -1 -25 -8 -25
-15z"/>
<path d="M8045 820 c3 -5 13 -10 21 -10 8 0 12 5 9 10 -3 6 -13 10 -21 10 -8
0 -12 -4 -9 -10z"/>
<path d="M8466 702 c-7 -113 -10 -131 -22 -121 -8 6 -14 8 -14 3 0 -5 -6 -2
-13 7 -10 13 -15 14 -24 4 -16 -17 4 -35 42 -39 15 -2 30 -9 35 -16 15 -24 17
7 11 150 l-6 145 -9 -133z"/>
<path d="M580 756 c0 -7 -7 -20 -16 -27 -15 -12 -16 -11 -10 9 6 17 4 21 -8
16 -9 -3 -16 -10 -16 -15 0 -5 -11 -7 -25 -3 -25 6 -121 -13 -142 -29 -8 -5
-12 -34 -12 -75 1 -112 11 -123 66 -72 37 35 48 37 62 13 8 -15 12 -16 22 -5
7 6 23 12 36 12 16 0 21 4 17 15 -4 9 1 18 11 21 11 5 15 14 11 30 -3 12 -1
26 5 30 8 4 7 9 -2 15 -9 5 -10 9 -2 9 6 0 11 15 11 35 0 19 -2 35 -4 35 -2 0
-4 -6 -4 -14z m-60 -51 c0 -8 -4 -15 -10 -15 -5 0 -10 7 -10 15 0 8 5 15 10
15 6 0 10 -7 10 -15z m-120 1 c0 -3 -4 -8 -10 -11 -5 -3 -10 -1 -10 4 0 6 5
11 10 11 6 0 10 -2 10 -4z m120 -36 c0 -5 -6 -10 -14 -10 -8 0 -23 -3 -33 -6
-10 -3 -7 2 7 10 30 18 40 20 40 6z m-82 -29 c3 -8 -1 -12 -9 -9 -7 2 -15 10
-17 17 -3 8 1 12 9 9 7 -2 15 -10 17 -17z m72 -1 c0 -5 -4 -10 -9 -10 -5 0
-18 -3 -28 -6 -16 -6 -16 -5 2 9 23 19 35 21 35 7z m40 -20 c0 -5 -7 -10 -16
-10 -8 0 -12 -4 -9 -10 3 -5 1 -10 -4 -10 -14 0 -14 13 1 28 15 15 28 16 28 2z
m-145 -40 c-3 -5 -12 -10 -18 -10 -7 0 -6 4 3 10 19 12 23 12 15 0z"/>
<path d="M120 629 c0 -5 5 -7 10 -4 6 3 10 8 10 11 0 2 -4 4 -10 4 -5 0 -10
-5 -10 -11z"/>
<path d="M765 609 c-57 -14 -133 -37 -144 -43 -6 -4 -11 -23 -11 -42 0 -25 4
-34 16 -34 12 0 14 -4 6 -12 -16 -21 -22 -52 -13 -66 6 -10 17 -11 54 -1 26 6
47 15 47 19 0 4 12 6 28 4 15 -2 21 -1 14 2 -10 5 -10 9 -1 20 17 20 40 18 33
-3 -5 -16 -4 -16 10 1 8 10 19 15 25 11 7 -4 11 4 11 19 0 14 -4 26 -10 26 -5
0 -10 7 -10 15 0 8 5 15 11 15 8 0 8 5 -1 15 -10 12 -10 15 0 15 8 0 11 3 7 6
-7 8 -73 -24 -89 -43 -11 -14 -8 -15 24 -11 42 4 42 -7 1 -15 -16 -3 -34 0
-42 6 -7 6 -28 10 -46 8 -18 -1 -36 2 -40 8 -6 11 6 15 32 12 6 -1 14 3 18 9
3 5 19 10 36 10 16 0 29 5 29 11 0 6 -9 8 -22 3 -20 -6 -21 -5 -6 10 20 19 38
21 38 4 1 -9 4 -8 13 2 7 8 22 14 35 12 12 -2 22 1 22 7 0 12 -27 11 -75 0z"/>
<path d="M618 603 c7 -3 16 -2 19 1 4 3 -2 6 -13 5 -11 0 -14 -3 -6 -6z"/>
<path d="M5080 600 c0 -5 4 -10 9 -10 6 0 13 5 16 10 3 6 -1 10 -9 10 -9 0
-16 -4 -16 -10z"/>
<path d="M8305 590 c3 -5 8 -10 11 -10 2 0 4 5 4 10 0 6 -5 10 -11 10 -5 0 -7
-4 -4 -10z"/>
<path d="M8335 580 c3 -5 10 -10 16 -10 5 0 9 5 9 10 0 6 -7 10 -16 10 -8 0
-12 -4 -9 -10z"/>
<path d="M4993 563 c-18 -9 -33 -22 -33 -28 0 -7 -12 -17 -26 -24 -15 -6 -24
-14 -22 -17 7 -6 55 14 90 39 16 10 32 16 37 13 10 -7 23 19 14 28 -10 9 -25
6 -60 -11z"/>
<path d="M560 551 c0 -4 -12 -6 -27 -3 -24 5 -26 3 -15 -10 14 -18 48 -13 56
8 3 8 1 14 -4 14 -6 0 -10 -4 -10 -9z"/>
<path d="M4916 531 c-4 -5 3 -7 14 -4 23 6 26 13 6 13 -8 0 -17 -4 -20 -9z"/>
<path d="M550 493 c0 -17 15 -16 30 1 9 12 8 15 -9 13 -12 -1 -21 -7 -21 -14z"/>
<path d="M4870 495 c-7 -8 -21 -15 -31 -15 -19 0 -35 -17 -25 -27 6 -6 86 43
86 52 0 10 -18 4 -30 -10z"/>
<path d="M825 420 c3 -5 8 -10 11 -10 2 0 4 5 4 10 0 6 -5 10 -11 10 -5 0 -7
-4 -4 -10z"/>
<path d="M862 385 c-1 -26 1 -35 7 -26 5 7 15 18 22 23 11 8 10 9 -3 4 -12 -3
-18 2 -21 17 -2 12 -5 4 -5 -18z"/>
<path d="M720 400 l-25 -8 25 -1 c14 0 32 4 40 9 13 9 13 10 0 9 -8 -1 -26 -5
-40 -9z"/>
<path d="M1010 360 c20 -13 33 -13 25 0 -3 6 -14 10 -23 10 -15 0 -15 -2 -2
-10z"/>
<path d="M805 350 c-3 -5 -1 -10 4 -10 6 0 11 5 11 10 0 6 -2 10 -4 10 -3 0
-8 -4 -11 -10z"/>
<path d="M917 353 c-28 -3 -37 -8 -33 -19 3 -7 0 -13 -6 -11 -6 1 -13 -5 -16
-13 -2 -8 -2 -12 2 -8 4 3 21 2 37 -2 17 -5 31 -5 35 1 3 6 12 8 20 5 8 -3 11
0 7 10 -4 12 0 14 20 9 14 -4 34 -2 44 5 16 10 16 10 -4 5 -28 -8 -66 3 -58
16 4 5 3 8 -2 7 -4 -1 -25 -3 -46 -5z m33 -28 c-7 -8 -19 -15 -27 -15 -13 0
-13 3 -3 15 7 8 19 15 27 15 13 0 13 -3 3 -15z"/>
<path d="M4110 330 c-30 -16 -51 -29 -47 -30 10 0 107 49 107 55 0 7 1 7 -60
-25z"/>
<path d="M4065 340 c-3 -5 -2 -10 4 -10 5 0 13 5 16 10 3 6 2 10 -4 10 -5 0
-13 -4 -16 -10z"/>
<path d="M4570 330 c-13 -8 -12 -10 3 -10 9 0 17 5 17 10 0 12 -1 12 -20 0z"/>
<path d="M790 301 c0 -6 4 -13 10 -16 6 -3 7 1 4 9 -7 18 -14 21 -14 7z"/>
<path d="M4030 290 c-9 -6 -10 -10 -3 -10 6 0 15 5 18 10 8 12 4 12 -15 0z"/>
<path d="M868 283 c6 -2 18 -2 25 0 6 3 1 5 -13 5 -14 0 -19 -2 -12 -5z"/>
<path d="M8128 268 c5 -5 16 -8 23 -6 8 3 3 7 -10 11 -17 4 -21 3 -13 -5z"/>
<path d="M4460 250 c-14 -11 -22 -20 -19 -20 9 0 69 31 69 36 0 10 -27 2 -50
-16z"/>
<path d="M8460 260 c-13 -8 -12 -10 3 -10 9 0 17 5 17 10 0 12 -1 12 -20 0z"/>
<path d="M3848 243 c7 -3 16 -2 19 1 4 3 -2 6 -13 5 -11 0 -14 -3 -6 -6z"/>
<path d="M860 220 c0 -5 5 -10 10 -10 6 0 10 5 10 10 0 6 -4 10 -10 10 -5 0
-10 -4 -10 -10z"/>
<path d="M3868 212 c-41 -25 -34 -35 7 -11 19 12 35 23 35 25 0 8 -16 3 -42
-14z"/>
<path d="M777 194 c6 -15 23 -19 23 -5 0 5 -7 11 -14 14 -10 4 -13 1 -9 -9z"/>
<path d="M815 188 c-11 -24 -53 -28 -66 -6 -9 13 -89 4 -118 -14 -16 -10 -20
-26 -23 -90 l-3 -78 39 0 c22 0 58 9 80 19 23 10 52 22 66 25 42 10 50 19 42
49 -5 20 -10 24 -22 17 -13 -9 -13 -11 0 -20 12 -8 10 -9 -9 -7 -36 5 -36 21
-1 34 27 10 30 16 30 52 0 47 -2 49 -15 19z m-57 -41 c2 -11 -3 -17 -14 -17
-10 0 -14 3 -11 7 4 3 1 13 -5 21 -10 12 -9 14 7 11 11 -3 21 -12 23 -22z m39
-13 c-3 -3 -12 -4 -19 -1 -8 3 -5 6 6 6 11 1 17 -2 13 -5z"/>
<path d="M4355 192 c-16 -10 -35 -23 -43 -29 -11 -11 -9 -13 12 -13 23 0 66
33 66 52 0 10 2 10 -35 -10z"/>
<path d="M8404 184 c3 -9 6 -18 6 -20 0 -2 5 -4 11 -4 8 0 9 4 0 13 -6 8 -8
17 -4 20 3 4 1 7 -6 7 -8 0 -11 -6 -7 -16z"/>
<path d="M3720 137 c-19 -12 -36 -25 -38 -29 -2 -4 -10 -8 -17 -8 -11 0 -40
-14 -156 -75 -11 -5 -19 -13 -19 -17 0 -4 46 17 103 46 144 74 199 108 170
105 -5 0 -24 -10 -43 -22z"/>
<path d="M8442 151 c-8 -5 -15 -20 -15 -35 -1 -14 -8 -26 -14 -26 -7 0 -13 -4
-13 -8 0 -12 52 -58 73 -65 15 -6 17 0 17 42 0 30 -5 51 -12 54 -10 4 -10 8 1
15 28 20 -8 42 -37 23z"/>
<path d="M4276 126 c3 -8 12 -12 21 -9 12 5 12 7 1 14 -20 13 -28 11 -22 -5z"/>
<path d="M3548 118 c-16 -5 -28 -14 -28 -19 0 -14 13 -10 40 11 28 22 27 23
-12 8z"/>
<path d="M4230 115 c-10 -12 -10 -15 4 -15 9 0 16 7 16 15 0 8 -2 15 -4 15 -2
0 -9 -7 -16 -15z"/>
<path d="M2589 70 l-24 -19 24 -1 c13 0 21 3 18 7 -4 3 1 12 11 19 9 7 12 14
6 14 -7 0 -22 -9 -35 -20z"/>
<path d="M3469 62 c-11 -14 -22 -20 -33 -16 -12 5 -16 0 -16 -22 0 -16 4 -24
8 -18 4 6 25 18 47 27 22 9 35 16 28 16 -6 1 -13 9 -15 19 -3 15 -5 14 -19 -6z"/>
<path d="M3530 70 c-8 -5 -12 -12 -9 -15 4 -3 12 1 19 10 14 17 11 19 -10 5z"/>
<path d="M2850 54 l-25 -15 25 7 c28 7 35 12 29 18 -2 2 -15 -2 -29 -10z"/>
<path d="M2512 44 c-12 -8 -22 -12 -22 -7 0 4 -4 3 -8 -3 -4 -6 -20 -16 -37
-22 -29 -10 -28 -11 18 -10 32 1 47 5 47 15 0 7 11 13 25 13 16 0 25 6 25 15
0 19 -20 19 -48 -1z"/>
<path d="M2970 50 c-18 -12 -2 -12 25 0 13 6 15 9 5 9 -8 0 -22 -4 -30 -9z"/>
<path d="M2690 29 c0 -5 5 -7 10 -4 6 3 10 8 10 11 0 2 -4 4 -10 4 -5 0 -10
-5 -10 -11z"/>
<path d="M2920 30 c-9 -6 -10 -10 -3 -10 6 0 15 5 18 10 8 12 4 12 -15 0z"/>
<path d="M773 19 c-47 -14 -41 -19 22 -19 44 0 53 3 49 15 -7 17 -24 18 -71 4z"/>
<path d="M3361 14 c0 -11 3 -14 6 -6 3 7 2 16 -1 19 -3 4 -6 -2 -5 -13z"/>
<path d="M4550 10 c-12 -8 -9 -10 13 -10 16 0 26 4 22 10 -8 12 -16 12 -35 0z"/>
<path d="M2878 3 c7 -3 16 -2 19 1 4 3 -2 6 -13 5 -11 0 -14 -3 -6 -6z"/>
</g>
</svg>
