<?xml version="1.0" encoding="UTF-8"?>
<!DOCTYPE svg PUBLIC "-//W3C//DTD SVG 1.1//EN" "http://www.w3.org/Graphics/SVG/1.1/DTD/svg11.dtd">
<svg xmlns="http://www.w3.org/2000/svg" version="1.1" width="512px" height="512px" style="shape-rendering:geometricPrecision; text-rendering:geometricPrecision; image-rendering:optimizeQuality; fill-rule:evenodd; clip-rule:evenodd" xmlns:xlink="http://www.w3.org/1999/xlink">
<g><path style="opacity:1" fill="#fcfcfc" d="M -0.5,-0.5 C 170.167,-0.5 340.833,-0.5 511.5,-0.5C 511.5,170.167 511.5,340.833 511.5,511.5C 340.833,511.5 170.167,511.5 -0.5,511.5C -0.5,340.833 -0.5,170.167 -0.5,-0.5 Z"/></g>
<g><path style="opacity:1" fill="#aaaaaa" d="M 47.5,101.5 C 45.3432,102.407 43.0098,103.073 40.5,103.5C 40.6107,102.883 40.944,102.383 41.5,102C 43.4727,101.505 45.4727,101.338 47.5,101.5 Z"/></g>
<g><path style="opacity:1" fill="#050505" d="M 47.5,101.5 C 187.834,101.333 328.167,101.5 468.5,102C 481.794,105.726 490.294,114.226 494,127.5C 494.667,172.833 494.667,218.167 494,263.5C 488.336,288.666 472.836,303.333 447.5,307.5C 319.833,307.667 192.166,307.5 64.5,307C 63.9747,306.308 63.3081,305.808 62.5,305.5C 60.9291,306.309 59.2624,306.643 57.5,306.5C 38.9592,301.29 26.6259,289.623 20.5,271.5C 19.4009,267.07 18.4009,262.737 17.5,258.5C 17.3333,214.832 17.5,171.165 18,127.5C 21.2568,115.413 28.7568,107.413 40.5,103.5C 43.0098,103.073 45.3432,102.407 47.5,101.5 Z"/></g>
<g><path style="opacity:1" fill="#f9f9f9" d="M 47.5,128.5 C 52.1667,128.5 56.8333,128.5 61.5,128.5C 61.3335,140.838 61.5001,153.171 62,165.5C 62.2321,166.737 62.7321,167.737 63.5,168.5C 68.7688,189.6 82.1021,202.434 103.5,207C 204.833,207.667 306.167,207.667 407.5,207C 426.548,203.003 439.881,192.169 447.5,174.5C 449.04,172.162 449.706,169.495 449.5,166.5C 449.5,165.833 449.5,165.167 449.5,164.5C 450.495,152.678 450.828,140.678 450.5,128.5C 455.167,128.5 459.833,128.5 464.5,128.5C 465.688,129.364 466.855,130.364 468,131.5C 468.667,174.5 468.667,217.5 468,260.5C 464.724,272.11 457.224,279.277 445.5,282C 318.833,282.667 192.167,282.667 65.5,282C 53.4875,278.652 46.3209,270.819 44,258.5C 43.3333,216.167 43.3333,173.833 44,131.5C 45.0391,130.29 46.2058,129.29 47.5,128.5 Z"/></g>
<g><path style="opacity:1" fill="#fdfdfd" d="M 423.5,161.5 C 421.954,170.884 416.62,177.05 407.5,180C 306.5,180.667 205.5,180.667 104.5,180C 95.6603,177.335 90.6603,171.502 89.5,162.5C 89.5,151.167 89.5,139.833 89.5,128.5C 200.833,128.5 312.167,128.5 423.5,128.5C 423.5,139.5 423.5,150.5 423.5,161.5 Z"/></g>
<g><path style="opacity:1" fill="#aaaaaa" d="M 47.5,128.5 C 52.3054,127.513 57.3054,127.179 62.5,127.5C 62.2396,141.196 62.5729,154.863 63.5,168.5C 62.7321,167.737 62.2321,166.737 62,165.5C 61.5001,153.171 61.3335,140.838 61.5,128.5C 56.8333,128.5 52.1667,128.5 47.5,128.5 Z"/></g>
<g><path style="opacity:1" fill="#9c9c9c" d="M 423.5,161.5 C 423.5,150.5 423.5,139.5 423.5,128.5C 312.167,128.5 200.833,128.5 89.5,128.5C 89.5,139.833 89.5,151.167 89.5,162.5C 88.5051,151.012 88.1717,139.345 88.5,127.5C 200.5,127.5 312.5,127.5 424.5,127.5C 424.828,139.012 424.495,150.346 423.5,161.5 Z"/></g>
<g><path style="opacity:1" fill="#8a8a8a" d="M 464.5,128.5 C 459.833,128.5 455.167,128.5 450.5,128.5C 450.828,140.678 450.495,152.678 449.5,164.5C 449.5,152.167 449.5,139.833 449.5,127.5C 454.695,127.179 459.695,127.513 464.5,128.5 Z"/></g>
<g><path style="opacity:1" fill="#a4a4a4" d="M 449.5,166.5 C 449.706,169.495 449.04,172.162 447.5,174.5C 447.565,171.572 448.232,168.905 449.5,166.5 Z"/></g>
<g><path style="opacity:1" fill="#040404" d="M 69.5,241.5 C 193.167,241.333 316.834,241.5 440.5,242C 449.839,246.389 452.006,253.222 447,262.5C 444.749,264.377 442.249,265.877 439.5,267C 316.5,267.667 193.5,267.667 70.5,267C 60.1858,258.93 59.8525,250.43 69.5,241.5 Z"/></g>
<g><path style="opacity:1" fill="#bbbbbb" d="M 17.5,258.5 C 18.4009,262.737 19.4009,267.07 20.5,271.5C 17.9645,267.645 16.9645,263.312 17.5,258.5 Z"/></g>
<g><path style="opacity:1" fill="#0d0d0d" d="M 447.5,307.5 C 319.667,308.666 191.667,308.833 63.5,308C 61.2922,307.809 59.2922,307.309 57.5,306.5C 59.2624,306.643 60.9291,306.309 62.5,305.5C 63.3081,305.808 63.9747,306.308 64.5,307C 192.166,307.5 319.833,307.667 447.5,307.5 Z"/></g>
<g><path style="opacity:1" fill="#060606" d="M 164.5,324.5 C 178.543,323.609 183.876,329.942 180.5,343.5C 178.833,345.5 177.167,347.5 175.5,349.5C 183.293,354.459 189.127,361.126 193,369.5C 195.037,379.79 193.037,389.123 187,397.5C 184.053,401.57 180.553,405.07 176.5,408C 164.665,413.247 157.998,409.414 156.5,396.5C 156.667,394.833 156.833,393.167 157,391.5C 160.646,388.184 163.979,384.518 167,380.5C 167.667,379.167 167.667,377.833 167,376.5C 158.323,371.999 151.323,365.666 146,357.5C 142.009,346.144 144.842,336.978 154.5,330C 157.767,327.87 161.1,326.037 164.5,324.5 Z"/></g>
<g><path style="opacity:1" fill="#060606" d="M 268.5,332.5 C 268.85,337.036 268.183,341.369 266.5,345.5C 264.852,346.81 263.186,348.143 261.5,349.5C 284.145,363.395 287.312,380.728 271,401.5C 265.78,408.363 258.947,411.197 250.5,410C 240.763,400.62 241.263,391.786 252,383.5C 254.916,380.725 255.082,377.892 252.5,375C 243.405,370.871 236.572,364.371 232,355.5C 231.51,354.207 231.343,352.873 231.5,351.5C 231.616,348.14 231.949,344.807 232.5,341.5C 238.35,330.075 247.683,324.575 260.5,325C 263.994,326.662 266.661,329.162 268.5,332.5 Z"/></g>
<g><path style="opacity:1" fill="#060606" d="M 347.5,409.5 C 343.766,409.677 340.099,409.344 336.5,408.5C 331.324,404.8 329.491,399.8 331,393.5C 334.798,388.36 338.632,383.193 342.5,378C 336.692,373.685 330.859,369.185 325,364.5C 321.235,360.971 319.069,356.638 318.5,351.5C 318.616,348.14 318.949,344.807 319.5,341.5C 323.4,333.769 329.4,328.269 337.5,325C 347.976,322.726 354.31,326.726 356.5,337C 356.079,339.185 355.579,341.351 355,343.5C 352.982,345.35 351.149,347.35 349.5,349.5C 368.922,361.248 373.089,376.915 362,396.5C 358.483,399.717 355.316,403.217 352.5,407C 350.807,407.847 349.14,408.68 347.5,409.5 Z"/></g>
<g><path style="opacity:1" fill="#b0b0b0" d="M 268.5,332.5 C 269.643,335.976 269.81,339.642 269,343.5C 268.583,344.756 267.75,345.423 266.5,345.5C 268.183,341.369 268.85,337.036 268.5,332.5 Z"/></g>
<g><path style="opacity:1" fill="#6a6a6a" d="M 232.5,341.5 C 231.949,344.807 231.616,348.14 231.5,351.5C 230.135,348.041 230.469,344.708 232.5,341.5 Z"/></g>
<g><path style="opacity:1" fill="#808080" d="M 319.5,341.5 C 318.949,344.807 318.616,348.14 318.5,351.5C 317.135,348.041 317.469,344.708 319.5,341.5 Z"/></g>
<g><path style="opacity:1" fill="#5c5c5c" d="M 336.5,408.5 C 340.099,409.344 343.766,409.677 347.5,409.5C 344.36,410.641 341.027,410.808 337.5,410C 336.944,409.617 336.611,409.117 336.5,408.5 Z"/></g>
</svg>
