<?xml version="1.0" encoding="UTF-8"?>
<!DOCTYPE svg PUBLIC "-//W3C//DTD SVG 1.1//EN" "http://www.w3.org/Graphics/SVG/1.1/DTD/svg11.dtd">
<svg xmlns="http://www.w3.org/2000/svg" version="1.1" width="413px" height="417px" style="shape-rendering:geometricPrecision; text-rendering:geometricPrecision; image-rendering:optimizeQuality; fill-rule:evenodd; clip-rule:evenodd" xmlns:xlink="http://www.w3.org/1999/xlink">
<g><path style="opacity:1" fill="#fefefe" d="M -0.5,-0.5 C 137.167,-0.5 274.833,-0.5 412.5,-0.5C 412.5,138.5 412.5,277.5 412.5,416.5C 274.833,416.5 137.167,416.5 -0.5,416.5C -0.5,277.5 -0.5,138.5 -0.5,-0.5 Z"/></g>
<g><path style="opacity:1" fill="#46606c" d="M 160.5,52.5 C 192.168,52.3334 223.835,52.5 255.5,53C 264.096,55.9294 269.596,61.7627 272,70.5C 280.681,132.101 288.848,193.767 296.5,255.5C 297.025,279.446 288.692,299.613 271.5,316C 266.655,319.422 261.322,321.755 255.5,323C 223.833,323.667 192.167,323.667 160.5,323C 144.614,318.118 133.447,307.951 127,292.5C 121.415,277.656 119.081,262.322 120,246.5C 128.219,188.198 136.219,129.864 144,71.5C 146.15,62.1882 151.65,55.8549 160.5,52.5 Z"/></g>
<g><path style="opacity:1" fill="#fdfdfd" d="M 161.5,56.5 C 192.168,56.3334 222.835,56.5 253.5,57C 259.793,58.2261 264.293,61.7261 267,67.5C 276.259,130.054 284.759,192.721 292.5,255.5C 292.875,276.896 285.875,295.396 271.5,311C 266.244,315.294 260.244,317.96 253.5,319C 222.833,319.667 192.167,319.667 161.5,319C 145.394,313.561 134.561,302.727 129,286.5C 124.653,271.142 123.319,255.475 125,239.5C 132.333,186.167 139.667,132.833 147,79.5C 146.83,68.4735 151.664,60.8069 161.5,56.5 Z"/></g>
<g><path style="opacity:1" fill="#445e6b" d="M 207.5,124.5 C 209.722,124.178 211.556,124.845 213,126.5C 213.667,174.167 213.667,221.833 213,269.5C 210.333,272.167 207.667,272.167 205,269.5C 204.333,222.167 204.333,174.833 205,127.5C 205.698,126.309 206.531,125.309 207.5,124.5 Z"/></g>
<g><path style="opacity:1" fill="#445e6a" d="M 201.5,67.5 C 218.859,65.3735 228.859,72.8735 231.5,90C 227.467,109.853 215.8,116.52 196.5,110C 184.978,101.287 182.478,90.4539 189,77.5C 192.462,73.1956 196.629,69.8622 201.5,67.5 Z"/></g>
<g><path style="opacity:1" fill="#fbfbfb" d="M 202.5,71.5 C 222.629,70.7743 230.129,80.1076 225,99.5C 218.502,108.428 210.002,110.928 199.5,107C 188.958,99.4552 186.792,89.9552 193,78.5C 195.825,75.524 198.992,73.1907 202.5,71.5 Z"/></g>
<g><path style="opacity:1" fill="#47606d" d="M 210.5,76.5 C 213.59,75.83 215.257,76.9967 215.5,80C 214.745,83.5182 213.912,87.0182 213,90.5C 211.274,91.5762 209.441,91.7429 207.5,91C 206.82,85.8766 207.82,81.0433 210.5,76.5 Z"/></g>
<g><path style="opacity:1" fill="#46606c" d="M 223.5,259.5 C 230.798,259.638 233.132,263.138 230.5,270C 224.818,273.07 221.152,271.57 219.5,265.5C 220.432,263.235 221.765,261.235 223.5,259.5 Z"/></g>
<g><path style="opacity:1" fill="#455f6c" d="M 188.5,259.5 C 196.605,260.543 198.272,264.377 193.5,271C 186.333,272.5 183.5,269.667 185,262.5C 186.145,261.364 187.312,260.364 188.5,259.5 Z"/></g>
<g><path style="opacity:1" fill="#48626c" d="M 197.5,307.5 C 198.833,307.5 200.167,307.5 201.5,307.5C 201.778,309.346 201.111,310.68 199.5,311.5C 197.889,310.68 197.222,309.346 197.5,307.5 Z"/></g>
<g><path style="opacity:1" fill="#48616b" d="M 203.5,307.5 C 204.833,307.5 206.167,307.5 207.5,307.5C 207.5,308.5 207.5,309.5 207.5,310.5C 206.167,310.5 204.833,310.5 203.5,310.5C 203.5,309.5 203.5,308.5 203.5,307.5 Z"/></g>
<g><path style="opacity:1" fill="#506973" d="M 209.5,307.5 C 210.833,307.5 212.167,307.5 213.5,307.5C 213.778,309.346 213.111,310.68 211.5,311.5C 209.889,310.68 209.222,309.346 209.5,307.5 Z"/></g>
<g><path style="opacity:1" fill="#34515c" d="M 215.5,307.5 C 216.5,307.5 217.5,307.5 218.5,307.5C 218.5,308.5 218.5,309.5 218.5,310.5C 217.5,310.5 216.5,310.5 215.5,310.5C 215.5,309.5 215.5,308.5 215.5,307.5 Z"/></g>
<g><path style="opacity:1" fill="#435d6a" d="M 224.5,355.5 C 224.5,352.5 224.5,349.5 224.5,346.5C 214.652,346.173 204.986,346.506 195.5,347.5C 195.665,350.518 195.498,353.518 195,356.5C 193.234,358.881 192.068,361.548 191.5,364.5C 188.451,366.466 185.118,366.966 181.5,366C 177.074,360.321 175.407,353.821 176.5,346.5C 170.824,346.666 165.157,346.499 159.5,346C 157.239,343.228 155.739,340.062 155,336.5C 154.134,332.736 152.967,329.069 151.5,325.5C 151.833,325.167 152.167,324.833 152.5,324.5C 155.07,325.634 157.736,326.468 160.5,327C 192.167,327.667 223.833,327.667 255.5,327C 258.82,325.884 262.153,325.217 265.5,325C 263.138,331.086 260.971,337.252 259,343.5C 258.167,344.333 257.333,345.167 256.5,346C 252.179,346.499 247.846,346.666 243.5,346.5C 244.476,354.016 242.476,360.516 237.5,366C 234.833,366.667 232.167,366.667 229.5,366C 227.31,362.722 225.644,359.222 224.5,355.5 Z"/></g>
<g><path style="opacity:1" fill="#fdfdfd" d="M 228.5,355.5 C 228.5,351.167 228.5,346.833 228.5,342.5C 215.989,342.171 203.655,342.505 191.5,343.5C 191.666,347.514 191.499,351.514 191,355.5C 188.897,357.303 188.064,359.636 188.5,362.5C 186.533,362.739 184.699,362.406 183,361.5C 180.823,355.428 179.99,349.094 180.5,342.5C 174.158,342.666 167.825,342.5 161.5,342C 159.499,338.21 158.499,334.377 158.5,330.5C 192.166,331.646 225.833,331.812 259.5,331C 258.073,334.444 256.74,337.944 255.5,341.5C 250.208,342.495 244.875,342.828 239.5,342.5C 239.666,346.846 239.499,351.179 239,355.5C 236.897,357.303 236.064,359.636 236.5,362.5C 234.801,362.66 233.134,362.494 231.5,362C 230.931,359.568 229.931,357.401 228.5,355.5 Z"/></g>
<g><path style="opacity:1" fill="#849599" d="M 191.5,343.5 C 203.655,342.505 215.989,342.171 228.5,342.5C 228.5,346.833 228.5,351.167 228.5,355.5C 227.517,351.702 227.183,347.702 227.5,343.5C 215.5,343.5 203.5,343.5 191.5,343.5 Z"/></g>
<g><path style="opacity:1" fill="#b0b6be" d="M 195.5,347.5 C 204.986,346.506 214.652,346.173 224.5,346.5C 224.5,349.5 224.5,352.5 224.5,355.5C 223.527,353.052 223.194,350.385 223.5,347.5C 214.167,347.5 204.833,347.5 195.5,347.5 Z"/></g>
</svg>
