<?xml version="1.0" standalone="no"?>
<!DOCTYPE svg PUBLIC "-//W3C//DTD SVG 20010904//EN"
 "http://www.w3.org/TR/2001/REC-SVG-20010904/DTD/svg10.dtd">
<svg version="1.0" xmlns="http://www.w3.org/2000/svg"
 width="474.000000pt" height="455.000000pt" viewBox="0 0 474.000000 455.000000"
 preserveAspectRatio="xMidYMid meet">

<g transform="translate(0.000000,455.000000) scale(0.100000,-0.100000)"
fill="#000000" stroke="none">
<path d="M2299 4532 c-15 -15 -191 -367 -580 -1159 -66 -134 -122 -243 -125
-243 -2 0 -100 -14 -217 -31 -116 -17 -458 -66 -759 -109 -300 -43 -556 -83
-567 -90 -41 -21 -27 -59 49 -135 48 -48 66 -71 57 -77 -8 -6 27 -46 113 -130
104 -101 528 -514 803 -782 62 -60 68 -68 62 -98 -250 -1459 -251 -1466 -239
-1485 22 -35 41 -38 90 -15 25 13 48 21 51 19 3 -4 -8 -89 -23 -172 -3 -17 -2
-25 3 -19 8 11 37 27 283 156 161 85 304 160 425 223 114 60 166 88 470 245
99 51 189 99 199 106 17 12 33 6 130 -45 113 -59 240 -125 511 -266 83 -43
173 -90 200 -105 28 -15 122 -64 210 -110 88 -45 210 -109 270 -141 l111 -58
-28 162 c-16 89 -49 281 -74 427 -25 146 -58 344 -75 440 -49 288 -89 523 -89
530 0 10 619 618 688 675 19 16 31 34 28 42 -4 8 -1 11 5 7 13 -8 250 226 242
239 -3 6 -2 7 4 4 9 -6 163 128 163 143 0 3 -41 12 -91 19 l-91 13 61 62 c63
63 77 100 48 125 -8 6 -234 42 -503 81 -269 39 -612 88 -762 110 -151 22 -278
40 -283 40 -5 0 -81 145 -168 323 -87 177 -241 489 -341 692 -100 204 -190
378 -201 388 -22 21 -39 21 -60 -1z m356 -827 c175 -355 326 -652 336 -661 11
-10 163 -36 500 -84 889 -128 950 -138 956 -144 3 -3 -3 -14 -14 -23 -11 -10
-179 -173 -374 -363 -194 -190 -422 -412 -506 -494 -89 -87 -153 -157 -153
-168 0 -10 36 -229 80 -486 139 -809 161 -944 158 -952 -2 -5 -82 33 -179 85
-514 274 -1116 585 -1132 585 -10 0 -89 -38 -175 -84 -86 -46 -254 -134 -372
-196 -118 -62 -246 -130 -285 -150 -38 -21 -119 -63 -180 -95 -60 -32 -152
-80 -203 -107 -77 -42 -92 -47 -92 -31 0 10 22 149 50 308 27 160 63 371 80
470 17 99 44 254 60 345 16 91 34 200 41 244 l13 78 -109 106 c-61 58 -294
286 -519 506 -224 221 -413 404 -419 408 -28 17 -58 12 783 133 135 19 326 46
425 60 99 14 196 29 215 35 35 9 38 15 359 665 179 360 327 655 331 655 3 0
150 -290 325 -645z"/>
</g>
</svg>
